NewsreaderDisplay-ExtraBold.ufo
<glyph name="exclam" format="2">
	<unicode hex="0021"/>
	<advance width="644"/>
	<outline>
		<contour>
			<point x="578" y="1248" type="line" smooth="yes"/>
			<point x="578" y="1382"/>
			<point x="450" y="1460"/>
			<point x="322" y="1460" type="curve" smooth="yes"/>
			<point x="194" y="1460"/>
			<point x="66" y="1382"/>
			<point x="66" y="1248" type="curve" smooth="yes"/>
			<point x="66" y="1228" type="line" smooth="yes"/>
			<point x="66" y="1126"/>
			<point x="213" y="928"/>
			<point x="300" y="553" type="curve"/>
			<point x="344" y="553" type="line"/>
			<point x="431" y="928"/>
			<point x="578" y="1126"/>
			<point x="578" y="1228" type="curve" smooth="yes"/>
		</contour>
		<contour>
			<point x="322" y="396" type="curve" smooth="yes"/>
			<point x="195" y="396"/>
			<point x="106" y="305"/>
			<point x="106" y="186" type="curve" smooth="yes"/>
			<point x="106" y="67"/>
			<point x="195" y="-24"/>
			<point x="322" y="-24" type="curve" smooth="yes"/>
			<point x="449" y="-24"/>
			<point x="538" y="67"/>
			<point x="538" y="186" type="curve" smooth="yes"/>
			<point x="538" y="305"/>
			<point x="449" y="396"/>
		</contour>
	</outline>
</glyph>
<glyph name="quotesingle" format="2">
	<unicode hex="0027"/>
	<advance width="434"/>
	<outline>
		<contour>
			<point x="184" y="832" type="line"/>
			<point x="232" y="832" type="line"/>
			<point x="406" y="1402" type="line"/>
			<point x="406" y="1430" type="line"/>
			<point x="36" y="1430" type="line"/>
			<point x="36" y="1402" type="line"/>
		</contour>
	</outline>
</glyph>
<glyph name="parenleft" format="2">
	<unicode hex="0028"/>
	<advance width="583"/>
	<outline>
		<contour>
			<point x="304" y="638" type="curve" smooth="yes"/>
			<point x="304" y="950"/>
			<point x="352" y="1143"/>
			<point x="546" y="1474" type="curve"/>
			<point x="512" y="1494" type="line"/>
			<point x="120" y="1035"/>
			<point x="56" y="884"/>
			<point x="56" y="638" type="curve" smooth="yes"/>
			<point x="56" y="392"/>
			<point x="120" y="241"/>
			<point x="512" y="-218" type="curve"/>
			<point x="546" y="-198" type="line"/>
			<point x="352" y="133"/>
			<point x="304" y="327"/>
		</contour>
	</outline>
</glyph>
<glyph name="parenright" format="2">
	<unicode hex="0029"/>
	<advance width="583"/>
	<outline>
		<contour>
			<point x="279" y="638" type="curve" smooth="yes"/>
			<point x="279" y="327"/>
			<point x="231" y="133"/>
			<point x="37" y="-198" type="curve"/>
			<point x="71" y="-218" type="line"/>
			<point x="463" y="241"/>
			<point x="527" y="392"/>
			<point x="527" y="638" type="curve" smooth="yes"/>
			<point x="527" y="884"/>
			<point x="463" y="1035"/>
			<point x="71" y="1494" type="curve"/>
			<point x="37" y="1474" type="line"/>
			<point x="231" y="1143"/>
			<point x="279" y="949"/>
		</contour>
	</outline>
</glyph>
<glyph name="asterisk" format="2">
	<unicode hex="002A"/>
	<advance width="816"/>
	<outline>
		<contour>
			<point x="556" y="812" type="line"/>
			<point x="509" y="1060" type="line"/>
			<point x="745" y="1132" type="line"/>
			<point x="743" y="1168" type="line"/>
			<point x="498" y="1198" type="line"/>
			<point x="508" y="1451" type="line"/>
			<point x="474" y="1459" type="line"/>
			<point x="366" y="1231" type="line"/>
			<point x="125" y="1318" type="line"/>
			<point x="105" y="1284" type="line"/>
			<point x="293" y="1114" type="line"/>
			<point x="134" y="915" type="line"/>
			<point x="160" y="888" type="line"/>
			<point x="382" y="1008" type="line"/>
			<point x="524" y="799" type="line"/>
		</contour>
	</outline>
</glyph>
<glyph name="plus" format="2">
  <advance width="1150"/>
  <unicode hex="002B"/>
  <outline>
    <contour>
      <point x="527.0" y="923.0" type="line"/>
      <point x="527.0" y="101.0" type="line"/>
      <point x="623.0" y="101.0" type="line"/>
      <point x="623.0" y="923.0" type="line"/>
    </contour>
    <contour>
      <point x="986.0" y="560.0" type="line"/>
      <point x="164.0" y="560.0" type="line"/>
      <point x="164.0" y="464.0" type="line"/>
      <point x="986.0" y="464.0" type="line"/>
    </contour>
  </outline>
</glyph>
<glyph name="comma" format="2">
	<unicode hex="002C"/>
	<advance width="557"/>
	<outline>
		<contour>
			<point x="64" y="-309" type="curve"/>
			<point x="100" y="-348" type="line"/>
			<point x="389" y="-189"/>
			<point x="487" y="-3"/>
			<point x="487" y="167" type="curve" smooth="yes"/>
			<point x="487" y="305"/>
			<point x="398" y="396"/>
			<point x="271" y="396" type="curve" smooth="yes"/>
			<point x="144" y="396"/>
			<point x="55" y="315"/>
			<point x="55" y="196" type="curve" smooth="yes"/>
			<point x="55" y="163"/>
			<point x="242" y="90"/>
			<point x="242" y="-51" type="curve" smooth="yes"/>
			<point x="242" y="-157"/>
			<point x="187" y="-234"/>
		</contour>
	</outline>
</glyph>
<glyph name="hyphen" format="2">
	<unicode hex="002D"/>
	<advance width="672"/>
	<outline>
		<contour>
			<point x="104" y="610" type="line"/>
			<point x="104" y="434" type="line"/>
			<point x="568" y="434" type="line"/>
			<point x="568" y="610" type="line"/>
		</contour>
	</outline>
</glyph>
<glyph name="period" format="2">
	<unicode hex="002E"/>
	<advance width="558"/>
	<outline>
		<contour>
			<point x="279" y="396" type="curve" smooth="yes"/>
			<point x="152" y="396"/>
			<point x="63" y="305"/>
			<point x="63" y="186" type="curve" smooth="yes"/>
			<point x="63" y="67"/>
			<point x="152" y="-24"/>
			<point x="279" y="-24" type="curve" smooth="yes"/>
			<point x="406" y="-24"/>
			<point x="495" y="67"/>
			<point x="495" y="186" type="curve" smooth="yes"/>
			<point x="495" y="305"/>
			<point x="406" y="396"/>
		</contour>
	</outline>
</glyph>
<glyph name="slash" format="2">
	<unicode hex="002F"/>
	<advance width="777"/>
	<outline>
		<contour>
			<point x="44" y="0" type="line"/>
			<point x="139" y="0" type="line"/>
			<point x="736" y="1430" type="line"/>
			<point x="641" y="1430" type="line"/>
		</contour>
	</outline>
</glyph>
<glyph name="zero" format="2">
	<unicode hex="0030"/>
	<advance width="1400"/>
	<outline>
		<contour>
			<point x="701" y="53" type="curve" smooth="yes"/>
			<point x="600" y="53"/>
			<point x="547" y="222"/>
			<point x="547" y="767" type="curve" smooth="yes"/>
			<point x="547" y="1227"/>
			<point x="602" y="1377"/>
			<point x="700" y="1377" type="curve" smooth="yes"/>
			<point x="801" y="1377"/>
			<point x="854" y="1208"/>
			<point x="854" y="663" type="curve" smooth="yes"/>
			<point x="854" y="203"/>
			<point x="799" y="53"/>
		</contour>
		<contour>
			<point x="716" y="1460" type="curve" smooth="yes"/>
			<point x="341" y="1460"/>
			<point x="67" y="1159"/>
			<point x="67" y="716" type="curve" smooth="yes"/>
			<point x="67" y="272"/>
			<point x="308" y="-30"/>
			<point x="685" y="-30" type="curve" smooth="yes"/>
			<point x="1060" y="-30"/>
			<point x="1334" y="271"/>
			<point x="1334" y="714" type="curve" smooth="yes"/>
			<point x="1334" y="1158"/>
			<point x="1093" y="1460"/>
		</contour>
	</outline>
</glyph>
<glyph name="one" format="2">
	<unicode hex="0031"/>
	<advance width="1400"/>
	<outline>
		<contour>
			<point x="493" y="88" type="line"/>
			<point x="224" y="37" type="line"/>
			<point x="224" y="0" type="line"/>
			<point x="1245" y="0" type="line"/>
			<point x="1245" y="37" type="line"/>
			<point x="991" y="88" type="line"/>
			<point x="991" y="1430" type="line"/>
			<point x="931" y="1430" type="line"/>
			<point x="177" y="1080" type="line"/>
			<point x="194" y="1028" type="line"/>
			<point x="840" y="1146" type="line"/>
			<point x="493" y="1209" type="line"/>
		</contour>
	</outline>
</glyph>
<glyph name="colon" format="2">
  <advance width="610"/>
  <unicode hex="003A"/>
  <outline>
    <contour>
      <point x="305.0" y="396.0" type="curve" smooth="yes"/>
      <point x="178.0" y="396.0"/>
      <point x="89.0" y="305.0"/>
      <point x="89.0" y="186.0" type="curve" smooth="yes"/>
      <point x="89.0" y="67.0"/>
      <point x="178.0" y="-24.0"/>
      <point x="305.0" y="-24.0" type="curve" smooth="yes"/>
      <point x="432.0" y="-24.0"/>
      <point x="521.0" y="67.0"/>
      <point x="521.0" y="186.0" type="curve" smooth="yes"/>
      <point x="521.0" y="305.0"/>
      <point x="432.0" y="396.0"/>
    </contour>
    <contour>
      <point x="305.0" y="1049.0" type="curve" smooth="yes"/>
      <point x="178.0" y="1049.0"/>
      <point x="89.0" y="958.0"/>
      <point x="89.0" y="839.0" type="curve" smooth="yes"/>
      <point x="89.0" y="720.0"/>
      <point x="178.0" y="629.0"/>
      <point x="305.0" y="629.0" type="curve" smooth="yes"/>
      <point x="432.0" y="629.0"/>
      <point x="521.0" y="720.0"/>
      <point x="521.0" y="839.0" type="curve" smooth="yes"/>
      <point x="521.0" y="958.0"/>
      <point x="432.0" y="1049.0"/>
    </contour>
  </outline>
</glyph>
<glyph name="semicolon" format="2">
	<unicode hex="003B"/>
	<advance width="608"/>
	<outline>
		<contour>
			<point x="93" y="-309" type="curve"/>
			<point x="129" y="-348" type="line"/>
			<point x="418" y="-189"/>
			<point x="516" y="-3"/>
			<point x="516" y="167" type="curve" smooth="yes"/>
			<point x="516" y="305"/>
			<point x="427" y="396"/>
			<point x="300" y="396" type="curve" smooth="yes"/>
			<point x="173" y="396"/>
			<point x="84" y="315"/>
			<point x="84" y="196" type="curve" smooth="yes"/>
			<point x="84" y="163"/>
			<point x="271" y="90"/>
			<point x="271" y="-51" type="curve" smooth="yes"/>
			<point x="271" y="-157"/>
			<point x="216" y="-234"/>
		</contour>
		<contour>
			<point x="300" y="1048" type="curve" smooth="yes"/>
			<point x="173" y="1048"/>
			<point x="84" y="957"/>
			<point x="84" y="838" type="curve" smooth="yes"/>
			<point x="84" y="719"/>
			<point x="173" y="628"/>
			<point x="300" y="628" type="curve" smooth="yes"/>
			<point x="427" y="628"/>
			<point x="516" y="719"/>
			<point x="516" y="838" type="curve" smooth="yes"/>
			<point x="516" y="957"/>
			<point x="427" y="1048"/>
		</contour>
	</outline>
</glyph>
<glyph name="less" format="2">
	<unicode hex="003C"/>
	<advance width="1150"/>
	<outline>
		<contour>
			<point x="145" y="468" type="line"/>
			<point x="981" y="115" type="line"/>
			<point x="981" y="217" type="line"/>
			<point x="239" y="525" type="line"/>
			<point x="239" y="505" type="line"/>
			<point x="981" y="807" type="line"/>
			<point x="981" y="909" type="line"/>
			<point x="145" y="556" type="line"/>
		</contour>
	</outline>
</glyph>
<glyph name="greater" format="2">
	<unicode hex="003E"/>
	<advance width="1150"/>
	<outline>
		<contour>
			<point x="1005" y="468" type="line"/>
			<point x="1005" y="556" type="line"/>
			<point x="169" y="909" type="line"/>
			<point x="169" y="807" type="line"/>
			<point x="911" y="505" type="line"/>
			<point x="911" y="525" type="line"/>
			<point x="169" y="217" type="line"/>
			<point x="169" y="115" type="line"/>
		</contour>
	</outline>
</glyph>
<glyph name="question" format="2">
	<unicode hex="003F"/>
	<advance width="1049"/>
	<outline>
		<contour>
			<point x="351" y="1460" type="curve" smooth="yes"/>
			<point x="131" y="1460"/>
			<point x="49" y="1388"/>
			<point x="49" y="1290" type="curve" smooth="yes"/>
			<point x="49" y="1207"/>
			<point x="130" y="1134"/>
			<point x="192" y="1134" type="curve" smooth="yes"/>
			<point x="231" y="1134"/>
			<point x="388" y="1348"/>
			<point x="589" y="1348" type="curve" smooth="yes"/>
			<point x="704" y="1348"/>
			<point x="758" y="1288"/>
			<point x="758" y="1182" type="curve" smooth="yes"/>
			<point x="758" y="1063"/>
			<point x="692" y="985"/>
			<point x="330" y="985" type="curve"/>
			<point x="447" y="553" type="line"/>
			<point x="494" y="553" type="line"/>
			<point x="494" y="876" type="line"/>
			<point x="457" y="674" type="line"/>
			<point x="834" y="659"/>
			<point x="964" y="750"/>
			<point x="964" y="1005" type="curve" smooth="yes"/>
			<point x="964" y="1244"/>
			<point x="758" y="1460"/>
		</contour>
		<contour>
			<point x="471" y="396" type="curve" smooth="yes"/>
			<point x="344" y="396"/>
			<point x="255" y="305"/>
			<point x="255" y="186" type="curve" smooth="yes"/>
			<point x="255" y="67"/>
			<point x="344" y="-24"/>
			<point x="471" y="-24" type="curve" smooth="yes"/>
			<point x="598" y="-24"/>
			<point x="687" y="67"/>
			<point x="687" y="186" type="curve" smooth="yes"/>
			<point x="687" y="305"/>
			<point x="598" y="396"/>
		</contour>
	</outline>
</glyph>
<glyph name="at" format="2">
	<unicode hex="0040"/>
	<advance width="1822"/>
	<outline>
		<contour>
			<point x="1260" y="237" type="curve" smooth="yes"/>
			<point x="1578" y="237"/>
			<point x="1796" y="482"/>
			<point x="1796" y="812" type="curve" smooth="yes"/>
			<point x="1796" y="1184"/>
			<point x="1504" y="1460"/>
			<point x="1022" y="1460" type="curve" smooth="yes"/>
			<point x="451" y="1460"/>
			<point x="59" y="1055"/>
			<point x="59" y="537" type="curve" smooth="yes"/>
			<point x="59" y="59"/>
			<point x="412" y="-218"/>
			<point x="925" y="-218" type="curve" smooth="yes"/>
			<point x="1191" y="-218"/>
			<point x="1406" y="-146"/>
			<point x="1591" y="-25" type="curve"/>
			<point x="1564" y="17" type="line"/>
			<point x="1360" y="-107"/>
			<point x="1153" y="-151"/>
			<point x="954" y="-151" type="curve" smooth="yes"/>
			<point x="519" y="-151"/>
			<point x="234" y="120"/>
			<point x="234" y="551" type="curve" smooth="yes"/>
			<point x="234" y="1042"/>
			<point x="536" y="1398"/>
			<point x="1011" y="1398" type="curve" smooth="yes"/>
			<point x="1422" y="1398"/>
			<point x="1642" y="1128"/>
			<point x="1642" y="800" type="curve" smooth="yes"/>
			<point x="1642" y="469"/>
			<point x="1464" y="292"/>
			<point x="1345" y="292" type="curve" smooth="yes"/>
			<point x="1308" y="292"/>
			<point x="1289" y="314"/>
			<point x="1289" y="366" type="curve" smooth="yes"/>
			<point x="1289" y="399"/>
			<point x="1296" y="443"/>
			<point x="1311" y="500" type="curve" smooth="yes"/>
			<point x="1451" y="1039" type="line"/>
			<point x="1141" y="1039" type="line"/>
			<point x="1114" y="940" type="line"/>
			<point x="1020" y="629" type="line"/>
			<point x="964" y="505"/>
			<point x="903" y="456"/>
			<point x="855" y="456" type="curve" smooth="yes"/>
			<point x="825" y="456"/>
			<point x="815" y="469"/>
			<point x="815" y="522" type="curve" smooth="yes"/>
			<point x="815" y="668"/>
			<point x="943" y="943"/>
			<point x="1057" y="943" type="curve" smooth="yes"/>
			<point x="1115" y="943"/>
			<point x="1137" y="903"/>
			<point x="1164" y="817" type="curve"/>
			<point x="1180" y="844" type="line"/>
			<point x="1142" y="996"/>
			<point x="1044" y="1062"/>
			<point x="959" y="1062" type="curve" smooth="yes"/>
			<point x="715" y="1062"/>
			<point x="483" y="694"/>
			<point x="483" y="437" type="curve" smooth="yes"/>
			<point x="483" y="297"/>
			<point x="542" y="237"/>
			<point x="656" y="237" type="curve" smooth="yes"/>
			<point x="774" y="237"/>
			<point x="889" y="288"/>
			<point x="1067" y="638" type="curve"/>
			<point x="1040" y="643" type="line"/>
			<point x="1017" y="530" type="line" smooth="yes"/>
			<point x="1010" y="497"/>
			<point x="1007" y="467"/>
			<point x="1007" y="440" type="curve" smooth="yes"/>
			<point x="1007" y="296"/>
			<point x="1102" y="237"/>
		</contour>
	</outline>
</glyph>
<glyph name="A" format="2">
  <advance width="1645"/>
  <unicode hex="0041"/>
  <guideline x="215.0" y="83.0" angle="68.14715805034176" identifier="Hu7VVTdWyh"/>
  <anchor x="793.0" y="1430.0" name="UCtop"/>
  <anchor x="703.0" y="0" name="bottom"/>
  <anchor x="1371.0" y="0" name="right"/>
  <outline>
    <contour>
      <point x="314" y="440" type="line"/>
      <point x="1017" y="440" type="line"/>
      <point x="1017" y="530" type="line"/>
      <point x="314" y="530" type="line"/>
    </contour>
    <contour>
      <point x="1535" y="92" type="line"/>
      <point x="954" y="1430" type="line"/>
      <point x="640" y="1430" type="line"/>
      <point x="124" y="86" type="line"/>
      <point x="-29" y="36" type="line"/>
      <point x="-29" y="0" type="line"/>
      <point x="398" y="0" type="line"/>
      <point x="398" y="36" type="line"/>
      <point x="224" y="83" type="line"/>
      <point x="628" y="1178" type="line"/>
      <point x="546" y="1130" type="line"/>
      <point x="990" y="90" type="line"/>
      <point x="824" y="38" type="line"/>
      <point x="824" y="0" type="line"/>
      <point x="1691" y="0" type="line"/>
      <point x="1691" y="38" type="line"/>
    </contour>
  </outline>
</glyph>
<glyph name="B" format="2">
	<unicode hex="0042"/>
	<advance width="1580"/>
	<outline>
		<contour>
			<point x="356" y="1330" type="line"/>
			<point x="736" y="1330" type="line" smooth="yes"/>
			<point x="926" y="1330"/>
			<point x="1001" y="1230"/>
			<point x="1001" y="1077" type="curve" smooth="yes"/>
			<point x="1001" y="904"/>
			<point x="926" y="816"/>
			<point x="812" y="816" type="curve" smooth="yes"/>
			<point x="356" y="816" type="line"/>
			<point x="366" y="716" type="line"/>
			<point x="799" y="716" type="line" smooth="yes"/>
			<point x="998" y="716"/>
			<point x="1086" y="590"/>
			<point x="1086" y="413" type="curve" smooth="yes"/>
			<point x="1086" y="195"/>
			<point x="968" y="100"/>
			<point x="772" y="100" type="curve" smooth="yes"/>
			<point x="367" y="100" type="line"/>
			<point x="492" y="0" type="line"/>
			<point x="913" y="0" type="line" smooth="yes"/>
			<point x="1343" y="0"/>
			<point x="1526" y="155"/>
			<point x="1526" y="390" type="curve" smooth="yes"/>
			<point x="1526" y="633"/>
			<point x="1354" y="762"/>
			<point x="1050" y="783" type="curve"/>
			<point x="1028" y="767" type="line"/>
			<point x="1266" y="789"/>
			<point x="1437" y="908"/>
			<point x="1437" y="1104" type="curve" smooth="yes"/>
			<point x="1437" y="1293"/>
			<point x="1297" y="1430"/>
			<point x="954" y="1430" type="curve" smooth="yes"/>
			<point x="491" y="1430" type="line"/>
		</contour>
		<contour>
			<point x="41" y="0" type="line"/>
			<point x="702" y="0" type="line"/>
			<point x="702" y="1430" type="line"/>
			<point x="41" y="1430" type="line"/>
			<point x="41" y="1391" type="line"/>
			<point x="194" y="1337" type="line"/>
			<point x="194" y="94" type="line"/>
			<point x="41" y="38" type="line"/>
		</contour>
	</outline>
	<anchor name="UCtop" x="763" y="1430"/>
	<anchor name="bottom" x="763" y="0"/>
</glyph>
<glyph name="C" format="2">
	<unicode hex="0043"/>
	<advance width="1478"/>
	<outline>
		<contour>
			<point x="1007" y="53" type="curve" smooth="yes"/>
			<point x="772" y="53"/>
			<point x="582" y="392"/>
			<point x="582" y="807" type="curve" smooth="yes"/>
			<point x="582" y="1228"/>
			<point x="709" y="1373"/>
			<point x="907" y="1373" type="curve" smooth="yes"/>
			<point x="1005.3028169014" y="1373"/>
			<point x="1087.7229760669" y="1344.5966062395"/>
			<point x="1204" y="1212" type="curve"/>
			<point x="1106" y="1335" type="line"/>
			<point x="1381" y="923" type="line"/>
			<point x="1418" y="936" type="line"/>
			<point x="1303" y="1510" type="line"/>
			<point x="1287" y="1510" type="line"/>
			<point x="1121" y="1392" type="line"/>
			<point x="1229" y="1424" type="line"/>
			<point x="1106.2020100937" y="1451.0571842166"/>
			<point x="1031.9442622951" y="1460"/>
			<point x="911" y="1460" type="curve" smooth="yes"/>
			<point x="401" y="1460"/>
			<point x="63" y="1162"/>
			<point x="63" y="728" type="curve" smooth="yes"/>
			<point x="63" y="232"/>
			<point x="379" y="-30"/>
			<point x="901" y="-30" type="curve" smooth="yes"/>
			<point x="1070.0066225166" y="-30"/>
			<point x="1198.9734547876" y="-14.0746749125"/>
			<point x="1341" y="19" type="curve"/>
			<point x="1431" y="437" type="line"/>
			<point x="1392" y="437" type="line"/>
			<point x="1132" y="58" type="line"/>
			<point x="1190" y="101" type="line"/>
			<point x="1140.4949959734" y="70.5353821375"/>
			<point x="1080.7602040816" y="53"/>
		</contour>
	</outline>
	<anchor name="UCtop" x="830" y="1430"/>
	<anchor name="bottom" x="830" y="0"/>
	<anchor name="right" x="1352" y="0"/>
</glyph>
<glyph name="D" format="2">
	<unicode hex="0044"/>
	<advance width="1681"/>
	<outline>
		<contour>
			<point x="1100" y="725" type="curve" smooth="yes"/>
			<point x="1100" y="275"/>
			<point x="987" y="100"/>
			<point x="770" y="100" type="curve" smooth="yes"/>
			<point x="473" y="100" type="line"/>
			<point x="432" y="0" type="line"/>
			<point x="817" y="0" type="line" smooth="yes"/>
			<point x="1272" y="0"/>
			<point x="1616" y="253"/>
			<point x="1616" y="748" type="curve" smooth="yes"/>
			<point x="1616" y="1182"/>
			<point x="1321" y="1430"/>
			<point x="803" y="1430" type="curve" smooth="yes"/>
			<point x="432" y="1430" type="line"/>
			<point x="473" y="1330" type="line"/>
			<point x="743" y="1330" type="line" smooth="yes"/>
			<point x="988" y="1330"/>
			<point x="1100" y="1142"/>
		</contour>
		<contour>
			<point x="47" y="0" type="line"/>
			<point x="698" y="0" type="line"/>
			<point x="698" y="1430" type="line"/>
			<point x="47" y="1430" type="line"/>
			<point x="47" y="1391" type="line"/>
			<point x="190" y="1345" type="line"/>
			<point x="190" y="86" type="line"/>
			<point x="47" y="38" type="line"/>
		</contour>
	</outline>
	<anchor name="UCtop" x="848" y="1430"/>
	<anchor name="bottom" x="848" y="0"/>
</glyph>
<glyph name="E" format="2">
	<unicode hex="0045"/>
	<advance width="1531"/>
	<outline>
		<contour>
			<point x="1097" y="1079" type="line"/>
			<point x="1065" y="1079" type="line"/>
			<point x="926" y="810" type="line"/>
			<point x="606" y="785" type="line"/>
			<point x="606" y="709" type="line"/>
			<point x="926" y="686" type="line"/>
			<point x="1065" y="415" type="line"/>
			<point x="1097" y="415" type="line"/>
			<point x="1043" y="746" type="line"/>
		</contour>
		<contour>
			<point x="1436" y="971" type="line"/>
			<point x="1332" y="1519" type="line"/>
			<point x="1311" y="1519" type="line"/>
			<point x="1160" y="1430" type="line"/>
			<point x="432" y="1430" type="line"/>
			<point x="432" y="1330" type="line"/>
			<point x="1285" y="1330" type="line"/>
			<point x="1115" y="1387" type="line"/>
			<point x="1397" y="959" type="line"/>
		</contour>
		<contour>
			<point x="1172" y="54" type="line"/>
			<point x="1317" y="100" type="line"/>
			<point x="432" y="100" type="line"/>
			<point x="432" y="0" type="line"/>
			<point x="1216" y="0" type="line"/>
			<point x="1355" y="-83" type="line"/>
			<point x="1385" y="-83" type="line"/>
			<point x="1515" y="492" type="line"/>
			<point x="1470" y="503" type="line"/>
		</contour>
		<contour>
			<point x="47" y="0" type="line"/>
			<point x="698" y="0" type="line"/>
			<point x="698" y="1430" type="line"/>
			<point x="47" y="1430" type="line"/>
			<point x="47" y="1391" type="line"/>
			<point x="190" y="1345" type="line"/>
			<point x="190" y="86" type="line"/>
			<point x="47" y="38" type="line"/>
		</contour>
	</outline>
	<anchor name="UCtop" x="736" y="1430"/>
	<anchor name="right" x="1325" y="0"/>
	<anchor name="bottom" x="756" y="0"/>
</glyph>
<glyph name="F" format="2">
	<unicode hex="0046"/>
	<advance width="1396"/>
	<outline>
		<contour>
			<point x="1097" y="1039" type="line"/>
			<point x="1065" y="1039" type="line"/>
			<point x="926" y="770" type="line"/>
			<point x="606" y="745" type="line"/>
			<point x="606" y="669" type="line"/>
			<point x="926" y="646" type="line"/>
			<point x="1065" y="375" type="line"/>
			<point x="1097" y="375" type="line"/>
			<point x="1043" y="706" type="line"/>
		</contour>
		<contour>
			<point x="1271" y="1519" type="line"/>
			<point x="1120" y="1430" type="line"/>
			<point x="432" y="1430" type="line"/>
			<point x="432" y="1330" type="line"/>
			<point x="1245" y="1330" type="line"/>
			<point x="1075" y="1387" type="line"/>
			<point x="1357" y="959" type="line"/>
			<point x="1396" y="971" type="line"/>
			<point x="1292" y="1519" type="line"/>
		</contour>
		<contour>
			<point x="698" y="1430" type="line"/>
			<point x="47" y="1430" type="line"/>
			<point x="47" y="1391" type="line"/>
			<point x="190" y="1345" type="line"/>
			<point x="190" y="86" type="line"/>
			<point x="47" y="38" type="line"/>
			<point x="47" y="0" type="line"/>
			<point x="841" y="0" type="line"/>
			<point x="841" y="38" type="line"/>
			<point x="698" y="86" type="line"/>
		</contour>
	</outline>
	<anchor name="UCtop" x="712" y="1430"/>
	<anchor name="bottom" x="445" y="0"/>
</glyph>
<glyph name="G" format="2">
	<unicode hex="0047"/>
	<advance width="1634"/>
	<outline>
		<contour>
			<point x="1481" y="125" type="line"/>
			<point x="1481" y="549" type="line"/>
			<point x="1597" y="599" type="line"/>
			<point x="1597" y="639" type="line"/>
			<point x="837" y="639" type="line"/>
			<point x="837" y="599" type="line"/>
			<point x="990" y="543" type="line"/>
			<point x="990" y="-1" type="line"/>
			<point x="1127" y="85" type="line"/>
			<point x="1078" y="67"/>
			<point x="1031" y="57"/>
			<point x="984" y="57" type="curve" smooth="yes"/>
			<point x="763" y="57"/>
			<point x="582" y="376"/>
			<point x="582" y="814" type="curve" smooth="yes"/>
			<point x="582" y="1228"/>
			<point x="729" y="1373"/>
			<point x="957" y="1373" type="curve" smooth="yes"/>
			<point x="1051" y="1373"/>
			<point x="1127" y="1342"/>
			<point x="1241" y="1212" type="curve"/>
			<point x="1143" y="1335" type="line"/>
			<point x="1418" y="923" type="line"/>
			<point x="1455" y="936" type="line"/>
			<point x="1340" y="1510" type="line"/>
			<point x="1324" y="1510" type="line"/>
			<point x="1158" y="1392" type="line"/>
			<point x="1266" y="1424" type="line"/>
			<point x="1148" y="1450"/>
			<point x="1077" y="1460"/>
			<point x="961" y="1460" type="curve" smooth="yes"/>
			<point x="421" y="1460"/>
			<point x="63" y="1162"/>
			<point x="63" y="728" type="curve" smooth="yes"/>
			<point x="63" y="232"/>
			<point x="379" y="-30"/>
			<point x="901" y="-30" type="curve" smooth="yes"/>
			<point x="1104" y="-30"/>
			<point x="1324" y="4"/>
			<point x="1597" y="83" type="curve"/>
			<point x="1597" y="125" type="line"/>
		</contour>
	</outline>
	<anchor name="UCtop" x="850" y="1430"/>
	<anchor name="bottom" x="928" y="0"/>
</glyph>
<glyph name="H" format="2">
	<unicode hex="0048"/>
	<advance width="1852"/>
	<outline>
		<contour>
			<point x="698" y="86" type="line"/>
			<point x="698" y="1345" type="line"/>
			<point x="841" y="1391" type="line"/>
			<point x="841" y="1430" type="line"/>
			<point x="47" y="1430" type="line"/>
			<point x="47" y="1391" type="line"/>
			<point x="190" y="1345" type="line"/>
			<point x="190" y="86" type="line"/>
			<point x="47" y="38" type="line"/>
			<point x="47" y="0" type="line"/>
			<point x="841" y="0" type="line"/>
			<point x="841" y="38" type="line"/>
		</contour>
		<contour>
			<point x="1662" y="86" type="line"/>
			<point x="1662" y="1345" type="line"/>
			<point x="1805" y="1391" type="line"/>
			<point x="1805" y="1430" type="line"/>
			<point x="1011" y="1430" type="line"/>
			<point x="1011" y="1391" type="line"/>
			<point x="1154" y="1345" type="line"/>
			<point x="1154" y="86" type="line"/>
			<point x="1011" y="38" type="line"/>
			<point x="1011" y="0" type="line"/>
			<point x="1805" y="0" type="line"/>
			<point x="1805" y="38" type="line"/>
		</contour>
		<contour>
			<point x="432" y="692" type="line"/>
			<point x="1417" y="692" type="line"/>
			<point x="1417" y="792" type="line"/>
			<point x="432" y="792" type="line"/>
		</contour>
	</outline>
	<anchor name="UCtop" x="926" y="1430"/>
	<anchor name="bottom" x="926" y="0"/>
</glyph>
<glyph name="I" format="2">
	<unicode hex="0049"/>
	<advance width="888"/>
	<outline>
		<contour>
			<point x="841" y="38" type="line"/>
			<point x="698" y="86" type="line"/>
			<point x="698" y="1345" type="line"/>
			<point x="841" y="1391" type="line"/>
			<point x="841" y="1430" type="line"/>
			<point x="47" y="1430" type="line"/>
			<point x="47" y="1391" type="line"/>
			<point x="190" y="1345" type="line"/>
			<point x="190" y="86" type="line"/>
			<point x="47" y="38" type="line"/>
			<point x="47" y="0" type="line"/>
			<point x="841" y="0" type="line"/>
		</contour>
	</outline>
	<anchor name="UCtop" x="444" y="1430"/>
	<anchor name="right" x="614" y="0"/>
	<anchor name="bottom" x="444" y="0"/>
</glyph>
<glyph name="J" format="2">
	<unicode hex="004A"/>
	<advance width="1055"/>
	<outline>
		<contour>
			<point x="891" y="565" type="curve" smooth="yes"/>
			<point x="891" y="1345" type="line"/>
			<point x="1034" y="1391" type="line"/>
			<point x="1034" y="1430" type="line"/>
			<point x="240" y="1430" type="line"/>
			<point x="240" y="1391" type="line"/>
			<point x="383" y="1345" type="line"/>
			<point x="383" y="206" type="line" smooth="yes"/>
			<point x="383" y="148"/>
			<point x="357" y="132"/>
			<point x="317" y="132" type="curve" smooth="yes"/>
			<point x="225" y="132"/>
			<point x="148" y="258"/>
			<point x="116" y="258" type="curve" smooth="yes"/>
			<point x="51" y="258"/>
			<point x="-8" y="202"/>
			<point x="-8" y="121" type="curve" smooth="yes"/>
			<point x="-8" y="35"/>
			<point x="58" y="-23"/>
			<point x="189" y="-23" type="curve" smooth="yes"/>
			<point x="536" y="-23"/>
			<point x="891" y="267"/>
		</contour>
	</outline>
	<anchor name="UCtop" x="637" y="1430"/>
	<anchor name="bottom" x="587" y="0"/>
</glyph>
<glyph name="K" format="2">
	<unicode hex="004B"/>
	<advance width="1787"/>
	<outline>
		<contour>
			<point x="1721" y="89" type="line"/>
			<point x="1109" y="1033" type="line"/>
			<point x="843" y="799" type="line"/>
			<point x="1526" y="1339" type="line"/>
			<point x="1706" y="1391" type="line"/>
			<point x="1706" y="1430" type="line"/>
			<point x="1241" y="1430" type="line"/>
			<point x="1241" y="1391" type="line"/>
			<point x="1411" y="1343" type="line"/>
			<point x="728" y="799" type="line"/>
			<point x="571" y="799" type="line"/>
			<point x="571" y="699" type="line"/>
			<point x="726" y="699" type="line"/>
			<point x="1109" y="78" type="line"/>
			<point x="985" y="38" type="line"/>
			<point x="985" y="0" type="line"/>
			<point x="1843" y="0" type="line"/>
			<point x="1843" y="38" type="line"/>
		</contour>
		<contour>
			<point x="698" y="1345" type="line"/>
			<point x="841" y="1391" type="line"/>
			<point x="841" y="1430" type="line"/>
			<point x="47" y="1430" type="line"/>
			<point x="47" y="1391" type="line"/>
			<point x="190" y="1345" type="line"/>
			<point x="190" y="86" type="line"/>
			<point x="47" y="38" type="line"/>
			<point x="47" y="0" type="line"/>
			<point x="841" y="0" type="line"/>
			<point x="841" y="38" type="line"/>
			<point x="698" y="86" type="line"/>
		</contour>
	</outline>
	<anchor name="UCtop" x="920" y="1430"/>
	<anchor name="bottom" x="920" y="0"/>
</glyph>
<glyph name="L" format="2">
	<unicode hex="004C"/>
	<advance width="1430"/>
	<outline>
		<contour>
			<point x="1295" y="-83" type="line"/>
			<point x="1425" y="492" type="line"/>
			<point x="1380" y="503" type="line"/>
			<point x="1062" y="54" type="line"/>
			<point x="1227" y="100" type="line"/>
			<point x="432" y="100" type="line"/>
			<point x="432" y="0" type="line"/>
			<point x="1106" y="0" type="line"/>
			<point x="1265" y="-83" type="line"/>
		</contour>
		<contour>
			<point x="698" y="1345" type="line"/>
			<point x="841" y="1391" type="line"/>
			<point x="841" y="1430" type="line"/>
			<point x="47" y="1430" type="line"/>
			<point x="47" y="1391" type="line"/>
			<point x="190" y="1345" type="line"/>
			<point x="190" y="86" type="line"/>
			<point x="47" y="38" type="line"/>
			<point x="47" y="0" type="line"/>
			<point x="698" y="0" type="line"/>
		</contour>
	</outline>
	<anchor name="UCtop" x="444" y="1430"/>
	<anchor name="right" x="914" y="1430"/>
	<anchor name="bottom" x="694" y="0"/>
	<anchor name="mid" x="1172" y="773"/>
</glyph>
<glyph name="M" format="2">
  <advance width="2262"/>
  <unicode hex="004D"/>
  <guideline x="-73.0" y="38" angle="180.0" identifier="aEO62iqPtZ"/>
  <guideline x="346" y="1227" angle="0" identifier="Qpo2CJ1LwR"/>
  <anchor x="1054.0" y="1430.0" name="UCtop"/>
  <anchor x="1054.0" y="0" name="bottom"/>
  <outline>
    <contour>
      <point x="2090" y="100" type="line"/>
      <point x="1989" y="1337" type="line"/>
      <point x="2168" y="1391" type="line"/>
      <point x="2168" y="1430" type="line"/>
      <point x="1453" y="1430" type="line"/>
      <point x="1097" y="404" type="line"/>
      <point x="1120" y="403" type="line"/>
      <point x="801" y="1430" type="line"/>
      <point x="53" y="1430" type="line"/>
      <point x="53" y="1391" type="line"/>
      <point x="233" y="1304" type="line"/>
      <point x="162" y="74" type="line"/>
      <point x="10" y="38" type="line"/>
      <point x="10" y="0" type="line"/>
      <point x="409" y="0" type="line"/>
      <point x="409" y="38" type="line"/>
      <point x="251" y="74" type="line"/>
      <point x="321" y="1280" type="line"/>
      <point x="301" y="1278" type="line"/>
      <point x="727" y="0" type="line"/>
      <point x="1046" y="0" type="line"/>
      <point x="1494" y="1273" type="line"/>
      <point x="1474" y="1276" type="line"/>
      <point x="1565" y="81" type="line"/>
      <point x="1386" y="38" type="line"/>
      <point x="1386" y="0" type="line"/>
      <point x="2258" y="0" type="line"/>
      <point x="2258" y="38" type="line"/>
    </contour>
  </outline>
</glyph>
<glyph name="N" format="2">
	<unicode hex="004E"/>
	<advance width="1601"/>
	<outline>
		<contour>
			<point x="203" y="84" type="line"/>
			<point x="50" y="38" type="line"/>
			<point x="50" y="0" type="line"/>
			<point x="433" y="0" type="line"/>
			<point x="433" y="38" type="line"/>
			<point x="276" y="84" type="line"/>
			<point x="276" y="1329" type="line"/>
			<point x="254" y="1321" type="line"/>
			<point x="1115" y="0" type="line"/>
			<point x="1420" y="0" type="line"/>
			<point x="1420" y="1345" type="line"/>
			<point x="1573" y="1391" type="line"/>
			<point x="1573" y="1430" type="line"/>
			<point x="1174" y="1430" type="line"/>
			<point x="1174" y="1391" type="line"/>
			<point x="1331" y="1345" type="line"/>
			<point x="1331" y="402" type="line"/>
			<point x="1386" y="429" type="line"/>
			<point x="736" y="1430" type="line"/>
			<point x="5" y="1430" type="line"/>
			<point x="5" y="1400" type="line"/>
			<point x="203" y="1314" type="line"/>
		</contour>
	</outline>
	<anchor name="UCtop" x="842" y="1430"/>
	<anchor name="bottom" x="797" y="0"/>
</glyph>
<glyph name="O" format="2">
	<unicode hex="004F"/>
	<advance width="1683"/>
	<outline>
		<contour>
			<point x="872" y="1460" type="curve" smooth="yes"/>
			<point x="404" y="1460"/>
			<point x="62" y="1139"/>
			<point x="62" y="688" type="curve" smooth="yes"/>
			<point x="62" y="259"/>
			<point x="379" y="-30"/>
			<point x="811" y="-30" type="curve" smooth="yes"/>
			<point x="1279" y="-30"/>
			<point x="1621" y="291"/>
			<point x="1621" y="742" type="curve" smooth="yes"/>
			<point x="1621" y="1171"/>
			<point x="1304" y="1460"/>
		</contour>
		<contour>
			<point x="860" y="57" type="curve" smooth="yes"/>
			<point x="670" y="57"/>
			<point x="575" y="317"/>
			<point x="575" y="804" type="curve" smooth="yes"/>
			<point x="575" y="1247"/>
			<point x="686" y="1373"/>
			<point x="823" y="1373" type="curve" smooth="yes"/>
			<point x="1013" y="1373"/>
			<point x="1108" y="1113"/>
			<point x="1108" y="626" type="curve" smooth="yes"/>
			<point x="1108" y="183"/>
			<point x="997" y="57"/>
		</contour>
	</outline>
	<anchor name="UCtop" x="842" y="1430"/>
	<anchor name="bottom" x="842" y="0"/>
	<anchor name="right" x="1022" y="0"/>
	<anchor name="horn" x="1141" y="1430"/>
</glyph>
<glyph name="P" format="2">
  <advance width="1520"/>
  <unicode hex="0050"/>
  <anchor x="770.0" y="1430.0" name="UCtop"/>
  <anchor x="444.0" y="0" name="bottom"/>
  <outline>
    <contour>
      <point x="1015.0" y="1016.0" type="curve" smooth="yes"/>
      <point x="1015.0" y="813.0"/>
      <point x="900.0" y="703.0"/>
      <point x="722.0" y="703.0" type="curve" smooth="yes"/>
      <point x="440.0" y="703.0" type="line"/>
      <point x="462.0" y="603.0" type="line"/>
      <point x="953.0" y="603.0" type="line" smooth="yes"/>
      <point x="1335.0" y="603.0"/>
      <point x="1502.0" y="790.0"/>
      <point x="1502.0" y="1017.0" type="curve" smooth="yes"/>
      <point x="1502.0" y="1243.0"/>
      <point x="1345.0" y="1430.0"/>
      <point x="953.0" y="1430.0" type="curve" smooth="yes"/>
      <point x="462.0" y="1430.0" type="line"/>
      <point x="440.0" y="1330.0" type="line"/>
      <point x="704.0" y="1330.0" type="line" smooth="yes"/>
      <point x="922.0" y="1330.0"/>
      <point x="1015.0" y="1215.0"/>
    </contour>
    <contour>
      <point x="698.0" y="1430.0" type="line"/>
      <point x="47.0" y="1430.0" type="line"/>
      <point x="47.0" y="1391.0" type="line"/>
      <point x="190.0" y="1345.0" type="line"/>
      <point x="190.0" y="86.0" type="line"/>
      <point x="47.0" y="38.0" type="line"/>
      <point x="47.0" y="0.0" type="line"/>
      <point x="841.0" y="0.0" type="line"/>
      <point x="841.0" y="38.0" type="line"/>
      <point x="698.0" y="86.0" type="line"/>
    </contour>
  </outline>
</glyph>
<glyph name="Q" format="2">
	<unicode hex="0051"/>
	<advance width="1688"/>
	<outline>
		<contour>
			<point x="704" y="-244" type="line" smooth="yes"/>
			<point x="933" y="-451"/>
			<point x="1120" y="-473"/>
			<point x="1379" y="-473" type="curve" smooth="yes"/>
			<point x="1498" y="-473"/>
			<point x="1701" y="-423"/>
			<point x="1787" y="-400" type="curve"/>
			<point x="1787" y="-340" type="line"/>
			<point x="1641" y="-349"/>
			<point x="1557" y="-311"/>
			<point x="1358" y="-192" type="curve" smooth="yes"/>
			<point x="953" y="51" type="line"/>
			<point x="957" y="4" type="line"/>
			<point x="1367" y="50"/>
			<point x="1624" y="335"/>
			<point x="1624" y="717" type="curve" smooth="yes"/>
			<point x="1624" y="1173"/>
			<point x="1332" y="1460"/>
			<point x="875" y="1460" type="curve" smooth="yes"/>
			<point x="397" y="1460"/>
			<point x="65" y="1161"/>
			<point x="65" y="713" type="curve" smooth="yes"/>
			<point x="65" y="442"/>
			<point x="149" y="259"/>
			<point x="366" y="62" type="curve" smooth="yes"/>
		</contour>
		<contour>
			<point x="863" y="57" type="curve" smooth="yes"/>
			<point x="673" y="57"/>
			<point x="578" y="317"/>
			<point x="578" y="804" type="curve" smooth="yes"/>
			<point x="578" y="1247"/>
			<point x="689" y="1373"/>
			<point x="826" y="1373" type="curve" smooth="yes"/>
			<point x="1016" y="1373"/>
			<point x="1111" y="1113"/>
			<point x="1111" y="626" type="curve" smooth="yes"/>
			<point x="1111" y="183"/>
			<point x="1000" y="57"/>
		</contour>
	</outline>
	<anchor name="UCtop" x="845" y="1430"/>
	<anchor name="bottom" x="845" y="-435"/>
</glyph>
<glyph name="R" format="2">
	<unicode hex="0052"/>
	<advance width="1662"/>
	<outline>
		<contour>
			<point x="783" y="780" type="curve" smooth="yes"/>
			<point x="269" y="780" type="line"/>
			<point x="403" y="680" type="line"/>
			<point x="740" y="680" type="line" smooth="yes"/>
			<point x="814" y="680"/>
			<point x="866" y="671"/>
			<point x="900" y="546" type="curve" smooth="yes"/>
			<point x="996" y="190" type="line" smooth="yes"/>
			<point x="1046" y="6"/>
			<point x="1114" y="-43"/>
			<point x="1698" y="0" type="curve"/>
			<point x="1698" y="69" type="line"/>
			<point x="1581" y="68"/>
			<point x="1543" y="94"/>
			<point x="1511" y="211" type="curve" smooth="yes"/>
			<point x="1446" y="448" type="line" smooth="yes"/>
			<point x="1399" y="619"/>
			<point x="1281" y="734"/>
			<point x="1045" y="747" type="curve"/>
			<point x="1045" y="743" type="line"/>
			<point x="1356" y="750"/>
			<point x="1519" y="903"/>
			<point x="1519" y="1096" type="curve" smooth="yes"/>
			<point x="1519" y="1283"/>
			<point x="1385" y="1430"/>
			<point x="980" y="1430" type="curve" smooth="yes"/>
			<point x="423" y="1430" type="line"/>
			<point x="292" y="1330" type="line"/>
			<point x="815" y="1330" type="line" smooth="yes"/>
			<point x="958" y="1330"/>
			<point x="1032" y="1250"/>
			<point x="1032" y="1060" type="curve" smooth="yes"/>
			<point x="1032" y="876"/>
			<point x="952" y="780"/>
		</contour>
		<contour>
			<point x="702" y="1430" type="line"/>
			<point x="41" y="1430" type="line"/>
			<point x="41" y="1391" type="line"/>
			<point x="194" y="1337" type="line"/>
			<point x="194" y="94" type="line"/>
			<point x="41" y="38" type="line"/>
			<point x="41" y="0" type="line"/>
			<point x="855" y="0" type="line"/>
			<point x="855" y="38" type="line"/>
			<point x="702" y="94" type="line"/>
		</contour>
	</outline>
	<anchor name="UCtop" x="820" y="1430"/>
	<anchor name="bottom" x="870" y="0"/>
</glyph>
<glyph name="S" format="2">
	<unicode hex="0053"/>
	<advance width="1296"/>
	<outline>
		<contour>
			<point x="1058" y="1373" type="line"/>
			<point x="931" y="1433"/>
			<point x="828" y="1460"/>
			<point x="687" y="1460" type="curve" smooth="yes"/>
			<point x="324" y="1460"/>
			<point x="88" y="1284"/>
			<point x="88" y="1008" type="curve" smooth="yes"/>
			<point x="88" y="743"/>
			<point x="265" y="652"/>
			<point x="460" y="585" type="curve" smooth="yes"/>
			<point x="655" y="518"/>
			<point x="864" y="480"/>
			<point x="864" y="290" type="curve" smooth="yes"/>
			<point x="864" y="162"/>
			<point x="785" y="56"/>
			<point x="538" y="56" type="curve" smooth="yes"/>
			<point x="424" y="56"/>
			<point x="325" y="90"/>
			<point x="195" y="158" type="curve"/>
			<point x="403" y="24" type="line"/>
			<point x="101" y="462" type="line"/>
			<point x="65" y="462" type="line"/>
			<point x="141" y="30" type="line"/>
			<point x="285" y="-20"/>
			<point x="408" y="-30"/>
			<point x="557" y="-30" type="curve" smooth="yes"/>
			<point x="930" y="-30"/>
			<point x="1235" y="165"/>
			<point x="1235" y="499" type="curve" smooth="yes"/>
			<point x="1235" y="800"/>
			<point x="1012" y="894"/>
			<point x="815" y="958" type="curve" smooth="yes"/>
			<point x="618" y="1022"/>
			<point x="446" y="1062"/>
			<point x="446" y="1208" type="curve" smooth="yes"/>
			<point x="446" y="1304"/>
			<point x="497" y="1377"/>
			<point x="651" y="1377" type="curve" smooth="yes"/>
			<point x="759" y="1377"/>
			<point x="862" y="1343"/>
			<point x="996" y="1200" type="curve"/>
			<point x="876" y="1340" type="line"/>
			<point x="1135" y="983" type="line"/>
			<point x="1171" y="992" type="line"/>
			<point x="1078" y="1510" type="line"/>
			<point x="1056" y="1510" type="line"/>
			<point x="906" y="1387" type="line"/>
		</contour>
	</outline>
	<anchor name="UCtop" x="610" y="1430"/>
	<anchor name="bottom" x="650" y="0"/>
</glyph>
<glyph name="T" format="2">
	<unicode hex="0054"/>
	<advance width="1602"/>
	<outline>
		<contour>
			<point x="547" y="1390" type="line"/>
			<point x="547" y="94" type="line"/>
			<point x="394" y="38" type="line"/>
			<point x="394" y="0" type="line"/>
			<point x="1208" y="0" type="line"/>
			<point x="1208" y="38" type="line"/>
			<point x="1055" y="94" type="line"/>
			<point x="1055" y="1390" type="line"/>
		</contour>
		<contour>
			<point x="1418" y="1330" type="line"/>
			<point x="1283" y="1368" type="line"/>
			<point x="1540" y="911" type="line"/>
			<point x="1577" y="918" type="line"/>
			<point x="1509" y="1512" type="line"/>
			<point x="1489" y="1512" type="line"/>
			<point x="1246" y="1398" type="line"/>
			<point x="1394" y="1430" type="line"/>
			<point x="208" y="1430" type="line"/>
			<point x="356" y="1398" type="line"/>
			<point x="113" y="1512" type="line"/>
			<point x="93" y="1512" type="line"/>
			<point x="25" y="918" type="line"/>
			<point x="62" y="911" type="line"/>
			<point x="319" y="1368" type="line"/>
			<point x="184" y="1330" type="line"/>
		</contour>
	</outline>
	<anchor name="UCtop" x="801" y="1430"/>
	<anchor name="bottom" x="801" y="0"/>
</glyph>
<glyph name="U" format="2">
	<unicode hex="0055"/>
	<advance width="1671"/>
	<outline>
		<contour>
			<point x="1428" y="600" type="line" smooth="yes"/>
			<point x="1428" y="292"/>
			<point x="1282" y="198"/>
			<point x="1035" y="198" type="curve" smooth="yes"/>
			<point x="791" y="198"/>
			<point x="662" y="305"/>
			<point x="662" y="581" type="curve" smooth="yes"/>
			<point x="662" y="1345" type="line"/>
			<point x="805" y="1391" type="line"/>
			<point x="805" y="1430" type="line"/>
			<point x="11" y="1430" type="line"/>
			<point x="11" y="1391" type="line"/>
			<point x="154" y="1345" type="line"/>
			<point x="154" y="585" type="line" smooth="yes"/>
			<point x="154" y="167"/>
			<point x="394" y="-30"/>
			<point x="869" y="-30" type="curve" smooth="yes"/>
			<point x="1270" y="-30"/>
			<point x="1517" y="154"/>
			<point x="1517" y="585" type="curve" smooth="yes"/>
			<point x="1517" y="1345" type="line"/>
			<point x="1660" y="1391" type="line"/>
			<point x="1660" y="1430" type="line"/>
			<point x="1281" y="1430" type="line"/>
			<point x="1281" y="1391" type="line"/>
			<point x="1428" y="1345" type="line"/>
		</contour>
	</outline>
	<anchor name="UCtop" x="936" y="1430"/>
	<anchor name="right" x="1120" y="0"/>
	<anchor name="bottom" x="936" y="0"/>
	<anchor name="horn" x="1480" y="1428"/>
</glyph>
<glyph name="V" format="2">
	<unicode hex="0056"/>
	<advance width="1646"/>
	<outline>
		<contour>
			<point x="100" y="1338" type="line"/>
			<point x="728" y="0" type="line"/>
			<point x="1042" y="0" type="line"/>
			<point x="1511" y="1344" type="line"/>
			<point x="1664" y="1394" type="line"/>
			<point x="1664" y="1430" type="line"/>
			<point x="1249" y="1430" type="line"/>
			<point x="1249" y="1394" type="line"/>
			<point x="1410" y="1347" type="line"/>
			<point x="1045" y="252" type="line"/>
			<point x="1136" y="300" type="line"/>
			<point x="655" y="1340" type="line"/>
			<point x="821" y="1392" type="line"/>
			<point x="821" y="1430" type="line"/>
			<point x="-56" y="1430" type="line"/>
			<point x="-56" y="1392" type="line"/>
		</contour>
	</outline>
	<anchor name="UCtop" x="954" y="1430"/>
	<anchor name="bottom" x="881" y="0"/>
</glyph>
<glyph name="Z" format="2">
	<unicode hex="005A"/>
	<advance width="1506"/>
	<outline>
		<contour>
			<point x="1391" y="1430" type="line"/>
			<point x="299" y="1430" type="line"/>
			<point x="166" y="1512" type="line"/>
			<point x="145" y="1512" type="line"/>
			<point x="37" y="975" type="line"/>
			<point x="68" y="963" type="line"/>
			<point x="306" y="1330" type="line"/>
			<point x="1317" y="1330" type="line"/>
			<point x="879" y="1425" type="line"/>
			<point x="77" y="51" type="line"/>
			<point x="77" y="0" type="line"/>
			<point x="1201" y="0" type="line"/>
			<point x="1370" y="-82" type="line"/>
			<point x="1400" y="-82" type="line"/>
			<point x="1493" y="475" type="line"/>
			<point x="1462" y="488" type="line"/>
			<point x="1193" y="100" type="line"/>
			<point x="307" y="100" type="line"/>
			<point x="592" y="9" type="line"/>
			<point x="1391" y="1379" type="line"/>
		</contour>
	</outline>
	<anchor name="UCtop" x="815" y="1430"/>
	<anchor name="bottom" x="735" y="0"/>
</glyph>
<glyph name="bracketleft" format="2">
	<unicode hex="005B"/>
	<advance width="623"/>
	<outline>
		<contour>
			<point x="152" y="-208" type="line"/>
			<point x="617" y="-208" type="line"/>
			<point x="617" y="-168" type="line"/>
			<point x="390" y="-138" type="line"/>
			<point x="390" y="1394" type="line"/>
			<point x="617" y="1424" type="line"/>
			<point x="617" y="1464" type="line"/>
			<point x="152" y="1464" type="line"/>
		</contour>
	</outline>
</glyph>
<glyph name="backslash" format="2">
	<unicode hex="005C"/>
	<advance width="777"/>
	<outline>
		<contour>
			<point x="733" y="0" type="line"/>
			<point x="136" y="1430" type="line"/>
			<point x="41" y="1430" type="line"/>
			<point x="638" y="0" type="line"/>
		</contour>
	</outline>
</glyph>
<glyph name="bracketright" format="2">
	<unicode hex="005D"/>
	<advance width="623"/>
	<outline>
		<contour>
			<point x="471" y="1464" type="line"/>
			<point x="6" y="1464" type="line"/>
			<point x="6" y="1424" type="line"/>
			<point x="233" y="1394" type="line"/>
			<point x="233" y="-138" type="line"/>
			<point x="6" y="-168" type="line"/>
			<point x="6" y="-208" type="line"/>
			<point x="471" y="-208" type="line"/>
		</contour>
	</outline>
</glyph>
<glyph name="asciicircum" format="2">
	<unicode hex="005E"/>
	<advance width="1150"/>
	<outline>
		<contour>
			<point x="569" y="1327" type="line"/>
			<point x="881" y="662" type="line"/>
			<point x="984" y="662" type="line"/>
			<point x="622" y="1430" type="line"/>
			<point x="526" y="1430" type="line"/>
			<point x="166" y="662" type="line"/>
			<point x="269" y="662" type="line"/>
			<point x="578" y="1327" type="line"/>
		</contour>
	</outline>
</glyph>
<glyph name="a" format="2">
	<unicode hex="0061"/>
	<advance width="1186"/>
	<outline>
		<contour>
			<point x="648" y="639" type="line"/>
			<point x="117" y="487"/>
			<point x="43" y="403"/>
			<point x="43" y="242" type="curve" smooth="yes"/>
			<point x="43" y="82"/>
			<point x="140" y="-27"/>
			<point x="349" y="-27" type="curve" smooth="yes"/>
			<point x="491" y="-27"/>
			<point x="590" y="53"/>
			<point x="634" y="255" type="curve"/>
			<point x="615" y="270" type="line"/>
			<point x="620" y="54"/>
			<point x="687" y="-30"/>
			<point x="861" y="-30" type="curve" smooth="yes"/>
			<point x="995" y="-30"/>
			<point x="1082" y="6"/>
			<point x="1188" y="91" type="curve"/>
			<point x="1188" y="153" type="line"/>
			<point x="1161" y="143"/>
			<point x="1135" y="138"/>
			<point x="1109" y="138" type="curve" smooth="yes"/>
			<point x="1070" y="138"/>
			<point x="1050" y="157"/>
			<point x="1050" y="200" type="curve" smooth="yes"/>
			<point x="1050" y="708" type="line" smooth="yes"/>
			<point x="1050" y="922"/>
			<point x="942" y="1054"/>
			<point x="648" y="1054" type="curve" smooth="yes"/>
			<point x="340" y="1054"/>
			<point x="54" y="886"/>
			<point x="54" y="762" type="curve" smooth="yes"/>
			<point x="54" y="722"/>
			<point x="87" y="694"/>
			<point x="168" y="694" type="curve" smooth="yes"/>
			<point x="229" y="694"/>
			<point x="279" y="719"/>
			<point x="303" y="753" type="curve" smooth="yes"/>
			<point x="327" y="787"/>
			<point x="339" y="831"/>
			<point x="360" y="1004" type="curve"/>
			<point x="324" y="934" type="line"/>
			<point x="356" y="939"/>
			<point x="396" y="942"/>
			<point x="453" y="942" type="curve" smooth="yes"/>
			<point x="561" y="942"/>
			<point x="612" y="882"/>
			<point x="612" y="792" type="curve" smooth="yes"/>
			<point x="612" y="309" type="line" smooth="yes"/>
			<point x="612" y="229"/>
			<point x="586" y="205"/>
			<point x="545" y="205" type="curve" smooth="yes"/>
			<point x="489" y="205"/>
			<point x="458" y="243"/>
			<point x="458" y="349" type="curve" smooth="yes"/>
			<point x="458" y="464"/>
			<point x="485" y="519"/>
			<point x="639" y="583" type="curve"/>
		</contour>
	</outline>
	<anchor name="top" x="575" y="1024"/>
	<anchor name="right" x="1188" y="0"/>
	<anchor name="bottom" x="593" y="0"/>
</glyph>
<glyph name="b" format="2">
	<unicode hex="0062"/>
	<advance width="1297"/>
	<outline>
		<contour>
			<point x="203" y="71" type="line"/>
			<point x="348" y="-2"/>
			<point x="476" y="-30"/>
			<point x="630" y="-30" type="curve" smooth="yes"/>
			<point x="985" y="-30"/>
			<point x="1247" y="180"/>
			<point x="1247" y="587" type="curve" smooth="yes"/>
			<point x="1247" y="905"/>
			<point x="1106" y="1054"/>
			<point x="866" y="1054" type="curve" smooth="yes"/>
			<point x="749" y="1054"/>
			<point x="680" y="1027"/>
			<point x="501" y="836" type="curve"/>
			<point x="501" y="799" type="line"/>
			<point x="553" y="832"/>
			<point x="591" y="843"/>
			<point x="633" y="843" type="curve" smooth="yes"/>
			<point x="751" y="843"/>
			<point x="797" y="765"/>
			<point x="797" y="491" type="curve" smooth="yes"/>
			<point x="797" y="136"/>
			<point x="741" y="43"/>
			<point x="653" y="43" type="curve" smooth="yes"/>
			<point x="584" y="43"/>
			<point x="554" y="93"/>
			<point x="554" y="186" type="curve" smooth="yes"/>
			<point x="554" y="1276" type="line"/>
			<point x="554" y="1494" type="line"/>
			<point x="527" y="1494" type="line"/>
			<point x="-46" y="1367" type="line"/>
			<point x="-46" y="1334" type="line"/>
			<point x="32" y="1254.5555555556"/>
			<point x="90" y="1195.4814814815"/>
			<point x="116" y="1169" type="curve"/>
			<point x="116" y="217" type="line"/>
			<point x="60" y="-29" type="line"/>
			<point x="77" y="-40" type="line"/>
			<point x="330" y="71" type="line"/>
		</contour>
	</outline>
	<anchor name="UCtop" x="630" y="1535"/>
	<anchor name="bottom" x="640" y="0"/>
</glyph>
<glyph name="c" format="2">
	<unicode hex="0063"/>
	<advance width="1067"/>
	<outline>
		<contour>
			<point x="649" y="1054" type="curve" smooth="yes"/>
			<point x="317" y="1054"/>
			<point x="45" y="813"/>
			<point x="45" y="492" type="curve" smooth="yes"/>
			<point x="45" y="168"/>
			<point x="248" y="-30"/>
			<point x="566" y="-30" type="curve" smooth="yes"/>
			<point x="763" y="-30"/>
			<point x="899" y="58"/>
			<point x="1046" y="333" type="curve"/>
			<point x="1017" y="359" type="line"/>
			<point x="915" y="267"/>
			<point x="850" y="245"/>
			<point x="736" y="245" type="curve" smooth="yes"/>
			<point x="553" y="245"/>
			<point x="449" y="362"/>
			<point x="449" y="696" type="curve" smooth="yes"/>
			<point x="449" y="921"/>
			<point x="497" y="980"/>
			<point x="570" y="980" type="curve" smooth="yes"/>
			<point x="694" y="980"/>
			<point x="854" y="715"/>
			<point x="894" y="715" type="curve" smooth="yes"/>
			<point x="962" y="715"/>
			<point x="1036" y="771"/>
			<point x="1036" y="853" type="curve" smooth="yes"/>
			<point x="1036" y="944"/>
			<point x="940" y="1054"/>
		</contour>
	</outline>
	<anchor name="top" x="568" y="1024"/>
	<anchor name="right" x="1026" y="0"/>
	<anchor name="bottom" x="585" y="0"/>
</glyph>
<glyph name="d" format="2">
	<unicode hex="0064"/>
	<advance width="1321"/>
	<outline>
		<contour>
			<point x="741" y="838" type="curve" smooth="yes"/>
			<point x="741" y="151" type="line"/>
			<point x="770" y="-43" type="line"/>
			<point x="799" y="-43" type="line"/>
			<point x="1318" y="59" type="line"/>
			<point x="1318" y="90" type="line"/>
			<point x="1276" y="118.4028776978"/>
			<point x="1203" y="167.7697841727"/>
			<point x="1179" y="184" type="curve"/>
			<point x="1179" y="1276" type="line"/>
			<point x="1179" y="1494" type="line"/>
			<point x="1152" y="1494" type="line"/>
			<point x="579" y="1367" type="line"/>
			<point x="579" y="1334" type="line"/>
			<point x="636" y="1275.9444444444"/>
			<point x="717" y="1193.4444444444"/>
			<point x="741" y="1169" type="curve"/>
			<point x="741" y="976" type="line"/>
			<point x="1041" y="976" type="line"/>
			<point x="922" y="1031"/>
			<point x="797" y="1054"/>
			<point x="665" y="1054" type="curve" smooth="yes"/>
			<point x="312" y="1054"/>
			<point x="48" y="845"/>
			<point x="48" y="463" type="curve" smooth="yes"/>
			<point x="48" y="167"/>
			<point x="211" y="-30"/>
			<point x="469" y="-30" type="curve" smooth="yes"/>
			<point x="590" y="-30"/>
			<point x="648" y="0"/>
			<point x="793" y="192" type="curve"/>
			<point x="793" y="226" type="line"/>
			<point x="765" y="197"/>
			<point x="721" y="181"/>
			<point x="672" y="181" type="curve" smooth="yes"/>
			<point x="550" y="181"/>
			<point x="498" y="265"/>
			<point x="498" y="564" type="curve" smooth="yes"/>
			<point x="498" y="890"/>
			<point x="555" y="981"/>
			<point x="642" y="981" type="curve" smooth="yes"/>
			<point x="711" y="981"/>
			<point x="741" y="931"/>
		</contour>
	</outline>
	<anchor name="center" x="914" y="1145"/>
	<anchor name="UCtop" x="644" y="1430"/>
	<anchor name="right" x="1179" y="1464"/>
	<anchor name="bottom" x="663" y="0"/>
</glyph>
<glyph name="e" format="2">
	<unicode hex="0065"/>
	<advance width="1087"/>
	<outline>
		<contour>
			<point x="600" y="1054" type="curve" smooth="yes"/>
			<point x="233" y="1054"/>
			<point x="47" y="790"/>
			<point x="47" y="490" type="curve" smooth="yes"/>
			<point x="47" y="167"/>
			<point x="250" y="-30"/>
			<point x="568" y="-30" type="curve" smooth="yes"/>
			<point x="767" y="-30"/>
			<point x="908" y="63"/>
			<point x="1058" y="343" type="curve"/>
			<point x="1029" y="369" type="line"/>
			<point x="926" y="272"/>
			<point x="855" y="245"/>
			<point x="748" y="245" type="curve" smooth="yes"/>
			<point x="549" y="245"/>
			<point x="451" y="357"/>
			<point x="451" y="652" type="curve" smooth="yes"/>
			<point x="451" y="923"/>
			<point x="489" y="974"/>
			<point x="564" y="974" type="curve" smooth="yes"/>
			<point x="631" y="974"/>
			<point x="660" y="910"/>
			<point x="668" y="649" type="curve"/>
			<point x="870" y="704" type="line"/>
			<point x="358" y="704" type="line"/>
			<point x="358" y="613" type="line"/>
			<point x="1044" y="613" type="line"/>
			<point x="1023" y="887"/>
			<point x="878" y="1054"/>
		</contour>
	</outline>
	<anchor name="top" x="553" y="1024"/>
	<anchor name="right" x="1058" y="0"/>
	<anchor name="bottom" x="583" y="0"/>
</glyph>
<glyph name="f" format="2">
	<unicode hex="0066"/>
	<advance width="925"/>
	<outline>
		<contour>
			<point x="224" y="843" type="line"/>
			<point x="916" y="843" type="line"/>
			<point x="939" y="1024" type="line"/>
			<point x="407" y="1024" type="line"/>
			<point x="207" y="1056" type="line"/>
			<point x="11" y="961" type="line"/>
			<point x="11" y="931" type="line"/>
			<point x="192" y="809" type="line"/>
		</contour>
		<contour>
			<point x="614" y="68" type="line"/>
			<point x="614" y="1295" type="line" smooth="yes"/>
			<point x="614" y="1370"/>
			<point x="643" y="1404"/>
			<point x="699" y="1404" type="curve" smooth="yes"/>
			<point x="828" y="1404"/>
			<point x="957" y="1198"/>
			<point x="992" y="1198" type="curve" smooth="yes"/>
			<point x="1057" y="1198"/>
			<point x="1126" y="1259"/>
			<point x="1126" y="1333" type="curve" smooth="yes"/>
			<point x="1126" y="1429"/>
			<point x="1034" y="1494"/>
			<point x="791" y="1494" type="curve" smooth="yes"/>
			<point x="400" y="1494"/>
			<point x="176" y="1282"/>
			<point x="176" y="949" type="curve" smooth="yes"/>
			<point x="176" y="68" type="line"/>
			<point x="90" y="33" type="line"/>
			<point x="90" y="0" type="line"/>
			<point x="720" y="0" type="line"/>
			<point x="720" y="33" type="line"/>
		</contour>
	</outline>
	<anchor name="UCtop" x="640" y="1430"/>
	<anchor name="bottom" x="395" y="0"/>
</glyph>
<glyph name="g" format="2">
	<unicode hex="0067"/>
	<advance width="1170"/>
	<outline>
		<contour>
			<point x="484" y="-465" type="curve" smooth="yes"/>
			<point x="943" y="-465"/>
			<point x="1140" y="-295"/>
			<point x="1140" y="-99" type="curve" smooth="yes"/>
			<point x="1140" y="85"/>
			<point x="1025" y="193"/>
			<point x="690" y="219" type="curve" smooth="yes"/>
			<point x="355" y="245"/>
			<point x="308" y="256"/>
			<point x="308" y="310" type="curve" smooth="yes"/>
			<point x="308" y="344"/>
			<point x="342" y="359"/>
			<point x="428" y="366" type="curve"/>
			<point x="417" y="394" type="line"/>
			<point x="174" y="377"/>
			<point x="56" y="265"/>
			<point x="56" y="138" type="curve" smooth="yes"/>
			<point x="56" y="-32"/>
			<point x="178" y="-123"/>
			<point x="455" y="-143" type="curve" smooth="yes"/>
			<point x="733" y="-163"/>
			<point x="882" y="-170"/>
			<point x="882" y="-256" type="curve" smooth="yes"/>
			<point x="882" y="-329"/>
			<point x="801" y="-386"/>
			<point x="613" y="-386" type="curve" smooth="yes"/>
			<point x="419" y="-386"/>
			<point x="292" y="-330"/>
			<point x="292" y="-242" type="curve" smooth="yes"/>
			<point x="292" y="-168"/>
			<point x="358" y="-134"/>
			<point x="589" y="-114" type="curve"/>
			<point x="590" y="-106" type="line"/>
			<point x="472" y="-107" type="line"/>
			<point x="138" y="-146"/>
			<point x="14" y="-192"/>
			<point x="14" y="-286" type="curve" smooth="yes"/>
			<point x="14" y="-392"/>
			<point x="122" y="-465"/>
		</contour>
		<contour>
			<point x="530" y="354" type="curve" smooth="yes"/>
			<point x="802" y="354"/>
			<point x="986" y="495"/>
			<point x="986" y="705" type="curve" smooth="yes"/>
			<point x="986" y="923"/>
			<point x="812" y="1054"/>
			<point x="522" y="1054" type="curve" smooth="yes"/>
			<point x="250" y="1054"/>
			<point x="66" y="913"/>
			<point x="66" y="703" type="curve" smooth="yes"/>
			<point x="66" y="485"/>
			<point x="240" y="354"/>
		</contour>
		<contour>
			<point x="537" y="428" type="curve" smooth="yes"/>
			<point x="480" y="428"/>
			<point x="454" y="544"/>
			<point x="454" y="791" type="curve" smooth="yes"/>
			<point x="454" y="930"/>
			<point x="470" y="980"/>
			<point x="515" y="980" type="curve" smooth="yes"/>
			<point x="572" y="980"/>
			<point x="598" y="864"/>
			<point x="598" y="617" type="curve" smooth="yes"/>
			<point x="598" y="478"/>
			<point x="582" y="428"/>
		</contour>
		<contour>
			<point x="678" y="1009" type="line"/>
			<point x="935" y="1009"/>
			<point x="1012" y="844"/>
			<point x="1107" y="844" type="curve" smooth="yes"/>
			<point x="1173" y="844"/>
			<point x="1222" y="926"/>
			<point x="1222" y="1011" type="curve" smooth="yes"/>
			<point x="1222" y="1067"/>
			<point x="1194" y="1085"/>
			<point x="1159" y="1085" type="curve" smooth="yes"/>
			<point x="1096" y="1085"/>
			<point x="1037" y="1028"/>
			<point x="613" y="1048" type="curve"/>
		</contour>
	</outline>
	<anchor name="top" x="531" y="1024"/>
	<anchor name="bottom" x="559" y="-435"/>
</glyph>
<glyph name="i" format="2">
  <advance width="695"/>
  <unicode hex="0069"/>
  <anchor x="342.0" y="1430" name="top"/>
  <anchor x="361.0" y="0" name="bottom"/>
  <anchor x="525.0" y="0" name="right"/>
  <outline>
    <contour>
      <point x="352.0" y="1122.0" type="curve" smooth="yes"/>
      <point x="474.0" y="1122.0"/>
      <point x="547.0" y="1209.0"/>
      <point x="547.0" y="1312.0" type="curve" smooth="yes"/>
      <point x="547.0" y="1411.0"/>
      <point x="474.0" y="1490.0"/>
      <point x="352.0" y="1490.0" type="curve" smooth="yes"/>
      <point x="231.0" y="1490.0"/>
      <point x="155.0" y="1411.0"/>
      <point x="155.0" y="1312.0" type="curve" smooth="yes"/>
      <point x="155.0" y="1209.0"/>
      <point x="231.0" y="1122.0"/>
    </contour>
    <contour>
      <point x="580.0" y="1054.0" type="line"/>
      <point x="553.0" y="1054.0" type="line"/>
      <point x="30.0" y="916.0" type="line"/>
      <point x="30.0" y="883.0" type="line"/>
      <point x="91.0" y="804.0267857142858"/>
      <point x="120.0" y="766.4821428571429"/>
      <point x="142.0" y="738.0" type="curve"/>
      <point x="142.0" y="68.0" type="line"/>
      <point x="56.0" y="33.0" type="line"/>
      <point x="56.0" y="0.0" type="line"/>
      <point x="655.0" y="0.0" type="line"/>
      <point x="655.0" y="33.0" type="line"/>
      <point x="580.0" y="65.0" type="line"/>
      <point x="580.0" y="836.0" type="line"/>
    </contour>
  </outline>
</glyph>
<glyph name="j" format="2">
	<unicode hex="006A"/>
	<advance width="678"/>
	<outline>
		<contour>
			<point x="345" y="1122" type="curve" smooth="yes"/>
			<point x="467" y="1122"/>
			<point x="540" y="1209"/>
			<point x="540" y="1312" type="curve" smooth="yes"/>
			<point x="540" y="1411"/>
			<point x="467" y="1490"/>
			<point x="345" y="1490" type="curve" smooth="yes"/>
			<point x="224" y="1490"/>
			<point x="148" y="1411"/>
			<point x="148" y="1312" type="curve" smooth="yes"/>
			<point x="148" y="1209"/>
			<point x="224" y="1122"/>
		</contour>
		<contour>
			<point x="135" y="738" type="curve"/>
			<point x="135" y="-105" type="line" smooth="yes"/>
			<point x="135" y="-236"/>
			<point x="123" y="-280"/>
			<point x="12" y="-430" type="curve"/>
			<point x="31" y="-455" type="line"/>
			<point x="520" y="-143"/>
			<point x="573" y="-76"/>
			<point x="573" y="153" type="curve" smooth="yes"/>
			<point x="573" y="836" type="line"/>
			<point x="573" y="1054" type="line"/>
			<point x="546" y="1054" type="line"/>
			<point x="23" y="916" type="line"/>
			<point x="23" y="883" type="line"/>
			<point x="84" y="804.0267857143"/>
			<point x="113" y="766.4821428571"/>
		</contour>
	</outline>
	<anchor name="top" x="354" y="1430"/>
	<anchor name="bottom" x="354" y="-435"/>
</glyph>
<glyph name="k" format="2">
	<unicode hex="006B"/>
	<advance width="1332"/>
	<outline>
		<contour>
			<point x="680" y="640" type="line"/>
			<point x="1134" y="950" type="line"/>
			<point x="1312" y="991" type="line"/>
			<point x="1312" y="1024" type="line"/>
			<point x="850" y="1024" type="line"/>
			<point x="850" y="991" type="line"/>
			<point x="1013" y="951" type="line"/>
			<point x="585" y="608" type="line"/>
			<point x="457" y="608" type="line"/>
			<point x="457" y="535" type="line"/>
			<point x="584" y="535" type="line"/>
			<point x="804" y="61" type="line"/>
			<point x="739" y="33" type="line"/>
			<point x="739" y="0" type="line"/>
			<point x="1368" y="0" type="line"/>
			<point x="1368" y="33" type="line"/>
			<point x="1290" y="69" type="line"/>
			<point x="881" y="824" type="line"/>
		</contour>
		<contour>
			<point x="562" y="68" type="line"/>
			<point x="562" y="1276" type="line"/>
			<point x="562" y="1494" type="line"/>
			<point x="535" y="1494" type="line"/>
			<point x="-38" y="1367" type="line"/>
			<point x="-38" y="1334" type="line"/>
			<point x="40" y="1254.5555555556"/>
			<point x="98" y="1195.4814814815"/>
			<point x="124" y="1169" type="curve"/>
			<point x="124" y="68" type="line"/>
			<point x="38" y="33" type="line"/>
			<point x="38" y="0" type="line"/>
			<point x="638" y="0" type="line"/>
			<point x="638" y="33" type="line"/>
		</contour>
	</outline>
	<anchor name="UCtop" x="688" y="1430"/>
	<anchor name="bottom" x="685" y="0"/>
</glyph>
<glyph name="l" format="2">
	<unicode hex="006C"/>
	<advance width="686"/>
	<outline>
		<contour>
			<point x="562" y="68" type="line"/>
			<point x="562" y="1276" type="line"/>
			<point x="562" y="1494" type="line"/>
			<point x="535" y="1494" type="line"/>
			<point x="-38" y="1367" type="line"/>
			<point x="-38" y="1334" type="line"/>
			<point x="40" y="1254.5555555556"/>
			<point x="98" y="1195.4814814815"/>
			<point x="124" y="1169" type="curve"/>
			<point x="124" y="68" type="line"/>
			<point x="38" y="33" type="line"/>
			<point x="38" y="0" type="line"/>
			<point x="648" y="0" type="line"/>
			<point x="648" y="33" type="line"/>
		</contour>
	</outline>
	<anchor name="UCtop" x="334" y="1430"/>
	<anchor name="right" x="562" y="1464"/>
	<anchor name="bottom" x="343" y="0"/>
	<anchor name="mid" x="818" y="582"/>
</glyph>
<glyph name="m" format="2">
	<unicode hex="006D"/>
	<advance width="1966"/>
	<outline>
		<contour>
			<point x="579" y="797" type="line"/>
			<point x="579" y="1054" type="line"/>
			<point x="552" y="1054" type="line"/>
			<point x="29" y="916" type="line"/>
			<point x="29" y="883" type="line"/>
			<point x="71" y="830"/>
			<point x="118" y="769"/>
			<point x="141" y="738" type="curve"/>
			<point x="141" y="68" type="line"/>
			<point x="55" y="33" type="line"/>
			<point x="55" y="0" type="line"/>
			<point x="644" y="0" type="line"/>
			<point x="644" y="33" type="line"/>
			<point x="579" y="65" type="line"/>
		</contour>
		<contour>
			<point x="1215" y="768" type="line" smooth="yes"/>
			<point x="1215" y="941"/>
			<point x="1116" y="1044"/>
			<point x="944" y="1044" type="curve" smooth="yes"/>
			<point x="798" y="1044"/>
			<point x="736" y="1021"/>
			<point x="535" y="763" type="curve"/>
			<point x="535" y="744" type="line"/>
			<point x="596" y="773"/>
			<point x="636" y="781"/>
			<point x="675" y="781" type="curve" smooth="yes"/>
			<point x="744" y="781"/>
			<point x="777" y="757"/>
			<point x="777" y="671" type="curve" smooth="yes"/>
			<point x="777" y="65" type="line"/>
			<point x="712" y="33" type="line"/>
			<point x="712" y="0" type="line"/>
			<point x="1280" y="0" type="line"/>
			<point x="1280" y="33" type="line"/>
			<point x="1215" y="65" type="line"/>
		</contour>
		<contour>
			<point x="1851" y="768" type="line" smooth="yes"/>
			<point x="1851" y="941"/>
			<point x="1752" y="1044"/>
			<point x="1580" y="1044" type="curve" smooth="yes"/>
			<point x="1434" y="1044"/>
			<point x="1372" y="1021"/>
			<point x="1171" y="763" type="curve"/>
			<point x="1171" y="744" type="line"/>
			<point x="1232" y="773"/>
			<point x="1272" y="781"/>
			<point x="1311" y="781" type="curve" smooth="yes"/>
			<point x="1380" y="781"/>
			<point x="1413" y="757"/>
			<point x="1413" y="671" type="curve" smooth="yes"/>
			<point x="1413" y="65" type="line"/>
			<point x="1348" y="33" type="line"/>
			<point x="1348" y="0" type="line"/>
			<point x="1936" y="0" type="line"/>
			<point x="1936" y="33" type="line"/>
			<point x="1851" y="68" type="line"/>
		</contour>
	</outline>
	<anchor name="top" x="983" y="1024"/>
	<anchor name="bottom" x="983" y="0"/>
</glyph>
<glyph name="n" format="2">
	<unicode hex="006E"/>
	<advance width="1357"/>
	<outline>
		<contour>
			<point x="579" y="787" type="line"/>
			<point x="579" y="1054" type="line"/>
			<point x="552" y="1054" type="line"/>
			<point x="29" y="916" type="line"/>
			<point x="29" y="883" type="line"/>
			<point x="71" y="830"/>
			<point x="118" y="769"/>
			<point x="141" y="738" type="curve"/>
			<point x="141" y="68" type="line"/>
			<point x="55" y="33" type="line"/>
			<point x="55" y="0" type="line"/>
			<point x="654" y="0" type="line"/>
			<point x="654" y="33" type="line"/>
			<point x="579" y="65" type="line"/>
		</contour>
		<contour>
			<point x="729" y="33" type="line"/>
			<point x="729" y="0" type="line"/>
			<point x="1327" y="0" type="line"/>
			<point x="1327" y="33" type="line"/>
			<point x="1242" y="68" type="line"/>
			<point x="1242" y="757" type="line" smooth="yes"/>
			<point x="1242" y="937"/>
			<point x="1139" y="1044"/>
			<point x="960" y="1044" type="curve" smooth="yes"/>
			<point x="800" y="1044"/>
			<point x="739" y="1017"/>
			<point x="535" y="756" type="curve"/>
			<point x="535" y="739" type="line"/>
			<point x="603" y="771"/>
			<point x="646" y="781"/>
			<point x="690" y="781" type="curve" smooth="yes"/>
			<point x="767" y="781"/>
			<point x="804" y="753"/>
			<point x="804" y="658" type="curve" smooth="yes"/>
			<point x="804" y="65" type="line"/>
		</contour>
	</outline>
	<anchor name="top" x="696" y="1024"/>
	<anchor name="bottom" x="696" y="0"/>
</glyph>
<glyph name="o" format="2">
	<unicode hex="006F"/>
	<advance width="1215"/>
	<outline>
		<contour>
			<point x="610" y="49" type="curve" smooth="yes"/>
			<point x="508" y="49"/>
			<point x="496" y="217"/>
			<point x="496" y="553" type="curve" smooth="yes"/>
			<point x="496" y="861"/>
			<point x="514" y="974"/>
			<point x="604" y="974" type="curve" smooth="yes"/>
			<point x="706" y="974"/>
			<point x="718" y="807"/>
			<point x="718" y="471" type="curve" smooth="yes"/>
			<point x="718" y="162"/>
			<point x="700" y="49"/>
		</contour>
		<contour>
			<point x="592" y="-30" type="curve" smooth="yes"/>
			<point x="923" y="-30"/>
			<point x="1169" y="192"/>
			<point x="1169" y="518" type="curve" smooth="yes"/>
			<point x="1169" y="836"/>
			<point x="960" y="1054"/>
			<point x="622" y="1054" type="curve" smooth="yes"/>
			<point x="287" y="1054"/>
			<point x="46" y="831"/>
			<point x="46" y="506" type="curve" smooth="yes"/>
			<point x="46" y="188"/>
			<point x="260" y="-30"/>
		</contour>
	</outline>
	<anchor name="top" x="608" y="1024"/>
	<anchor name="bottom" x="608" y="0"/>
	<anchor name="horn" x="809" y="1024"/>
	<anchor name="right" x="799" y="0"/>
</glyph>
<glyph name="p" format="2">
	<unicode hex="0070"/>
	<advance width="1315"/>
	<outline>
		<contour>
			<point x="814" y="491" type="curve" smooth="yes"/>
			<point x="814" y="140"/>
			<point x="760" y="43"/>
			<point x="670" y="43" type="curve" smooth="yes"/>
			<point x="601" y="43"/>
			<point x="571" y="93"/>
			<point x="571" y="186" type="curve" smooth="yes"/>
			<point x="571" y="837" type="line"/>
			<point x="571" y="1054" type="line"/>
			<point x="544" y="1054" type="line"/>
			<point x="21" y="916" type="line"/>
			<point x="21" y="883" type="line"/>
			<point x="95" y="787.8571428571"/>
			<point x="107" y="772.4285714286"/>
			<point x="133" y="739" type="curve"/>
			<point x="133" y="-367" type="line"/>
			<point x="47" y="-402" type="line"/>
			<point x="47" y="-435" type="line"/>
			<point x="677" y="-435" type="line"/>
			<point x="677" y="-402" type="line"/>
			<point x="571" y="-367" type="line"/>
			<point x="571" y="47" type="line"/>
			<point x="335" y="47" type="line"/>
			<point x="446" y="-8"/>
			<point x="563" y="-30"/>
			<point x="686" y="-30" type="curve" smooth="yes"/>
			<point x="1015" y="-30"/>
			<point x="1264" y="183"/>
			<point x="1264" y="587" type="curve" smooth="yes"/>
			<point x="1264" y="894"/>
			<point x="1141" y="1054"/>
			<point x="901" y="1054" type="curve" smooth="yes"/>
			<point x="773" y="1054"/>
			<point x="705" y="1026"/>
			<point x="518" y="836" type="curve"/>
			<point x="518" y="799" type="line"/>
			<point x="550" y="821"/>
			<point x="593" y="843"/>
			<point x="650" y="843" type="curve" smooth="yes"/>
			<point x="775" y="843"/>
			<point x="814" y="757"/>
		</contour>
	</outline>
	<anchor name="top" x="623" y="1024"/>
	<anchor name="bottom" x="352" y="-435"/>
</glyph>
<glyph name="q" format="2">
	<unicode hex="0071"/>
	<advance width="1293"/>
	<outline>
		<contour>
			<point x="498" y="564" type="curve" smooth="yes"/>
			<point x="498" y="886"/>
			<point x="554" y="981"/>
			<point x="642" y="981" type="curve" smooth="yes"/>
			<point x="711" y="981"/>
			<point x="741" y="931"/>
			<point x="741" y="838" type="curve" smooth="yes"/>
			<point x="741" y="-367" type="line"/>
			<point x="635" y="-402" type="line"/>
			<point x="635" y="-435" type="line"/>
			<point x="1266" y="-435" type="line"/>
			<point x="1266" y="-402" type="line"/>
			<point x="1180" y="-367" type="line"/>
			<point x="1180" y="829" type="line"/>
			<point x="1235" y="1038" type="line"/>
			<point x="1217" y="1056" type="line"/>
			<point x="951" y="990" type="line"/>
			<point x="1041" y="976" type="line"/>
			<point x="922" y="1031"/>
			<point x="797" y="1054"/>
			<point x="665" y="1054" type="curve" smooth="yes"/>
			<point x="310" y="1054"/>
			<point x="48" y="844"/>
			<point x="48" y="463" type="curve" smooth="yes"/>
			<point x="48" y="167"/>
			<point x="211" y="-30"/>
			<point x="469" y="-30" type="curve" smooth="yes"/>
			<point x="586" y="-30"/>
			<point x="647" y="-5"/>
			<point x="793" y="192" type="curve"/>
			<point x="793" y="226" type="line"/>
			<point x="758" y="188"/>
			<point x="703" y="181"/>
			<point x="672" y="181" type="curve" smooth="yes"/>
			<point x="541" y="181"/>
			<point x="498" y="285"/>
		</contour>
	</outline>
	<anchor name="top" x="647" y="1024"/>
	<anchor name="bottom" x="961" y="-435"/>
</glyph>
<glyph name="r" format="2">
	<unicode hex="0072"/>
	<advance width="1079"/>
	<outline>
		<contour>
			<point x="946" y="1047" type="curve" smooth="yes"/>
			<point x="838" y="1047"/>
			<point x="770" y="1008"/>
			<point x="531" y="729" type="curve"/>
			<point x="532" y="681" type="line"/>
			<point x="570" y="723"/>
			<point x="603" y="734"/>
			<point x="663" y="734" type="curve" smooth="yes"/>
			<point x="748" y="734"/>
			<point x="785" y="700"/>
			<point x="894" y="700" type="curve" smooth="yes"/>
			<point x="996" y="700"/>
			<point x="1081" y="794"/>
			<point x="1081" y="903" type="curve" smooth="yes"/>
			<point x="1081" y="988"/>
			<point x="1030" y="1047"/>
		</contour>
		<contour>
			<point x="579" y="837" type="line"/>
			<point x="579" y="1054" type="line"/>
			<point x="552" y="1054" type="line"/>
			<point x="29" y="916" type="line"/>
			<point x="29" y="883" type="line"/>
			<point x="103" y="787.1964285714"/>
			<point x="115" y="771.6607142857"/>
			<point x="141" y="738" type="curve"/>
			<point x="141" y="68" type="line"/>
			<point x="55" y="33" type="line"/>
			<point x="55" y="0" type="line"/>
			<point x="685" y="0" type="line"/>
			<point x="685" y="33" type="line"/>
			<point x="579" y="68" type="line"/>
		</contour>
	</outline>
	<anchor name="top" x="555" y="1024"/>
	<anchor name="bottom" x="360" y="0"/>
</glyph>
<glyph name="s" format="2">
	<unicode hex="0073"/>
	<advance width="964"/>
	<outline>
		<contour>
			<point x="516" y="1054" type="curve" smooth="yes"/>
			<point x="245" y="1054"/>
			<point x="62" y="902"/>
			<point x="62" y="680" type="curve" smooth="yes"/>
			<point x="62" y="515"/>
			<point x="163" y="426"/>
			<point x="362" y="376" type="curve" smooth="yes"/>
			<point x="561" y="325"/>
			<point x="619" y="274"/>
			<point x="619" y="190" type="curve" smooth="yes"/>
			<point x="619" y="82"/>
			<point x="544" y="31"/>
			<point x="425" y="31" type="curve" smooth="yes"/>
			<point x="356" y="31"/>
			<point x="282" y="48"/>
			<point x="225" y="87" type="curve"/>
			<point x="292" y="27" type="line"/>
			<point x="89" y="347" type="line"/>
			<point x="51" y="347" type="line"/>
			<point x="104" y="23" type="line"/>
			<point x="169" y="-8"/>
			<point x="269" y="-30"/>
			<point x="420" y="-30" type="curve" smooth="yes"/>
			<point x="723" y="-30"/>
			<point x="920" y="131"/>
			<point x="920" y="360" type="curve" smooth="yes"/>
			<point x="920" y="538"/>
			<point x="839" y="658"/>
			<point x="617" y="717" type="curve" smooth="yes"/>
			<point x="394" y="776"/>
			<point x="358" y="815"/>
			<point x="358" y="881" type="curve" smooth="yes"/>
			<point x="358" y="957"/>
			<point x="415" y="992"/>
			<point x="532" y="992" type="curve" smooth="yes"/>
			<point x="601" y="992"/>
			<point x="670" y="970"/>
			<point x="745" y="911" type="curve"/>
			<point x="647" y="997" type="line"/>
			<point x="830" y="726" type="line"/>
			<point x="862" y="726" type="line"/>
			<point x="815" y="1008" type="line"/>
			<point x="722" y="1039"/>
			<point x="640" y="1054"/>
		</contour>
	</outline>
	<anchor name="top" x="485" y="1024"/>
	<anchor name="bottom" x="475" y="0"/>
</glyph>
<glyph name="t" format="2">
	<unicode hex="0074"/>
	<advance width="963"/>
	<outline>
		<contour>
			<point x="603" y="331" type="curve" smooth="yes"/>
			<point x="603" y="1001" type="line"/>
			<point x="603" y="1282" type="line"/>
			<point x="579" y="1282" type="line"/>
			<point x="395.6045016077" y="1184"/>
			<point x="38.1704180064" y="993"/>
			<point x="-3" y="971" type="curve"/>
			<point x="-3" y="941" type="line"/>
			<point x="167" y="794" type="line"/>
			<point x="167" y="303" type="line" smooth="yes"/>
			<point x="167" y="78"/>
			<point x="288" y="-30"/>
			<point x="506" y="-30" type="curve" smooth="yes"/>
			<point x="642" y="-30"/>
			<point x="763" y="14"/>
			<point x="987" y="184" type="curve"/>
			<point x="987" y="238" type="line"/>
			<point x="891" y="215"/>
			<point x="825" y="209"/>
			<point x="762" y="209" type="curve" smooth="yes"/>
			<point x="650" y="209"/>
			<point x="603" y="248"/>
		</contour>
		<contour>
			<point x="430" y="843" type="line"/>
			<point x="924" y="843" type="line"/>
			<point x="947" y="1024" type="line"/>
			<point x="430" y="1024" type="line"/>
		</contour>
	</outline>
	<anchor name="right" x="656" y="1540"/>
	<anchor name="bottom" x="562" y="0"/>
</glyph>
<glyph name="u" format="2">
	<unicode hex="0075"/>
	<advance width="1318"/>
	<outline>
		<contour>
			<point x="553" y="350" type="curve" smooth="yes"/>
			<point x="553" y="924" type="line"/>
			<point x="558" y="1039" type="line"/>
			<point x="10" y="1009" type="line"/>
			<point x="10" y="976" type="line"/>
			<point x="115" y="901" type="line"/>
			<point x="115" y="252" type="line" smooth="yes"/>
			<point x="115" y="81"/>
			<point x="213" y="-20"/>
			<point x="382" y="-20" type="curve" smooth="yes"/>
			<point x="536" y="-20"/>
			<point x="594" y="7"/>
			<point x="785" y="253" type="curve"/>
			<point x="785" y="279" type="line"/>
			<point x="727" y="252"/>
			<point x="689" y="243"/>
			<point x="651" y="243" type="curve" smooth="yes"/>
			<point x="585" y="243"/>
			<point x="553" y="268"/>
		</contour>
		<contour>
			<point x="770" y="-43" type="line"/>
			<point x="799" y="-43" type="line"/>
			<point x="1318" y="59" type="line"/>
			<point x="1318" y="90" type="line"/>
			<point x="1276" y="118.4028776978"/>
			<point x="1203" y="167.7697841727"/>
			<point x="1179" y="184" type="curve"/>
			<point x="1179" y="921" type="line"/>
			<point x="1195" y="1039" type="line"/>
			<point x="646" y="1009" type="line"/>
			<point x="646" y="976" type="line"/>
			<point x="741" y="904" type="line"/>
			<point x="741" y="151" type="line"/>
		</contour>
	</outline>
	<anchor name="horn" x="1090" y="1022"/>
	<anchor name="top" x="638" y="1024"/>
	<anchor name="right" x="1318" y="0"/>
	<anchor name="bottom" x="638" y="0"/>
</glyph>
<glyph name="v" format="2">
	<unicode hex="0076"/>
	<advance width="1262"/>
	<outline>
		<contour>
			<point x="1174" y="964" type="line"/>
			<point x="1269" y="991" type="line"/>
			<point x="1269" y="1024" type="line"/>
			<point x="985" y="1024" type="line"/>
			<point x="985" y="991" type="line"/>
			<point x="1090" y="966" type="line"/>
			<point x="795" y="140" type="line"/>
			<point x="861" y="180" type="line"/>
			<point x="542" y="962" type="line"/>
			<point x="647" y="991" type="line"/>
			<point x="647" y="1024" type="line"/>
			<point x="-43" y="1024" type="line"/>
			<point x="-43" y="994" type="line"/>
			<point x="51" y="950" type="line"/>
			<point x="499" y="0" type="line"/>
			<point x="812" y="0" type="line"/>
		</contour>
	</outline>
	<anchor name="top" x="686" y="1024"/>
	<anchor name="bottom" x="646" y="0"/>
</glyph>
<glyph name="w" format="2">
	<unicode hex="0077"/>
	<advance width="1802"/>
	<outline>
		<contour>
			<point x="1639" y="966" type="line"/>
			<point x="1434" y="142" type="line"/>
			<point x="1509" y="227" type="line"/>
			<point x="1235" y="1024" type="line"/>
			<point x="920" y="1024" type="line"/>
			<point x="647" y="141" type="line"/>
			<point x="720" y="225" type="line"/>
			<point x="520" y="962" type="line"/>
			<point x="625" y="991" type="line"/>
			<point x="625" y="1024" type="line"/>
			<point x="-27" y="1024" type="line"/>
			<point x="-27" y="994" type="line"/>
			<point x="67" y="950" type="line"/>
			<point x="359" y="0" type="line"/>
			<point x="672" y="0" type="line"/>
			<point x="943" y="833" type="line"/>
			<point x="870" y="798" type="line"/>
			<point x="1149" y="0" type="line"/>
			<point x="1462" y="0" type="line"/>
			<point x="1723" y="964" type="line"/>
			<point x="1818" y="991" type="line"/>
			<point x="1818" y="1024" type="line"/>
			<point x="1534" y="1024" type="line"/>
			<point x="1534" y="991" type="line"/>
		</contour>
	</outline>
	<anchor name="top" x="995" y="1024"/>
	<anchor name="bottom" x="925" y="0"/>
</glyph>
<glyph name="x" format="2">
	<unicode hex="0078"/>
	<advance width="1237"/>
	<outline>
		<contour>
			<point x="1192" y="67" type="line"/>
			<point x="775" y="636" type="line"/>
			<point x="759" y="649" type="line"/>
			<point x="541" y="966" type="line"/>
			<point x="627" y="991" type="line"/>
			<point x="627" y="1024" type="line"/>
			<point x="-18" y="1024" type="line"/>
			<point x="-18" y="991" type="line"/>
			<point x="72" y="951" type="line"/>
			<point x="452" y="424" type="line"/>
			<point x="469" y="409" type="line"/>
			<point x="718" y="56" type="line"/>
			<point x="626" y="32" type="line"/>
			<point x="626" y="0" type="line"/>
			<point x="1280" y="0" type="line"/>
			<point x="1280" y="32" type="line"/>
		</contour>
		<contour>
			<point x="517" y="446" type="line"/>
			<point x="675" y="489" type="line"/>
			<point x="1074" y="958" type="line"/>
			<point x="1202" y="991" type="line"/>
			<point x="1202" y="1024" type="line"/>
			<point x="852" y="1024" type="line"/>
			<point x="852" y="991" type="line"/>
			<point x="977" y="962" type="line"/>
			<point x="670" y="578" type="line"/>
			<point x="512" y="535" type="line"/>
			<point x="113" y="66" type="line"/>
			<point x="-15" y="33" type="line"/>
			<point x="-15" y="0" type="line"/>
			<point x="335" y="0" type="line"/>
			<point x="335" y="33" type="line"/>
			<point x="210" y="62" type="line"/>
		</contour>
	</outline>
	<anchor name="top" x="664" y="1024"/>
	<anchor name="bottom" x="614" y="0"/>
</glyph>
<glyph name="y" format="2">
  <advance width="1239"/>
  <unicode hex="0079"/>
  <anchor x="669.0" y="1024.0" name="top"/>
  <anchor x="942.0" y="-86" name="bottom"/>
  <outline>
    <contour>
      <point x="866" y="336" type="line"/>
      <point x="543" y="962" type="line"/>
      <point x="648" y="991" type="line"/>
      <point x="648" y="1024" type="line"/>
      <point x="-42" y="1024" type="line"/>
      <point x="-42" y="994" type="line"/>
      <point x="52" y="950" type="line"/>
      <point x="664" y="-132" type="line"/>
    </contour>
    <contour>
      <point x="343" y="-455" type="curve" smooth="yes"/>
      <point x="515" y="-455"/>
      <point x="625" y="-353"/>
      <point x="760" y="-23" type="curve" smooth="yes"/>
      <point x="1165" y="964" type="line"/>
      <point x="1260" y="991" type="line"/>
      <point x="1260" y="1024" type="line"/>
      <point x="981" y="1024" type="line"/>
      <point x="981" y="991" type="line"/>
      <point x="1086" y="966" type="line"/>
      <point x="812" y="268" type="line"/>
      <point x="673" y="-54" type="line"/>
      <point x="642" y="-108" type="line" smooth="yes"/>
      <point x="604" y="-174"/>
      <point x="542" y="-198"/>
      <point x="414" y="-198" type="curve" smooth="yes"/>
      <point x="316" y="-198"/>
      <point x="243" y="-157"/>
      <point x="236" y="-157" type="curve" smooth="yes"/>
      <point x="206" y="-157"/>
      <point x="162" y="-210"/>
      <point x="162" y="-283" type="curve" smooth="yes"/>
      <point x="162" y="-395"/>
      <point x="238" y="-455"/>
    </contour>
  </outline>
</glyph>
<glyph name="z" format="2">
	<unicode hex="007A"/>
	<advance width="1116"/>
	<outline>
		<contour>
			<point x="44" y="0" type="line"/>
			<point x="999" y="0" type="line"/>
			<point x="1113" y="432" type="line"/>
			<point x="1071" y="432" type="line"/>
			<point x="812" y="21" type="line"/>
			<point x="946" y="68" type="line"/>
			<point x="212" y="68" type="line"/>
			<point x="458" y="1" type="line"/>
			<point x="1041" y="979" type="line"/>
			<point x="1041" y="1024" type="line"/>
			<point x="226" y="1024" type="line"/>
			<point x="119" y="1104" type="line"/>
			<point x="106" y="1104" type="line"/>
			<point x="32" y="659" type="line"/>
			<point x="73" y="659" type="line"/>
			<point x="253" y="991" type="line"/>
			<point x="98" y="956" type="line"/>
			<point x="799" y="956" type="line"/>
			<point x="610" y="996" type="line"/>
			<point x="44" y="44" type="line"/>
		</contour>
	</outline>
	<anchor name="top" x="592" y="1024"/>
	<anchor name="bottom" x="562" y="0"/>
</glyph>
<glyph name="braceleft" format="2">
	<unicode hex="007B"/>
	<advance width="600"/>
	<outline>
		<contour>
			<point x="33" y="619" type="line"/>
			<point x="78" y="613" type="line" smooth="yes"/>
			<point x="191" y="597"/>
			<point x="213" y="572"/>
			<point x="213" y="500" type="curve" smooth="yes"/>
			<point x="213" y="361"/>
			<point x="122" y="203"/>
			<point x="122" y="84" type="curve" smooth="yes"/>
			<point x="122" y="-67"/>
			<point x="240" y="-193"/>
			<point x="460" y="-210" type="curve" smooth="yes"/>
			<point x="561" y="-218" type="line"/>
			<point x="568" y="-184" type="line"/>
			<point x="512" y="-175" type="line" smooth="yes"/>
			<point x="404" y="-158"/>
			<point x="370" y="-73"/>
			<point x="370" y="30" type="curve" smooth="yes"/>
			<point x="370" y="143"/>
			<point x="413" y="266"/>
			<point x="413" y="412" type="curve" smooth="yes"/>
			<point x="413" y="531"/>
			<point x="323" y="617"/>
			<point x="178" y="644" type="curve"/>
			<point x="178" y="632" type="line"/>
			<point x="323" y="659"/>
			<point x="413" y="745"/>
			<point x="413" y="865" type="curve" smooth="yes"/>
			<point x="413" y="1010"/>
			<point x="370" y="1133"/>
			<point x="370" y="1246" type="curve" smooth="yes"/>
			<point x="370" y="1349"/>
			<point x="404" y="1434"/>
			<point x="512" y="1451" type="curve" smooth="yes"/>
			<point x="568" y="1460" type="line"/>
			<point x="561" y="1494" type="line"/>
			<point x="460" y="1486" type="line" smooth="yes"/>
			<point x="240" y="1469"/>
			<point x="122" y="1343"/>
			<point x="122" y="1192" type="curve" smooth="yes"/>
			<point x="122" y="1073"/>
			<point x="213" y="916"/>
			<point x="213" y="776" type="curve" smooth="yes"/>
			<point x="213" y="704"/>
			<point x="191" y="679"/>
			<point x="78" y="664" type="curve" smooth="yes"/>
			<point x="33" y="657" type="line"/>
		</contour>
	</outline>
</glyph>
<glyph name="bar" format="2">
	<unicode hex="007C"/>
	<advance width="394"/>
	<outline>
		<contour>
			<point x="153" y="-465" type="line"/>
			<point x="241" y="-465" type="line"/>
			<point x="241" y="1535" type="line"/>
			<point x="153" y="1535" type="line"/>
		</contour>
	</outline>
</glyph>
<glyph name="braceright" format="2">
	<unicode hex="007D"/>
	<advance width="601"/>
	<outline>
		<contour>
			<point x="568" y="658" type="line"/>
			<point x="523" y="664" type="line" smooth="yes"/>
			<point x="410" y="679"/>
			<point x="388" y="705"/>
			<point x="388" y="776" type="curve" smooth="yes"/>
			<point x="388" y="916"/>
			<point x="479" y="1073"/>
			<point x="479" y="1192" type="curve" smooth="yes"/>
			<point x="479" y="1343"/>
			<point x="361" y="1469"/>
			<point x="141" y="1486" type="curve" smooth="yes"/>
			<point x="40" y="1494" type="line"/>
			<point x="33" y="1460" type="line"/>
			<point x="89" y="1451" type="line" smooth="yes"/>
			<point x="197" y="1434"/>
			<point x="231" y="1349"/>
			<point x="231" y="1246" type="curve" smooth="yes"/>
			<point x="231" y="1133"/>
			<point x="188" y="1011"/>
			<point x="188" y="865" type="curve" smooth="yes"/>
			<point x="188" y="746"/>
			<point x="278" y="660"/>
			<point x="423" y="632" type="curve"/>
			<point x="423" y="645" type="line"/>
			<point x="278" y="617"/>
			<point x="188" y="531"/>
			<point x="188" y="412" type="curve" smooth="yes"/>
			<point x="188" y="266"/>
			<point x="231" y="144"/>
			<point x="231" y="31" type="curve" smooth="yes"/>
			<point x="231" y="-72"/>
			<point x="197" y="-157"/>
			<point x="89" y="-174" type="curve" smooth="yes"/>
			<point x="33" y="-183" type="line"/>
			<point x="40" y="-217" type="line"/>
			<point x="141" y="-209" type="line" smooth="yes"/>
			<point x="361" y="-192"/>
			<point x="479" y="-66"/>
			<point x="479" y="85" type="curve" smooth="yes"/>
			<point x="479" y="204"/>
			<point x="388" y="361"/>
			<point x="388" y="501" type="curve" smooth="yes"/>
			<point x="388" y="572"/>
			<point x="410" y="598"/>
			<point x="523" y="613" type="curve" smooth="yes"/>
			<point x="568" y="619" type="line"/>
		</contour>
	</outline>
</glyph>
<glyph name="asciitilde" format="2">
	<unicode hex="007E"/>
	<advance width="1150"/>
	<outline>
		<contour>
			<point x="162" y="396" type="curve"/>
			<point x="263" y="396" type="line"/>
			<point x="269" y="494"/>
			<point x="302" y="541"/>
			<point x="394" y="541" type="curve" smooth="yes"/>
			<point x="522" y="541"/>
			<point x="584" y="388"/>
			<point x="761" y="388" type="curve" smooth="yes"/>
			<point x="880" y="388"/>
			<point x="986" y="440"/>
			<point x="988" y="628" type="curve"/>
			<point x="887" y="628" type="line"/>
			<point x="881" y="530"/>
			<point x="848" y="483"/>
			<point x="756" y="483" type="curve" smooth="yes"/>
			<point x="628" y="483"/>
			<point x="566" y="636"/>
			<point x="389" y="636" type="curve" smooth="yes"/>
			<point x="270" y="636"/>
			<point x="164" y="584"/>
		</contour>
	</outline>
</glyph>
<glyph name="exclamdown" format="2">
	<unicode hex="00A1"/>
	<advance width="626"/>
	<outline>
		<contour>
			<point x="57" y="-222" type="line" smooth="yes"/>
			<point x="57" y="-356"/>
			<point x="185" y="-434"/>
			<point x="313" y="-434" type="curve" smooth="yes"/>
			<point x="441" y="-434"/>
			<point x="569" y="-356"/>
			<point x="569" y="-222" type="curve" smooth="yes"/>
			<point x="569" y="-202" type="line" smooth="yes"/>
			<point x="569" y="-100"/>
			<point x="422" y="98"/>
			<point x="335" y="473" type="curve"/>
			<point x="291" y="473" type="line"/>
			<point x="204" y="98"/>
			<point x="57" y="-100"/>
			<point x="57" y="-202" type="curve" smooth="yes"/>
		</contour>
		<contour>
			<point x="313" y="630" type="curve" smooth="yes"/>
			<point x="440" y="630"/>
			<point x="529" y="721"/>
			<point x="529" y="840" type="curve" smooth="yes"/>
			<point x="529" y="959"/>
			<point x="440" y="1050"/>
			<point x="313" y="1050" type="curve" smooth="yes"/>
			<point x="186" y="1050"/>
			<point x="97" y="959"/>
			<point x="97" y="840" type="curve" smooth="yes"/>
			<point x="97" y="721"/>
			<point x="186" y="630"/>
		</contour>
	</outline>
</glyph>
<glyph name="currency" format="2">
	<unicode hex="00A4"/>
	<advance width="908"/>
	<outline>
		<contour>
			<point x="163" y="871" type="line"/>
			<point x="95" y="803" type="line"/>
			<point x="208" y="690" type="line"/>
			<point x="276" y="758" type="line"/>
		</contour>
		<contour>
			<point x="95" y="221" type="line"/>
			<point x="163" y="153" type="line"/>
			<point x="272" y="262" type="line"/>
			<point x="204" y="330" type="line"/>
		</contour>
		<contour>
			<point x="454" y="819" type="curve" smooth="yes"/>
			<point x="275" y="819"/>
			<point x="146" y="691"/>
			<point x="146" y="512" type="curve" smooth="yes"/>
			<point x="146" y="333"/>
			<point x="275" y="205"/>
			<point x="454" y="205" type="curve" smooth="yes"/>
			<point x="633" y="205"/>
			<point x="762" y="333"/>
			<point x="762" y="512" type="curve" smooth="yes"/>
			<point x="762" y="691"/>
			<point x="633" y="819"/>
		</contour>
		<contour>
			<point x="454" y="295" type="curve" smooth="yes"/>
			<point x="330" y="295"/>
			<point x="241" y="382"/>
			<point x="241" y="512" type="curve" smooth="yes"/>
			<point x="241" y="642"/>
			<point x="330" y="729"/>
			<point x="454" y="729" type="curve" smooth="yes"/>
			<point x="578" y="729"/>
			<point x="667" y="642"/>
			<point x="667" y="512" type="curve" smooth="yes"/>
			<point x="667" y="382"/>
			<point x="578" y="295"/>
		</contour>
		<contour>
			<point x="813" y="803" type="line"/>
			<point x="745" y="871" type="line"/>
			<point x="632" y="758" type="line"/>
			<point x="700" y="690" type="line"/>
		</contour>
		<contour>
			<point x="813" y="221" type="line"/>
			<point x="704" y="330" type="line"/>
			<point x="636" y="262" type="line"/>
			<point x="745" y="153" type="line"/>
		</contour>
	</outline>
</glyph>
<glyph name="brokenbar" format="2">
	<unicode hex="00A6"/>
	<advance width="394"/>
	<outline>
		<contour>
			<point x="241" y="725" type="line"/>
			<point x="241" y="1535" type="line"/>
			<point x="153" y="1535" type="line"/>
			<point x="153" y="725" type="line"/>
		</contour>
		<contour>
			<point x="153" y="-465" type="line"/>
			<point x="241" y="-465" type="line"/>
			<point x="241" y="345" type="line"/>
			<point x="153" y="345" type="line"/>
		</contour>
	</outline>
</glyph>
<glyph name="section" format="2">
	<unicode hex="00A7"/>
	<advance width="1324"/>
	<outline>
		<contour>
			<point x="569" y="-218" type="curve" smooth="yes"/>
			<point x="951" y="-218"/>
			<point x="1118" y="-48"/>
			<point x="1118" y="172" type="curve" smooth="yes"/>
			<point x="1118" y="566"/>
			<point x="348" y="475"/>
			<point x="348" y="722" type="curve" smooth="yes"/>
			<point x="348" y="786"/>
			<point x="381" y="833"/>
			<point x="421" y="855" type="curve"/>
			<point x="393" y="879" type="line"/>
			<point x="195" y="824"/>
			<point x="83" y="705"/>
			<point x="83" y="539" type="curve" smooth="yes"/>
			<point x="83" y="93"/>
			<point x="824" y="217"/>
			<point x="824" y="-11" type="curve" smooth="yes"/>
			<point x="824" y="-79"/>
			<point x="779" y="-138"/>
			<point x="652" y="-138" type="curve" smooth="yes"/>
			<point x="505" y="-138"/>
			<point x="368" y="94"/>
			<point x="331" y="94" type="curve" smooth="yes"/>
			<point x="251" y="94"/>
			<point x="201" y="45"/>
			<point x="201" y="-32" type="curve" smooth="yes"/>
			<point x="201" y="-135"/>
			<point x="308" y="-218"/>
		</contour>
		<contour>
			<point x="976" y="520" type="curve" smooth="yes"/>
			<point x="976" y="456"/>
			<point x="943" y="409"/>
			<point x="903" y="387" type="curve"/>
			<point x="931" y="363" type="line"/>
			<point x="1129" y="418"/>
			<point x="1241" y="537"/>
			<point x="1241" y="703" type="curve" smooth="yes"/>
			<point x="1241" y="1156"/>
			<point x="500" y="1017"/>
			<point x="500" y="1253" type="curve" smooth="yes"/>
			<point x="500" y="1321"/>
			<point x="545" y="1380"/>
			<point x="672" y="1380" type="curve" smooth="yes"/>
			<point x="819" y="1380"/>
			<point x="956" y="1148"/>
			<point x="993" y="1148" type="curve" smooth="yes"/>
			<point x="1073" y="1148"/>
			<point x="1123" y="1197"/>
			<point x="1123" y="1274" type="curve" smooth="yes"/>
			<point x="1123" y="1377"/>
			<point x="1016" y="1460"/>
			<point x="755" y="1460" type="curve" smooth="yes"/>
			<point x="373" y="1460"/>
			<point x="206" y="1290"/>
			<point x="206" y="1070" type="curve" smooth="yes"/>
			<point x="206" y="679"/>
			<point x="976" y="765"/>
		</contour>
	</outline>
</glyph>
<glyph name="copyright" format="2">
	<unicode hex="00A9"/>
	<advance width="1703"/>
	<outline>
		<contour>
			<point x="850" y="1460" type="curve" smooth="yes"/>
			<point x="412" y="1460"/>
			<point x="99" y="1151"/>
			<point x="99" y="714" type="curve" smooth="yes"/>
			<point x="99" y="278"/>
			<point x="412" y="-30"/>
			<point x="850" y="-30" type="curve" smooth="yes"/>
			<point x="1289" y="-30"/>
			<point x="1604" y="278"/>
			<point x="1604" y="714" type="curve" smooth="yes"/>
			<point x="1604" y="1151"/>
			<point x="1289" y="1460"/>
		</contour>
		<contour>
			<point x="850" y="1394" type="curve" smooth="yes"/>
			<point x="1239" y="1394"/>
			<point x="1523" y="1114"/>
			<point x="1523" y="714" type="curve" smooth="yes"/>
			<point x="1523" y="315"/>
			<point x="1239" y="35"/>
			<point x="850" y="35" type="curve" smooth="yes"/>
			<point x="462" y="35"/>
			<point x="179" y="315"/>
			<point x="179" y="714" type="curve" smooth="yes"/>
			<point x="179" y="1114"/>
			<point x="462" y="1394"/>
		</contour>
		<contour>
			<point x="995" y="330" type="curve" smooth="yes"/>
			<point x="868" y="330"/>
			<point x="766" y="502"/>
			<point x="766" y="773" type="curve" smooth="yes"/>
			<point x="766" y="1021"/>
			<point x="836" y="1106"/>
			<point x="932" y="1106" type="curve" smooth="yes"/>
			<point x="984" y="1106"/>
			<point x="1033" y="1082"/>
			<point x="1076" y="1042" type="curve"/>
			<point x="1018" y="1098" type="line"/>
			<point x="1204" y="846" type="line"/>
			<point x="1226" y="850" type="line"/>
			<point x="1181" y="1204" type="line"/>
			<point x="1172" y="1204" type="line"/>
			<point x="1045" y="1132" type="line"/>
			<point x="1125" y="1146" type="line"/>
			<point x="1052" y="1162"/>
			<point x="1008" y="1173"/>
			<point x="938" y="1173" type="curve" smooth="yes"/>
			<point x="614" y="1173"/>
			<point x="413" y="993"/>
			<point x="413" y="727" type="curve" smooth="yes"/>
			<point x="413" y="422"/>
			<point x="612" y="265"/>
			<point x="932" y="265" type="curve" smooth="yes"/>
			<point x="1038" y="265"/>
			<point x="1104" y="274"/>
			<point x="1192" y="295" type="curve"/>
			<point x="1257" y="550" type="line"/>
			<point x="1232" y="550" type="line"/>
			<point x="1050" y="322" type="line"/>
			<point x="1111" y="371" type="line"/>
			<point x="1073" y="343"/>
			<point x="1038" y="330"/>
		</contour>
	</outline>
</glyph>
<glyph name="ordfeminine" format="2">
	<unicode hex="00AA"/>
	<advance width="952"/>
	<outline>
		<contour>
			<point x="114" y="560" type="line"/>
			<point x="848" y="560" type="line"/>
			<point x="848" y="639" type="line"/>
			<point x="114" y="639" type="line"/>
		</contour>
		<contour>
			<point x="493" y="1154" type="curve"/>
			<point x="499" y="1200" type="line"/>
			<point x="151" y="1109"/>
			<point x="105" y="1052"/>
			<point x="105" y="950" type="curve" smooth="yes"/>
			<point x="105" y="850"/>
			<point x="172" y="782"/>
			<point x="303" y="782" type="curve" smooth="yes"/>
			<point x="404" y="782"/>
			<point x="457.3460244549" y="836.27738972"/>
			<point x="490" y="969" type="curve"/>
			<point x="476" y="978" type="line"/>
			<point x="480.2125840397" y="835.8252886588"/>
			<point x="526" y="780"/>
			<point x="647" y="780" type="curve" smooth="yes"/>
			<point x="740" y="780"/>
			<point x="800" y="802"/>
			<point x="874" y="856" type="curve"/>
			<point x="874" y="895" type="line"/>
			<point x="855" y="888"/>
			<point x="837" y="885"/>
			<point x="819" y="885" type="curve" smooth="yes"/>
			<point x="792" y="885"/>
			<point x="778" y="897"/>
			<point x="778" y="924" type="curve" smooth="yes"/>
			<point x="778" y="1243" type="line" smooth="yes"/>
			<point x="778" y="1377"/>
			<point x="703" y="1460"/>
			<point x="499" y="1460" type="curve" smooth="yes"/>
			<point x="299" y="1460"/>
			<point x="113" y="1355"/>
			<point x="113" y="1277" type="curve" smooth="yes"/>
			<point x="113" y="1252"/>
			<point x="135" y="1234"/>
			<point x="192" y="1234" type="curve" smooth="yes"/>
			<point x="234" y="1234"/>
			<point x="269" y="1250"/>
			<point x="285" y="1271" type="curve" smooth="yes"/>
			<point x="302" y="1292"/>
			<point x="310" y="1320"/>
			<point x="325" y="1429" type="curve"/>
			<point x="300" y="1375" type="line"/>
			<point x="322" y="1378"/>
			<point x="350" y="1380"/>
			<point x="389" y="1380" type="curve" smooth="yes"/>
			<point x="447" y="1380"/>
			<point x="474" y="1342"/>
			<point x="474" y="1286" type="curve" smooth="yes"/>
			<point x="474" y="1003" type="line" smooth="yes"/>
			<point x="474" y="952"/>
			<point x="460" y="937"/>
			<point x="438" y="937" type="curve" smooth="yes"/>
			<point x="409" y="937"/>
			<point x="393" y="958.3626373626"/>
			<point x="393" y="1018" type="curve" smooth="yes"/>
			<point x="393" y="1085.0684931507"/>
			<point x="405.7206054226" y="1121.2702270335"/>
		</contour>
	</outline>
</glyph>
<glyph name="guillemotleft" format="2">
	<unicode hex="00AB"/>
	<advance width="945"/>
	<outline>
		<contour>
			<point x="266" y="632" type="line"/>
			<point x="266" y="412" type="line"/>
			<point x="486" y="964" type="line"/>
			<point x="464" y="980" type="line"/>
			<point x="21" y="532" type="line"/>
			<point x="21" y="512" type="line"/>
			<point x="464" y="64" type="line"/>
			<point x="486" y="80" type="line"/>
		</contour>
		<contour>
			<point x="666" y="632" type="line"/>
			<point x="666" y="412" type="line"/>
			<point x="886" y="964" type="line"/>
			<point x="864" y="980" type="line"/>
			<point x="421" y="532" type="line"/>
			<point x="421" y="512" type="line"/>
			<point x="864" y="64" type="line"/>
			<point x="886" y="80" type="line"/>
		</contour>
	</outline>
</glyph>
<glyph name="logicalnot" format="2">
  <advance width="1150"/>
  <unicode hex="00AC"/>
  <outline>
    <contour>
      <point x="156.0" y="756.0" type="line"/>
      <point x="156.0" y="659.0" type="line"/>
      <point x="978.0" y="659.0" type="line"/>
      <point x="978.0" y="756.0" type="line"/>
    </contour>
    <contour>
      <point x="978.0" y="704.0" type="line"/>
      <point x="881.0" y="704.0" type="line"/>
      <point x="881.0" y="268.0" type="line"/>
      <point x="978.0" y="268.0" type="line"/>
    </contour>
  </outline>
</glyph>
<glyph name="registered" format="2">
  <advance width="1054"/>
  <unicode hex="00AE"/>
  <outline>
    <contour>
      <point x="525.0" y="1460.0" type="curve" smooth="yes"/>
      <point x="275.0" y="1460.0"/>
      <point x="96.0" y="1283.0"/>
      <point x="96.0" y="1034.0" type="curve" smooth="yes"/>
      <point x="96.0" y="786.0"/>
      <point x="275.0" y="606.0"/>
      <point x="525.0" y="606.0" type="curve" smooth="yes"/>
      <point x="777.0" y="606.0"/>
      <point x="959.0" y="786.0"/>
      <point x="959.0" y="1034.0" type="curve" smooth="yes"/>
      <point x="959.0" y="1283.0"/>
      <point x="777.0" y="1460.0"/>
    </contour>
    <contour>
      <point x="525.0" y="1405.0" type="curve" smooth="yes"/>
      <point x="741.0" y="1405.0"/>
      <point x="897.0" y="1254.0"/>
      <point x="897.0" y="1034.0" type="curve" smooth="yes"/>
      <point x="897.0" y="816.0"/>
      <point x="741.0" y="662.0"/>
      <point x="525.0" y="662.0" type="curve" smooth="yes"/>
      <point x="311.0" y="662.0"/>
      <point x="158.0" y="816.0"/>
      <point x="158.0" y="1034.0" type="curve" smooth="yes"/>
      <point x="158.0" y="1254.0"/>
      <point x="311.0" y="1405.0"/>
    </contour>
    <contour>
      <point x="452.0" y="1065.0" type="line"/>
      <point x="452.0" y="1026.0" type="line"/>
      <point x="523.0" y="1026.0" type="line" smooth="yes"/>
      <point x="563.0" y="1026.0"/>
      <point x="575.0" y="1012.0"/>
      <point x="578.0" y="986.0" type="curve" smooth="yes"/>
      <point x="585.0" y="918.0" type="line" smooth="yes"/>
      <point x="594.0" y="829.0"/>
      <point x="627.0" y="812.0"/>
      <point x="774.0" y="828.0" type="curve"/>
      <point x="774.0" y="859.0" type="line"/>
      <point x="751.0" y="859.0"/>
      <point x="735.0" y="866.0"/>
      <point x="730.0" y="901.0" type="curve" smooth="yes"/>
      <point x="722.0" y="962.0" type="line" smooth="yes"/>
      <point x="714.0" y="1021.0"/>
      <point x="679.0" y="1047.0"/>
      <point x="610.0" y="1051.0" type="curve"/>
      <point x="610.0" y="1050.0" type="line"/>
      <point x="697.0" y="1051.0"/>
      <point x="742.0" y="1098.0"/>
      <point x="742.0" y="1155.0" type="curve" smooth="yes"/>
      <point x="742.0" y="1211.0"/>
      <point x="705.0" y="1254.0"/>
      <point x="592.0" y="1254.0" type="curve" smooth="yes"/>
      <point x="452.0" y="1254.0" type="line"/>
      <point x="452.0" y="1214.0" type="line"/>
      <point x="546.0" y="1214.0" type="line" smooth="yes"/>
      <point x="585.0" y="1214.0"/>
      <point x="606.0" y="1194.0"/>
      <point x="606.0" y="1144.0" type="curve" smooth="yes"/>
      <point x="606.0" y="1093.0"/>
      <point x="585.0" y="1065.0"/>
      <point x="537.0" y="1065.0" type="curve" smooth="yes"/>
    </contour>
    <contour>
      <point x="363.0" y="1217.0" type="line"/>
      <point x="363.0" y="867.0" type="line"/>
      <point x="310.0" y="850.0" type="line"/>
      <point x="310.0" y="828.0" type="line"/>
      <point x="557.0" y="828.0" type="line"/>
      <point x="557.0" y="850.0" type="line"/>
      <point x="505.0" y="867.0" type="line"/>
      <point x="505.0" y="1254.0" type="line"/>
      <point x="310.0" y="1254.0" type="line"/>
      <point x="310.0" y="1232.0" type="line"/>
    </contour>
  </outline>
</glyph>
<glyph name="degree" format="2">
	<unicode hex="00B0"/>
	<advance width="712"/>
	<outline>
		<contour>
			<point x="356" y="1450" type="curve" smooth="yes"/>
			<point x="180" y="1450"/>
			<point x="54" y="1326"/>
			<point x="54" y="1150" type="curve" smooth="yes"/>
			<point x="54" y="974"/>
			<point x="180" y="850"/>
			<point x="356" y="850" type="curve" smooth="yes"/>
			<point x="532" y="850"/>
			<point x="658" y="974"/>
			<point x="658" y="1150" type="curve" smooth="yes"/>
			<point x="658" y="1326"/>
			<point x="532" y="1450"/>
		</contour>
		<contour>
			<point x="356" y="937" type="curve" smooth="yes"/>
			<point x="234" y="937"/>
			<point x="146" y="1022"/>
			<point x="146" y="1150" type="curve" smooth="yes"/>
			<point x="146" y="1278"/>
			<point x="234" y="1363"/>
			<point x="356" y="1363" type="curve" smooth="yes"/>
			<point x="478" y="1363"/>
			<point x="566" y="1278"/>
			<point x="566" y="1150" type="curve" smooth="yes"/>
			<point x="566" y="1022"/>
			<point x="478" y="937"/>
		</contour>
	</outline>
</glyph>
<glyph name="plusminus" format="2">
	<unicode hex="00B1"/>
	<advance width="1150"/>
	<outline>
		<contour>
			<point x="527" y="1024" type="line"/>
			<point x="527" y="202" type="line"/>
			<point x="623" y="202" type="line"/>
			<point x="623" y="1024" type="line"/>
		</contour>
		<contour>
			<point x="164" y="661" type="line"/>
			<point x="164" y="565" type="line"/>
			<point x="986" y="565" type="line"/>
			<point x="986" y="661" type="line"/>
		</contour>
		<contour>
			<point x="164" y="96" type="line"/>
			<point x="164" y="0" type="line"/>
			<point x="986" y="0" type="line"/>
			<point x="986" y="96" type="line"/>
		</contour>
	</outline>
</glyph>
<glyph name="uni00B2" format="2">
	<unicode hex="00B2"/>
	<advance width="763"/>
	<outline>
		<contour>
			<point x="447" y="769" type="line"/>
			<point x="685" y="898" type="line"/>
			<point x="289" y="898" type="line"/>
			<point x="287" y="872" type="line"/>
			<point x="356" y="905" type="line" smooth="yes"/>
			<point x="576" y="1010"/>
			<point x="677" y="1098"/>
			<point x="677" y="1224" type="curve" smooth="yes"/>
			<point x="677" y="1362"/>
			<point x="565" y="1450"/>
			<point x="401" y="1450" type="curve" smooth="yes"/>
			<point x="199" y="1450"/>
			<point x="68" y="1317"/>
			<point x="19" y="1117" type="curve"/>
			<point x="61" y="1109" type="line"/>
			<point x="98" y="1212"/>
			<point x="165" y="1254"/>
			<point x="239" y="1254" type="curve" smooth="yes"/>
			<point x="319" y="1254"/>
			<point x="367" y="1205"/>
			<point x="367" y="1125" type="curve" smooth="yes"/>
			<point x="367" y="1042"/>
			<point x="318" y="948"/>
			<point x="171" y="800" type="curve" smooth="yes"/>
			<point x="50" y="678" type="line"/>
			<point x="50" y="662" type="line"/>
			<point x="557" y="662" type="line"/>
			<point x="631" y="623" type="line"/>
			<point x="650" y="623" type="line"/>
			<point x="734" y="999" type="line"/>
			<point x="716" y="999" type="line"/>
		</contour>
	</outline>
</glyph>
<glyph name="uni00B3" format="2">
	<unicode hex="00B3"/>
	<advance width="711"/>
	<outline>
		<contour>
			<point x="237" y="642" type="curve" smooth="yes"/>
			<point x="494" y="642"/>
			<point x="673" y="750"/>
			<point x="673" y="922" type="curve" smooth="yes"/>
			<point x="673" y="1032"/>
			<point x="598" y="1120"/>
			<point x="396" y="1105" type="curve"/>
			<point x="391" y="1101" type="line"/>
			<point x="550" y="1123"/>
			<point x="602" y="1205"/>
			<point x="602" y="1282" type="curve" smooth="yes"/>
			<point x="602" y="1374"/>
			<point x="539" y="1450"/>
			<point x="389" y="1450" type="curve" smooth="yes"/>
			<point x="199" y="1450"/>
			<point x="100" y="1347"/>
			<point x="54" y="1194" type="curve"/>
			<point x="100" y="1177" type="line"/>
			<point x="125" y="1241"/>
			<point x="171" y="1287"/>
			<point x="260" y="1287" type="curve" smooth="yes"/>
			<point x="317" y="1287"/>
			<point x="359" y="1256"/>
			<point x="359" y="1197" type="curve" smooth="yes"/>
			<point x="359" y="1139"/>
			<point x="316" y="1095"/>
			<point x="194" y="1064" type="curve"/>
			<point x="207" y="1009" type="line"/>
			<point x="233" y="1014" type="line" smooth="yes"/>
			<point x="366" y="1039"/>
			<point x="389" y="1006"/>
			<point x="389" y="894" type="curve" smooth="yes"/>
			<point x="389" y="746"/>
			<point x="346" y="701"/>
			<point x="282" y="701" type="curve" smooth="yes"/>
			<point x="212" y="701"/>
			<point x="127" y="841"/>
			<point x="103" y="841" type="curve" smooth="yes"/>
			<point x="57" y="841"/>
			<point x="24" y="802"/>
			<point x="24" y="759" type="curve" smooth="yes"/>
			<point x="24" y="697"/>
			<point x="69" y="642"/>
		</contour>
	</outline>
</glyph>
<glyph name="uni00B5" format="2">
	<unicode hex="00B5"/>
	<advance width="1397"/>
	<outline>
		<contour>
			<point x="154" y="1024" type="line"/>
			<point x="154" y="-460" type="line"/>
			<point x="164" y="-460" type="line"/>
			<point x="471" y="-433" type="line"/>
			<point x="214" y="200" type="line"/>
			<point x="200" y="174" type="line"/>
			<point x="218" y="43"/>
			<point x="319" y="-20"/>
			<point x="425" y="-20" type="curve" smooth="yes"/>
			<point x="575" y="-20"/>
			<point x="633" y="7"/>
			<point x="824" y="253" type="curve"/>
			<point x="824" y="279" type="line"/>
			<point x="766" y="252"/>
			<point x="728" y="243"/>
			<point x="690" y="243" type="curve" smooth="yes"/>
			<point x="624" y="243"/>
			<point x="592" y="268"/>
			<point x="592" y="350" type="curve" smooth="yes"/>
			<point x="592" y="1024" type="line"/>
		</contour>
		<contour>
			<point x="1218" y="200" type="curve"/>
			<point x="1218" y="1024" type="line"/>
			<point x="780" y="1024" type="line"/>
			<point x="780" y="240" type="line" smooth="yes"/>
			<point x="780" y="46"/>
			<point x="853" y="-30"/>
			<point x="1029" y="-30" type="curve" smooth="yes"/>
			<point x="1163" y="-30"/>
			<point x="1250" y="6"/>
			<point x="1356" y="91" type="curve"/>
			<point x="1356" y="153" type="line"/>
			<point x="1329" y="143"/>
			<point x="1303" y="138"/>
			<point x="1277" y="138" type="curve" smooth="yes"/>
			<point x="1238" y="138"/>
			<point x="1218" y="157"/>
		</contour>
	</outline>
</glyph>
<glyph name="paragraph" format="2">
  <advance width="1224"/>
  <unicode hex="00B6"/>
  <outline>
    <contour>
      <point x="717.0" y="1430.0" type="line"/>
      <point x="473.0" y="1430.0" type="line" smooth="yes"/>
      <point x="170.0" y="1430.0"/>
      <point x="49.0" y="1253.0"/>
      <point x="49.0" y="1051.0" type="curve" smooth="yes"/>
      <point x="49.0" y="842.0"/>
      <point x="176.0" y="687.0"/>
      <point x="473.0" y="687.0" type="curve" smooth="yes"/>
      <point x="717.0" y="687.0" type="line"/>
    </contour>
    <contour>
      <point x="741.0" y="-218.0" type="line"/>
      <point x="741.0" y="1351.0" type="line"/>
      <point x="922.0" y="1351.0" type="line"/>
      <point x="922.0" y="1430.0" type="line"/>
      <point x="655.0" y="1430.0" type="line"/>
      <point x="655.0" y="-218.0" type="line"/>
    </contour>
    <contour>
      <point x="984.0" y="-218.0" type="line"/>
      <point x="984.0" y="1352.0" type="line"/>
      <point x="1172.0" y="1394.0" type="line"/>
      <point x="1172.0" y="1430.0" type="line"/>
      <point x="898.0" y="1430.0" type="line"/>
      <point x="898.0" y="-218.0" type="line"/>
    </contour>
  </outline>
</glyph>
<glyph name="uni00B9" format="2">
	<unicode hex="00B9"/>
	<advance width="573"/>
	<outline>
		<contour>
			<point x="180" y="731" type="line"/>
			<point x="56" y="695" type="line"/>
			<point x="56" y="662" type="line"/>
			<point x="556" y="662" type="line"/>
			<point x="556" y="695" type="line"/>
			<point x="445" y="731" type="line"/>
			<point x="445" y="1450" type="line"/>
			<point x="409" y="1450" type="line"/>
			<point x="9" y="1257" type="line"/>
			<point x="19" y="1216" type="line"/>
			<point x="351" y="1277" type="line"/>
			<point x="180" y="1327" type="line"/>
		</contour>
	</outline>
</glyph>
<glyph name="ordmasculine" format="2">
	<unicode hex="00BA"/>
	<advance width="969"/>
	<outline>
		<contour>
			<point x="117" y="560" type="line"/>
			<point x="851" y="560" type="line"/>
			<point x="851" y="639" type="line"/>
			<point x="117" y="639" type="line"/>
		</contour>
		<contour>
			<point x="486" y="839" type="curve" smooth="yes"/>
			<point x="415" y="839"/>
			<point x="407" y="941.6561514196"/>
			<point x="407" y="1146" type="curve" smooth="yes"/>
			<point x="407" y="1331.6893939394"/>
			<point x="419" y="1400"/>
			<point x="482" y="1400" type="curve" smooth="yes"/>
			<point x="552" y="1400"/>
			<point x="561" y="1298.3227848101"/>
			<point x="561" y="1094" type="curve" smooth="yes"/>
			<point x="561" y="907.320754717"/>
			<point x="548" y="839"/>
		</contour>
		<contour>
			<point x="473" y="780" type="curve" smooth="yes"/>
			<point x="703" y="780"/>
			<point x="873" y="919"/>
			<point x="873" y="1124" type="curve" smooth="yes"/>
			<point x="873" y="1323"/>
			<point x="729" y="1460"/>
			<point x="494" y="1460" type="curve" smooth="yes"/>
			<point x="262" y="1460"/>
			<point x="95" y="1320"/>
			<point x="95" y="1116" type="curve" smooth="yes"/>
			<point x="95" y="917"/>
			<point x="243" y="780"/>
		</contour>
	</outline>
</glyph>
<glyph name="guillemotright" format="2">
	<unicode hex="00BB"/>
	<advance width="1022"/>
	<outline>
		<contour>
			<point x="307" y="413" type="line"/>
			<point x="307" y="633" type="line"/>
			<point x="87" y="81" type="line"/>
			<point x="109" y="65" type="line"/>
			<point x="552" y="513" type="line"/>
			<point x="552" y="533" type="line"/>
			<point x="109" y="981" type="line"/>
			<point x="87" y="965" type="line"/>
		</contour>
		<contour>
			<point x="707" y="413" type="line"/>
			<point x="707" y="633" type="line"/>
			<point x="487" y="81" type="line"/>
			<point x="509" y="65" type="line"/>
			<point x="952" y="513" type="line"/>
			<point x="952" y="533" type="line"/>
			<point x="509" y="981" type="line"/>
			<point x="487" y="965" type="line"/>
		</contour>
	</outline>
</glyph>
<glyph name="questiondown" format="2">
	<unicode hex="00BF"/>
	<advance width="1076"/>
	<outline>
		<contour>
			<point x="745" y="-436" type="curve" smooth="yes"/>
			<point x="965" y="-436"/>
			<point x="1047" y="-364"/>
			<point x="1047" y="-266" type="curve" smooth="yes"/>
			<point x="1047" y="-183"/>
			<point x="966" y="-110"/>
			<point x="904" y="-110" type="curve" smooth="yes"/>
			<point x="865" y="-110"/>
			<point x="708" y="-324"/>
			<point x="507" y="-324" type="curve" smooth="yes"/>
			<point x="392" y="-324"/>
			<point x="338" y="-264"/>
			<point x="338" y="-158" type="curve" smooth="yes"/>
			<point x="338" y="-39"/>
			<point x="404" y="39"/>
			<point x="766" y="39" type="curve"/>
			<point x="649" y="471" type="line"/>
			<point x="602" y="471" type="line"/>
			<point x="602" y="148" type="line"/>
			<point x="639" y="350" type="line"/>
			<point x="262" y="365"/>
			<point x="132" y="274"/>
			<point x="132" y="19" type="curve" smooth="yes"/>
			<point x="132" y="-220"/>
			<point x="338" y="-436"/>
		</contour>
		<contour>
			<point x="625" y="628" type="curve" smooth="yes"/>
			<point x="752" y="628"/>
			<point x="841" y="719"/>
			<point x="841" y="838" type="curve" smooth="yes"/>
			<point x="841" y="957"/>
			<point x="752" y="1048"/>
			<point x="625" y="1048" type="curve" smooth="yes"/>
			<point x="498" y="1048"/>
			<point x="409" y="957"/>
			<point x="409" y="838" type="curve" smooth="yes"/>
			<point x="409" y="719"/>
			<point x="498" y="628"/>
		</contour>
	</outline>
</glyph>
<glyph name="AE" format="2">
	<unicode hex="00C6"/>
	<advance width="2307"/>
	<outline>
		<contour>
			<point x="441" y="490" type="line"/>
			<point x="1074" y="490" type="line"/>
			<point x="1074" y="580" type="line"/>
			<point x="441" y="580" type="line"/>
		</contour>
		<contour>
			<point x="932" y="1430" type="line"/>
			<point x="100" y="86" type="line"/>
			<point x="-52" y="36" type="line"/>
			<point x="-52" y="0" type="line"/>
			<point x="378" y="0" type="line"/>
			<point x="378" y="36" type="line"/>
			<point x="204" y="83" type="line"/>
			<point x="1005" y="1381" type="line"/>
			<point x="1005" y="1430" type="line"/>
		</contour>
		<contour>
			<point x="706" y="1391" type="line"/>
			<point x="881" y="1345" type="line"/>
			<point x="948" y="1430" type="line"/>
			<point x="706" y="1430" type="line"/>
		</contour>
		<contour>
			<point x="1873" y="1079" type="line"/>
			<point x="1841" y="1079" type="line"/>
			<point x="1702" y="810" type="line"/>
			<point x="1382" y="785" type="line"/>
			<point x="1382" y="709" type="line"/>
			<point x="1702" y="686" type="line"/>
			<point x="1841" y="415" type="line"/>
			<point x="1873" y="415" type="line"/>
			<point x="1819" y="746" type="line"/>
		</contour>
		<contour>
			<point x="2212" y="971" type="line"/>
			<point x="2108" y="1519" type="line"/>
			<point x="2087" y="1519" type="line"/>
			<point x="1936" y="1430" type="line"/>
			<point x="1208" y="1430" type="line"/>
			<point x="1208" y="1330" type="line"/>
			<point x="2061" y="1330" type="line"/>
			<point x="1891" y="1387" type="line"/>
			<point x="2173" y="959" type="line"/>
		</contour>
		<contour>
			<point x="1948" y="54" type="line"/>
			<point x="2093" y="100" type="line"/>
			<point x="1208" y="100" type="line"/>
			<point x="1208" y="0" type="line"/>
			<point x="1992" y="0" type="line"/>
			<point x="2131" y="-83" type="line"/>
			<point x="2161" y="-83" type="line"/>
			<point x="2291" y="492" type="line"/>
			<point x="2246" y="503" type="line"/>
		</contour>
		<contour>
			<point x="823" y="0" type="line"/>
			<point x="1474" y="0" type="line"/>
			<point x="1474" y="1430" type="line"/>
			<point x="966" y="1430" type="line"/>
			<point x="966" y="86" type="line"/>
			<point x="823" y="38" type="line"/>
		</contour>
	</outline>
	<anchor name="UCtop" x="1220" y="1430"/>
	<anchor name="bottom" x="1220" y="0"/>
</glyph>
<glyph name="Ccedilla" format="2">
	<unicode hex="00C7"/>
	<advance width="1479"/>
	<outline>
		<contour>
			<point x="1008" y="53" type="curve" smooth="yes"/>
			<point x="773" y="53"/>
			<point x="583" y="392"/>
			<point x="583" y="807" type="curve" smooth="yes"/>
			<point x="583" y="1228"/>
			<point x="710" y="1373"/>
			<point x="908" y="1373" type="curve" smooth="yes"/>
			<point x="1006" y="1373"/>
			<point x="1089" y="1345"/>
			<point x="1205" y="1212" type="curve"/>
			<point x="1107" y="1335" type="line"/>
			<point x="1382" y="923" type="line"/>
			<point x="1419" y="936" type="line"/>
			<point x="1304" y="1510" type="line"/>
			<point x="1288" y="1510" type="line"/>
			<point x="1122" y="1392" type="line"/>
			<point x="1230" y="1424" type="line"/>
			<point x="1107" y="1451"/>
			<point x="1033" y="1460"/>
			<point x="912" y="1460" type="curve" smooth="yes"/>
			<point x="402" y="1460"/>
			<point x="64" y="1162"/>
			<point x="64" y="728" type="curve" smooth="yes"/>
			<point x="64" y="232"/>
			<point x="380" y="-30"/>
			<point x="902" y="-30" type="curve" smooth="yes"/>
			<point x="1071" y="-30"/>
			<point x="1200" y="-14"/>
			<point x="1342" y="19" type="curve"/>
			<point x="1432" y="437" type="line"/>
			<point x="1393" y="437" type="line"/>
			<point x="1133" y="58" type="line"/>
			<point x="1191" y="101" type="line"/>
			<point x="1141" y="71"/>
			<point x="1082" y="53"/>
		</contour>
		<contour>
			<point x="746" y="-465" type="curve" smooth="yes"/>
			<point x="903" y="-465"/>
			<point x="1051" y="-364"/>
			<point x="1051" y="-239" type="curve" smooth="yes"/>
			<point x="1051" y="-165"/>
			<point x="1014" y="-102"/>
			<point x="806" y="-57" type="curve"/>
			<point x="761" y="-190" type="line"/>
			<point x="958" y="49" type="line"/>
			<point x="884" y="49" type="line"/>
			<point x="667" y="-224" type="line"/>
			<point x="667" y="-229" type="line"/>
			<point x="861" y="-260"/>
			<point x="893" y="-301"/>
			<point x="893" y="-339" type="curve" smooth="yes"/>
			<point x="893" y="-383"/>
			<point x="862" y="-408"/>
			<point x="811" y="-408" type="curve" smooth="yes"/>
			<point x="751" y="-408"/>
			<point x="674" y="-312"/>
			<point x="658" y="-312" type="curve" smooth="yes"/>
			<point x="620" y="-312"/>
			<point x="602" y="-344"/>
			<point x="602" y="-376" type="curve" smooth="yes"/>
			<point x="602" y="-426"/>
			<point x="641" y="-465"/>
		</contour>
	</outline>
</glyph>
<glyph name="multiply" format="2">
  <advance width="1150"/>
  <unicode hex="00D7"/>
  <outline>
    <contour>
      <point x="216.0" y="221.0" type="line"/>
      <point x="284.0" y="153.0" type="line"/>
      <point x="934.0" y="803.0" type="line"/>
      <point x="866.0" y="871.0" type="line"/>
    </contour>
    <contour>
      <point x="216.0" y="803.0" type="line"/>
      <point x="866.0" y="153.0" type="line"/>
      <point x="934.0" y="221.0" type="line"/>
      <point x="284.0" y="871.0" type="line"/>
    </contour>
  </outline>
</glyph>
<glyph name="Oslash" format="2">
	<unicode hex="00D8"/>
	<advance width="1695"/>
	<outline>
		<contour>
			<point x="474" y="366" type="line"/>
			<point x="326" y="258" type="line"/>
			<point x="68" y="0" type="line"/>
			<point x="200" y="0" type="line"/>
			<point x="396" y="196" type="line"/>
			<point x="522" y="282" type="line"/>
			<point x="1221" y="1064" type="line"/>
			<point x="1369" y="1172" type="line"/>
			<point x="1627" y="1430" type="line"/>
			<point x="1495" y="1430" type="line"/>
			<point x="1299" y="1234" type="line"/>
			<point x="1173" y="1148" type="line"/>
		</contour>
		<contour>
			<point x="878" y="1460" type="curve" smooth="yes"/>
			<point x="410" y="1460"/>
			<point x="68" y="1139"/>
			<point x="68" y="688" type="curve" smooth="yes"/>
			<point x="68" y="259"/>
			<point x="385" y="-30"/>
			<point x="817" y="-30" type="curve" smooth="yes"/>
			<point x="1285" y="-30"/>
			<point x="1627" y="291"/>
			<point x="1627" y="742" type="curve" smooth="yes"/>
			<point x="1627" y="1171"/>
			<point x="1310" y="1460"/>
		</contour>
		<contour>
			<point x="866" y="57" type="curve" smooth="yes"/>
			<point x="676" y="57"/>
			<point x="581" y="317"/>
			<point x="581" y="804" type="curve" smooth="yes"/>
			<point x="581" y="1247"/>
			<point x="692" y="1373"/>
			<point x="829" y="1373" type="curve" smooth="yes"/>
			<point x="1019" y="1373"/>
			<point x="1114" y="1113"/>
			<point x="1114" y="626" type="curve" smooth="yes"/>
			<point x="1114" y="183"/>
			<point x="1003" y="57"/>
		</contour>
	</outline>
	<anchor name="UCtop" x="848" y="1430"/>
	<anchor name="bottom" x="848" y="0"/>
</glyph>
<glyph name="Thorn" format="2">
	<unicode hex="00DE"/>
	<advance width="1550"/>
	<outline>
		<contour>
			<point x="1015" y="729" type="curve" smooth="yes"/>
			<point x="1015" y="526"/>
			<point x="900" y="416"/>
			<point x="722" y="416" type="curve" smooth="yes"/>
			<point x="440" y="416" type="line"/>
			<point x="462" y="316" type="line"/>
			<point x="953" y="316" type="line" smooth="yes"/>
			<point x="1335" y="316"/>
			<point x="1502" y="503"/>
			<point x="1502" y="730" type="curve" smooth="yes"/>
			<point x="1502" y="956"/>
			<point x="1345" y="1143"/>
			<point x="953" y="1143" type="curve" smooth="yes"/>
			<point x="462" y="1143" type="line"/>
			<point x="440" y="1043" type="line"/>
			<point x="704" y="1043" type="line" smooth="yes"/>
			<point x="922" y="1043"/>
			<point x="1015" y="928"/>
		</contour>
		<contour>
			<point x="841" y="38" type="line"/>
			<point x="698" y="86" type="line"/>
			<point x="698" y="1345" type="line"/>
			<point x="841" y="1391" type="line"/>
			<point x="841" y="1430" type="line"/>
			<point x="47" y="1430" type="line"/>
			<point x="47" y="1391" type="line"/>
			<point x="190" y="1345" type="line"/>
			<point x="190" y="86" type="line"/>
			<point x="47" y="38" type="line"/>
			<point x="47" y="0" type="line"/>
			<point x="841" y="0" type="line"/>
		</contour>
	</outline>
</glyph>
<glyph name="germandbls" format="2">
	<unicode hex="00DF"/>
	<advance width="1494"/>
	<outline>
		<contour>
			<point x="176" y="949" type="curve" smooth="yes"/>
			<point x="176" y="68" type="line"/>
			<point x="90" y="33" type="line"/>
			<point x="90" y="0" type="line"/>
			<point x="690" y="0" type="line"/>
			<point x="690" y="33" type="line"/>
			<point x="614" y="71" type="line"/>
			<point x="614" y="1052" type="line" smooth="yes"/>
			<point x="614" y="1328"/>
			<point x="697" y="1418"/>
			<point x="837" y="1418" type="curve" smooth="yes"/>
			<point x="995" y="1418"/>
			<point x="1061" y="1280"/>
			<point x="1061" y="1178" type="curve" smooth="yes"/>
			<point x="1061" y="952"/>
			<point x="775" y="935"/>
			<point x="775" y="689" type="curve" smooth="yes"/>
			<point x="775" y="328"/>
			<point x="1183" y="444"/>
			<point x="1183" y="206" type="curve" smooth="yes"/>
			<point x="1183" y="91"/>
			<point x="1096" y="31"/>
			<point x="982" y="31" type="curve" smooth="yes"/>
			<point x="957" y="31"/>
			<point x="927" y="34"/>
			<point x="896" y="41" type="curve"/>
			<point x="963" y="1" type="line"/>
			<point x="786" y="317" type="line"/>
			<point x="754" y="317" type="line"/>
			<point x="799" y="0" type="line"/>
			<point x="861.4351901247" y="-16.7736331678"/>
			<point x="911.1598173516" y="-24"/>
			<point x="1002" y="-24" type="curve" smooth="yes"/>
			<point x="1257" y="-24"/>
			<point x="1455" y="141"/>
			<point x="1455" y="384" type="curve" smooth="yes"/>
			<point x="1455" y="792"/>
			<point x="1015" y="707"/>
			<point x="1015" y="895" type="curve" smooth="yes"/>
			<point x="1015" y="1067"/>
			<point x="1338" y="1011"/>
			<point x="1338" y="1236" type="curve" smooth="yes"/>
			<point x="1338" y="1360"/>
			<point x="1241" y="1494"/>
			<point x="885" y="1494" type="curve" smooth="yes"/>
			<point x="494" y="1494"/>
			<point x="176" y="1282"/>
		</contour>
		<contour>
			<point x="207" y="1056" type="line"/>
			<point x="11" y="961" type="line"/>
			<point x="11" y="931" type="line"/>
			<point x="192" y="809" type="line"/>
		</contour>
	</outline>
</glyph>
<glyph name="ae" format="2">
	<unicode hex="00E6"/>
	<advance width="1652"/>
	<outline>
		<contour>
			<point x="453" y="942" type="curve" smooth="yes"/>
			<point x="561" y="942"/>
			<point x="612" y="882"/>
			<point x="612" y="792" type="curve" smooth="yes"/>
			<point x="612" y="309" type="line" smooth="yes"/>
			<point x="612" y="229"/>
			<point x="586" y="205"/>
			<point x="545" y="205" type="curve" smooth="yes"/>
			<point x="489" y="205"/>
			<point x="458" y="245"/>
			<point x="458" y="352" type="curve" smooth="yes"/>
			<point x="458" y="468"/>
			<point x="485" y="524"/>
			<point x="639" y="588" type="curve"/>
			<point x="648" y="645" type="line"/>
			<point x="117" y="491"/>
			<point x="43" y="407"/>
			<point x="43" y="244" type="curve" smooth="yes"/>
			<point x="43" y="83"/>
			<point x="140" y="-27"/>
			<point x="345" y="-27" type="curve" smooth="yes"/>
			<point x="511" y="-27"/>
			<point x="643" y="80"/>
			<point x="651" y="281" type="curve"/>
			<point x="627" y="263" type="line"/>
			<point x="720" y="43"/>
			<point x="878" y="-30"/>
			<point x="1133" y="-30" type="curve" smooth="yes"/>
			<point x="1332" y="-30"/>
			<point x="1473" y="63"/>
			<point x="1623" y="343" type="curve"/>
			<point x="1594" y="369" type="line"/>
			<point x="1491" y="272"/>
			<point x="1420" y="245"/>
			<point x="1313" y="245" type="curve" smooth="yes"/>
			<point x="1114" y="245"/>
			<point x="1016" y="357"/>
			<point x="1016" y="652" type="curve" smooth="yes"/>
			<point x="1016" y="923"/>
			<point x="1054" y="974"/>
			<point x="1129" y="974" type="curve" smooth="yes"/>
			<point x="1196" y="974"/>
			<point x="1225" y="910"/>
			<point x="1233" y="649" type="curve"/>
			<point x="1435" y="704" type="line"/>
			<point x="923" y="704" type="line"/>
			<point x="923" y="613" type="line"/>
			<point x="1609" y="613" type="line"/>
			<point x="1588" y="887"/>
			<point x="1443" y="1054"/>
			<point x="1165" y="1054" type="curve" smooth="yes"/>
			<point x="988" y="1054"/>
			<point x="859" y="967"/>
			<point x="765" y="850" type="curve"/>
			<point x="961" y="850" type="line"/>
			<point x="900" y="978"/>
			<point x="811.7678018576" y="1054"/>
			<point x="648" y="1054" type="curve" smooth="yes"/>
			<point x="340" y="1054"/>
			<point x="54" y="886"/>
			<point x="54" y="762" type="curve" smooth="yes"/>
			<point x="54" y="722"/>
			<point x="87" y="694"/>
			<point x="168" y="694" type="curve" smooth="yes"/>
			<point x="229" y="694"/>
			<point x="279" y="719"/>
			<point x="303" y="753" type="curve" smooth="yes"/>
			<point x="327" y="787"/>
			<point x="339" y="831"/>
			<point x="360" y="1004" type="curve"/>
			<point x="324" y="934" type="line"/>
			<point x="356" y="939"/>
			<point x="396" y="942"/>
		</contour>
	</outline>
	<anchor name="top" x="814" y="1024"/>
	<anchor name="bottom" x="814" y="0"/>
</glyph>
<glyph name="ccedilla" format="2">
	<unicode hex="00E7"/>
	<advance width="1067"/>
	<outline>
		<contour>
			<point x="649" y="1054" type="curve" smooth="yes"/>
			<point x="317" y="1054"/>
			<point x="45" y="813"/>
			<point x="45" y="492" type="curve" smooth="yes"/>
			<point x="45" y="168"/>
			<point x="248" y="-30"/>
			<point x="566" y="-30" type="curve" smooth="yes"/>
			<point x="763" y="-30"/>
			<point x="899" y="58"/>
			<point x="1046" y="333" type="curve"/>
			<point x="1017" y="359" type="line"/>
			<point x="915" y="267"/>
			<point x="850" y="245"/>
			<point x="736" y="245" type="curve" smooth="yes"/>
			<point x="553" y="245"/>
			<point x="449" y="362"/>
			<point x="449" y="696" type="curve" smooth="yes"/>
			<point x="449" y="921"/>
			<point x="497" y="980"/>
			<point x="570" y="980" type="curve" smooth="yes"/>
			<point x="694" y="980"/>
			<point x="854" y="715"/>
			<point x="894" y="715" type="curve" smooth="yes"/>
			<point x="962" y="715"/>
			<point x="1036" y="771"/>
			<point x="1036" y="853" type="curve" smooth="yes"/>
			<point x="1036" y="944"/>
			<point x="940" y="1054"/>
		</contour>
		<contour>
			<point x="500" y="-465" type="curve" smooth="yes"/>
			<point x="657" y="-465"/>
			<point x="805" y="-364"/>
			<point x="805" y="-239" type="curve" smooth="yes"/>
			<point x="805" y="-165"/>
			<point x="768" y="-102"/>
			<point x="560" y="-57" type="curve"/>
			<point x="515" y="-190" type="line"/>
			<point x="712" y="49" type="line"/>
			<point x="638" y="49" type="line"/>
			<point x="421" y="-224" type="line"/>
			<point x="421" y="-229" type="line"/>
			<point x="615" y="-260"/>
			<point x="647" y="-301"/>
			<point x="647" y="-339" type="curve" smooth="yes"/>
			<point x="647" y="-383"/>
			<point x="616" y="-408"/>
			<point x="565" y="-408" type="curve" smooth="yes"/>
			<point x="505" y="-408"/>
			<point x="428" y="-312"/>
			<point x="412" y="-312" type="curve" smooth="yes"/>
			<point x="374" y="-312"/>
			<point x="356" y="-344"/>
			<point x="356" y="-376" type="curve" smooth="yes"/>
			<point x="356" y="-426"/>
			<point x="395" y="-465"/>
		</contour>
	</outline>
</glyph>
<glyph name="eth" format="2">
	<unicode hex="00F0"/>
	<advance width="1220"/>
	<outline>
		<contour>
			<point x="592" y="-30" type="curve" smooth="yes"/>
			<point x="923" y="-30"/>
			<point x="1169" y="192"/>
			<point x="1169" y="611" type="curve" smooth="yes"/>
			<point x="1169" y="1000"/>
			<point x="989" y="1413"/>
			<point x="206" y="1495" type="curve"/>
			<point x="188" y="1441" type="line"/>
			<point x="723" y="1289"/>
			<point x="791" y="1092"/>
			<point x="770" y="677" type="curve"/>
			<point x="901" y="647" type="line"/>
			<point x="906" y="923"/>
			<point x="750" y="1012"/>
			<point x="584" y="1012" type="curve" smooth="yes"/>
			<point x="287" y="1012"/>
			<point x="46" y="798"/>
			<point x="46" y="485" type="curve" smooth="yes"/>
			<point x="46" y="180"/>
			<point x="260" y="-30"/>
		</contour>
		<contour>
			<point x="610" y="49" type="curve" smooth="yes"/>
			<point x="508" y="49"/>
			<point x="496" y="208"/>
			<point x="496" y="531" type="curve" smooth="yes"/>
			<point x="496" y="827"/>
			<point x="514" y="935"/>
			<point x="604" y="935" type="curve" smooth="yes"/>
			<point x="706" y="935"/>
			<point x="718" y="775"/>
			<point x="718" y="452" type="curve" smooth="yes"/>
			<point x="718" y="155"/>
			<point x="700" y="49"/>
		</contour>
		<contour>
			<point x="384" y="1088" type="line"/>
			<point x="892" y="1466" type="line"/>
			<point x="851" y="1519" type="line"/>
			<point x="343" y="1141" type="line"/>
		</contour>
	</outline>
</glyph>
<glyph name="divide" format="2">
	<unicode hex="00F7"/>
	<advance width="1150"/>
	<outline>
		<contour>
			<point x="575" y="280" type="curve" smooth="yes"/>
			<point x="501" y="280"/>
			<point x="448" y="223"/>
			<point x="448" y="154" type="curve" smooth="yes"/>
			<point x="448" y="85"/>
			<point x="501" y="29"/>
			<point x="575" y="29" type="curve" smooth="yes"/>
			<point x="649" y="29"/>
			<point x="702" y="85"/>
			<point x="702" y="154" type="curve" smooth="yes"/>
			<point x="702" y="223"/>
			<point x="649" y="280"/>
		</contour>
		<contour>
			<point x="575" y="995" type="curve" smooth="yes"/>
			<point x="501" y="995"/>
			<point x="448" y="939"/>
			<point x="448" y="870" type="curve" smooth="yes"/>
			<point x="448" y="801"/>
			<point x="501" y="744"/>
			<point x="575" y="744" type="curve" smooth="yes"/>
			<point x="649" y="744"/>
			<point x="702" y="801"/>
			<point x="702" y="870" type="curve" smooth="yes"/>
			<point x="702" y="939"/>
			<point x="649" y="995"/>
		</contour>
		<contour>
			<point x="164" y="560" type="line"/>
			<point x="164" y="464" type="line"/>
			<point x="986" y="464" type="line"/>
			<point x="986" y="560" type="line"/>
		</contour>
	</outline>
</glyph>
<glyph name="oslash" format="2">
	<unicode hex="00F8"/>
	<advance width="1239"/>
	<outline>
		<contour>
			<point x="28" y="0" type="line"/>
			<point x="148" y="0" type="line"/>
			<point x="280" y="134" type="line"/>
			<point x="374" y="180" type="line"/>
			<point x="921" y="779" type="line"/>
			<point x="1005" y="814" type="line"/>
			<point x="1211" y="1024" type="line"/>
			<point x="1091" y="1024" type="line"/>
			<point x="959" y="890" type="line"/>
			<point x="865" y="844" type="line"/>
			<point x="318" y="245" type="line"/>
			<point x="234" y="210" type="line"/>
		</contour>
		<contour>
			<point x="622" y="49" type="curve" smooth="yes"/>
			<point x="520" y="49"/>
			<point x="508" y="217"/>
			<point x="508" y="553" type="curve" smooth="yes"/>
			<point x="508" y="861"/>
			<point x="526" y="974"/>
			<point x="616" y="974" type="curve" smooth="yes"/>
			<point x="718" y="974"/>
			<point x="730" y="807"/>
			<point x="730" y="471" type="curve" smooth="yes"/>
			<point x="730" y="162"/>
			<point x="712" y="49"/>
		</contour>
		<contour>
			<point x="604" y="-30" type="curve" smooth="yes"/>
			<point x="935" y="-30"/>
			<point x="1181" y="192"/>
			<point x="1181" y="518" type="curve" smooth="yes"/>
			<point x="1181" y="836"/>
			<point x="972" y="1054"/>
			<point x="634" y="1054" type="curve" smooth="yes"/>
			<point x="299" y="1054"/>
			<point x="58" y="831"/>
			<point x="58" y="506" type="curve" smooth="yes"/>
			<point x="58" y="188"/>
			<point x="272" y="-30"/>
		</contour>
	</outline>
	<anchor name="top" x="620" y="1024"/>
	<anchor name="bottom" x="620" y="0"/>
</glyph>
<glyph name="thorn" format="2">
	<unicode hex="00FE"/>
	<advance width="1288"/>
	<outline>
		<contour>
			<point x="106" y="1169" type="curve"/>
			<point x="106" y="-367" type="line"/>
			<point x="20" y="-402" type="line"/>
			<point x="20" y="-435" type="line"/>
			<point x="650" y="-435" type="line"/>
			<point x="650" y="-402" type="line"/>
			<point x="544" y="-367" type="line"/>
			<point x="544" y="47" type="line"/>
			<point x="308" y="47" type="line"/>
			<point x="419" y="-8"/>
			<point x="536" y="-30"/>
			<point x="659" y="-30" type="curve" smooth="yes"/>
			<point x="988" y="-30"/>
			<point x="1237" y="183"/>
			<point x="1237" y="587" type="curve" smooth="yes"/>
			<point x="1237" y="894"/>
			<point x="1114" y="1054"/>
			<point x="874" y="1054" type="curve" smooth="yes"/>
			<point x="746" y="1054"/>
			<point x="678" y="1026"/>
			<point x="491" y="836" type="curve"/>
			<point x="491" y="799" type="line"/>
			<point x="523" y="821"/>
			<point x="566" y="843"/>
			<point x="623" y="843" type="curve" smooth="yes"/>
			<point x="748" y="843"/>
			<point x="787" y="757"/>
			<point x="787" y="491" type="curve" smooth="yes"/>
			<point x="787" y="140"/>
			<point x="733" y="43"/>
			<point x="643" y="43" type="curve" smooth="yes"/>
			<point x="574" y="43"/>
			<point x="544" y="93"/>
			<point x="544" y="186" type="curve" smooth="yes"/>
			<point x="544" y="1276" type="line"/>
			<point x="544" y="1494" type="line"/>
			<point x="517" y="1494" type="line"/>
			<point x="-56" y="1367" type="line"/>
			<point x="-56" y="1334" type="line"/>
			<point x="22" y="1254.5555555556"/>
			<point x="80" y="1195.4814814815"/>
		</contour>
	</outline>
</glyph>
<glyph name="aogonek" format="2">
  <advance width="1192"/>
  <unicode hex="0105"/>
  <outline>
    <contour>
      <point x="1188.0" y="91.0" type="line"/>
      <point x="1188.0" y="153.0" type="line"/>
      <point x="1161.0" y="143.0"/>
      <point x="1135.0" y="138.0"/>
      <point x="1109.0" y="138.0" type="curve" smooth="yes"/>
      <point x="1070.0" y="138.0"/>
      <point x="1050.0" y="157.0"/>
      <point x="1050.0" y="200.0" type="curve" smooth="yes"/>
      <point x="1050.0" y="708.0" type="line" smooth="yes"/>
      <point x="1050.0" y="922.0"/>
      <point x="942.0" y="1054.0"/>
      <point x="648.0" y="1054.0" type="curve" smooth="yes"/>
      <point x="340.0" y="1054.0"/>
      <point x="54.0" y="886.0"/>
      <point x="54.0" y="762.0" type="curve" smooth="yes"/>
      <point x="54.0" y="722.0"/>
      <point x="87.0" y="694.0"/>
      <point x="168.0" y="694.0" type="curve" smooth="yes"/>
      <point x="229.0" y="694.0"/>
      <point x="279.0" y="719.0"/>
      <point x="303.0" y="753.0" type="curve" smooth="yes"/>
      <point x="325.0" y="784.0"/>
      <point x="337.0" y="823.0"/>
      <point x="355.0" y="960.0" type="curve"/>
      <point x="324.0" y="934.0" type="line"/>
      <point x="356.0" y="939.0"/>
      <point x="396.0" y="942.0"/>
      <point x="453.0" y="942.0" type="curve" smooth="yes"/>
      <point x="561.0" y="942.0"/>
      <point x="612.0" y="882.0"/>
      <point x="612.0" y="792.0" type="curve" smooth="yes"/>
      <point x="612.0" y="309.0" type="line" smooth="yes"/>
      <point x="612.0" y="229.0"/>
      <point x="586.0" y="205.0"/>
      <point x="545.0" y="205.0" type="curve" smooth="yes"/>
      <point x="489.0" y="205.0"/>
      <point x="458.0" y="243.0"/>
      <point x="458.0" y="349.0" type="curve" smooth="yes"/>
      <point x="458.0" y="464.0"/>
      <point x="485.0" y="519.0"/>
      <point x="639.0" y="583.0" type="curve"/>
      <point x="648.0" y="639.0" type="line"/>
      <point x="117.0" y="487.0"/>
      <point x="43.0" y="403.0"/>
      <point x="43.0" y="242.0" type="curve" smooth="yes"/>
      <point x="43.0" y="82.0"/>
      <point x="140.0" y="-27.0"/>
      <point x="349.0" y="-27.0" type="curve" smooth="yes"/>
      <point x="491.0" y="-27.0"/>
      <point x="590.0" y="53.0"/>
      <point x="634.0" y="255.0" type="curve"/>
      <point x="615.0" y="270.0" type="line"/>
      <point x="620.0" y="54.0"/>
      <point x="687.0" y="-30.0"/>
      <point x="861.0" y="-30.0" type="curve" smooth="yes"/>
      <point x="966.0" y="-30.0"/>
      <point x="1043.0" y="-8.0"/>
      <point x="1122.0" y="43.0" type="curve"/>
      <point x="1115.0" y="56.0" type="line"/>
      <point x="1001.0" y="-47.0" type="line" smooth="yes"/>
      <point x="835.0" y="-197.0"/>
      <point x="809.0" y="-252.0"/>
      <point x="809.0" y="-321.0" type="curve" smooth="yes"/>
      <point x="809.0" y="-401.0"/>
      <point x="856.0" y="-465.0"/>
      <point x="974.0" y="-465.0" type="curve" smooth="yes"/>
      <point x="1049.0" y="-465.0"/>
      <point x="1109.0" y="-435.0"/>
      <point x="1217.0" y="-307.0" type="curve"/>
      <point x="1202.0" y="-282.0" type="line"/>
      <point x="1139.0" y="-329.0"/>
      <point x="1103.0" y="-332.0"/>
      <point x="1074.0" y="-332.0" type="curve" smooth="yes"/>
      <point x="1011.0" y="-332.0"/>
      <point x="973.0" y="-300.0"/>
      <point x="973.0" y="-248.0" type="curve" smooth="yes"/>
      <point x="973.0" y="-203.0"/>
      <point x="986.0" y="-149.0"/>
      <point x="1094.0" y="-21.0" type="curve" smooth="yes"/>
    </contour>
  </outline>
</glyph>
<glyph name="Dcroat" format="2">
	<unicode hex="0110"/>
	<advance width="1688"/>
	<outline>
		<contour>
			<point x="54" y="702" type="line"/>
			<point x="922" y="702" type="line"/>
			<point x="922" y="796" type="line"/>
			<point x="54" y="796" type="line"/>
		</contour>
		<contour>
			<point x="1107" y="725" type="curve" smooth="yes"/>
			<point x="1107" y="275"/>
			<point x="994" y="100"/>
			<point x="777" y="100" type="curve" smooth="yes"/>
			<point x="480" y="100" type="line"/>
			<point x="439" y="0" type="line"/>
			<point x="824" y="0" type="line" smooth="yes"/>
			<point x="1279" y="0"/>
			<point x="1623" y="253"/>
			<point x="1623" y="748" type="curve" smooth="yes"/>
			<point x="1623" y="1182"/>
			<point x="1328" y="1430"/>
			<point x="810" y="1430" type="curve" smooth="yes"/>
			<point x="439" y="1430" type="line"/>
			<point x="480" y="1330" type="line"/>
			<point x="750" y="1330" type="line" smooth="yes"/>
			<point x="995" y="1330"/>
			<point x="1107" y="1142"/>
		</contour>
		<contour>
			<point x="54" y="0" type="line"/>
			<point x="705" y="0" type="line"/>
			<point x="705" y="1430" type="line"/>
			<point x="54" y="1430" type="line"/>
			<point x="54" y="1391" type="line"/>
			<point x="197" y="1345" type="line"/>
			<point x="197" y="86" type="line"/>
			<point x="54" y="38" type="line"/>
		</contour>
	</outline>
</glyph>
<glyph name="Eogonek" format="2">
	<unicode hex="0118"/>
	<advance width="1531"/>
	<outline>
		<contour>
			<point x="1097" y="1079" type="line"/>
			<point x="1065" y="1079" type="line"/>
			<point x="926" y="810" type="line"/>
			<point x="606" y="785" type="line"/>
			<point x="606" y="709" type="line"/>
			<point x="926" y="686" type="line"/>
			<point x="1065" y="415" type="line"/>
			<point x="1097" y="415" type="line"/>
			<point x="1043" y="746" type="line"/>
		</contour>
		<contour>
			<point x="1436" y="971" type="line"/>
			<point x="1332" y="1519" type="line"/>
			<point x="1311" y="1519" type="line"/>
			<point x="1160" y="1430" type="line"/>
			<point x="432" y="1430" type="line"/>
			<point x="432" y="1330" type="line"/>
			<point x="1285" y="1330" type="line"/>
			<point x="1115" y="1387" type="line"/>
			<point x="1397" y="959" type="line"/>
		</contour>
		<contour>
			<point x="1172" y="54" type="line"/>
			<point x="1317" y="100" type="line"/>
			<point x="432" y="100" type="line"/>
			<point x="432" y="0" type="line"/>
			<point x="1216" y="0" type="line"/>
			<point x="1355" y="-83" type="line"/>
			<point x="1385" y="-83" type="line"/>
			<point x="1515" y="492" type="line"/>
			<point x="1470" y="503" type="line"/>
		</contour>
		<contour>
			<point x="47" y="0" type="line"/>
			<point x="698" y="0" type="line"/>
			<point x="698" y="1430" type="line"/>
			<point x="47" y="1430" type="line"/>
			<point x="47" y="1391" type="line"/>
			<point x="190" y="1345" type="line"/>
			<point x="190" y="86" type="line"/>
			<point x="47" y="38" type="line"/>
		</contour>
		<contour>
			<point x="1197" y="-24" type="curve" smooth="yes"/>
			<point x="1253" y="97" type="line"/>
			<point x="1220" y="97" type="line"/>
			<point x="1105" y="-53" type="line" smooth="yes"/>
			<point x="995" y="-196"/>
			<point x="981" y="-258"/>
			<point x="981" y="-317" type="curve" smooth="yes"/>
			<point x="981" y="-416"/>
			<point x="1065" y="-465"/>
			<point x="1159" y="-465" type="curve" smooth="yes"/>
			<point x="1234" y="-465"/>
			<point x="1284" y="-435"/>
			<point x="1392" y="-307" type="curve"/>
			<point x="1377" y="-282" type="line"/>
			<point x="1314" y="-329"/>
			<point x="1278" y="-332"/>
			<point x="1249" y="-332" type="curve" smooth="yes"/>
			<point x="1184" y="-332"/>
			<point x="1134" y="-298"/>
			<point x="1135" y="-230" type="curve" smooth="yes"/>
			<point x="1136" y="-175"/>
			<point x="1150" y="-125"/>
		</contour>
	</outline>
</glyph>
<glyph name="eogonek" format="2">
	<unicode hex="0119"/>
	<advance width="1089"/>
	<outline>
		<contour>
			<point x="1058" y="343" type="line"/>
			<point x="1029" y="369" type="line"/>
			<point x="926" y="272"/>
			<point x="855" y="245"/>
			<point x="748" y="245" type="curve" smooth="yes"/>
			<point x="549" y="245"/>
			<point x="451" y="357"/>
			<point x="451" y="652" type="curve" smooth="yes"/>
			<point x="451" y="923"/>
			<point x="489" y="974"/>
			<point x="564" y="974" type="curve" smooth="yes"/>
			<point x="631" y="974"/>
			<point x="660" y="910"/>
			<point x="668" y="649" type="curve"/>
			<point x="870" y="704" type="line"/>
			<point x="358" y="704" type="line"/>
			<point x="358" y="613" type="line"/>
			<point x="1044" y="613" type="line"/>
			<point x="1023" y="887"/>
			<point x="878" y="1054"/>
			<point x="600" y="1054" type="curve" smooth="yes"/>
			<point x="233" y="1054"/>
			<point x="47" y="790"/>
			<point x="47" y="490" type="curve" smooth="yes"/>
			<point x="47" y="167"/>
			<point x="250" y="-30"/>
			<point x="568" y="-30" type="curve" smooth="yes"/>
			<point x="717" y="-30"/>
			<point x="834" y="22"/>
			<point x="947" y="167" type="curve"/>
			<point x="933" y="185" type="line"/>
			<point x="899" y="132" type="line" smooth="yes"/>
			<point x="758" y="-88"/>
			<point x="659" y="-191"/>
			<point x="659" y="-308" type="curve" smooth="yes"/>
			<point x="659" y="-403"/>
			<point x="726" y="-465"/>
			<point x="844" y="-465" type="curve" smooth="yes"/>
			<point x="919" y="-465"/>
			<point x="979" y="-435"/>
			<point x="1087" y="-307" type="curve"/>
			<point x="1072" y="-282" type="line"/>
			<point x="1019" y="-322"/>
			<point x="987" y="-332"/>
			<point x="944" y="-332" type="curve" smooth="yes"/>
			<point x="871" y="-332"/>
			<point x="823" y="-298"/>
			<point x="823" y="-217" type="curve" smooth="yes"/>
			<point x="823" y="-148"/>
			<point x="858" y="-32"/>
			<point x="974" y="185" type="curve" smooth="yes"/>
		</contour>
	</outline>
</glyph>
<glyph name="Hbar" format="2">
	<unicode hex="0126"/>
	<advance width="1856"/>
	<outline>
		<contour>
			<point x="700" y="86" type="line"/>
			<point x="700" y="1345" type="line"/>
			<point x="843" y="1391" type="line"/>
			<point x="843" y="1430" type="line"/>
			<point x="49" y="1430" type="line"/>
			<point x="49" y="1391" type="line"/>
			<point x="192" y="1345" type="line"/>
			<point x="192" y="86" type="line"/>
			<point x="49" y="38" type="line"/>
			<point x="49" y="0" type="line"/>
			<point x="843" y="0" type="line"/>
			<point x="843" y="38" type="line"/>
		</contour>
		<contour>
			<point x="1664" y="86" type="line"/>
			<point x="1664" y="1345" type="line"/>
			<point x="1807" y="1391" type="line"/>
			<point x="1807" y="1430" type="line"/>
			<point x="1013" y="1430" type="line"/>
			<point x="1013" y="1391" type="line"/>
			<point x="1156" y="1345" type="line"/>
			<point x="1156" y="86" type="line"/>
			<point x="1013" y="38" type="line"/>
			<point x="1013" y="0" type="line"/>
			<point x="1807" y="0" type="line"/>
			<point x="1807" y="38" type="line"/>
		</contour>
		<contour>
			<point x="49" y="1042" type="line"/>
			<point x="1807" y="1042" type="line"/>
			<point x="1807" y="1136" type="line"/>
			<point x="49" y="1136" type="line"/>
		</contour>
		<contour>
			<point x="434" y="692" type="line"/>
			<point x="1419" y="692" type="line"/>
			<point x="1419" y="792" type="line"/>
			<point x="434" y="792" type="line"/>
		</contour>
	</outline>
</glyph>
<glyph name="hbar" format="2">
	<unicode hex="0127"/>
	<advance width="1340"/>
	<outline>
		<contour>
			<point x="712" y="33" type="line"/>
			<point x="712" y="0" type="line"/>
			<point x="1310" y="0" type="line"/>
			<point x="1310" y="33" type="line"/>
			<point x="1225" y="68" type="line"/>
			<point x="1225" y="757" type="line" smooth="yes"/>
			<point x="1225" y="937"/>
			<point x="1122" y="1044"/>
			<point x="943" y="1044" type="curve" smooth="yes"/>
			<point x="783" y="1044"/>
			<point x="722" y="1017"/>
			<point x="518" y="756" type="curve"/>
			<point x="518" y="739" type="line"/>
			<point x="586" y="771"/>
			<point x="629" y="781"/>
			<point x="673" y="781" type="curve" smooth="yes"/>
			<point x="750" y="781"/>
			<point x="787" y="753"/>
			<point x="787" y="658" type="curve" smooth="yes"/>
			<point x="787" y="65" type="line"/>
		</contour>
		<contour>
			<point x="637" y="0" type="line"/>
			<point x="637" y="33" type="line"/>
			<point x="562" y="65" type="line"/>
			<point x="562" y="1276" type="line"/>
			<point x="562" y="1494" type="line"/>
			<point x="535" y="1494" type="line"/>
			<point x="-38" y="1356" type="line"/>
			<point x="-38" y="1323" type="line"/>
			<point x="40" y="1233.9259259259"/>
			<point x="98" y="1167.6913580247"/>
			<point x="124" y="1138" type="curve"/>
			<point x="124" y="68" type="line"/>
			<point x="38" y="33" type="line"/>
			<point x="38" y="0" type="line"/>
		</contour>
		<contour>
			<point x="-38" y="1104" type="line"/>
			<point x="816" y="1104" type="line"/>
			<point x="816" y="1186" type="line"/>
			<point x="-38" y="1186" type="line"/>
		</contour>
	</outline>
</glyph>
<glyph name="Iogonek" format="2">
	<unicode hex="012E"/>
	<advance width="888"/>
	<outline>
		<contour>
			<point x="841" y="38" type="line"/>
			<point x="698" y="86" type="line"/>
			<point x="698" y="1345" type="line"/>
			<point x="841" y="1391" type="line"/>
			<point x="841" y="1430" type="line"/>
			<point x="47" y="1430" type="line"/>
			<point x="47" y="1391" type="line"/>
			<point x="190" y="1345" type="line"/>
			<point x="190" y="86" type="line"/>
			<point x="47" y="38" type="line"/>
			<point x="47" y="0" type="line"/>
			<point x="841" y="0" type="line"/>
		</contour>
		<contour>
			<point x="477" y="-20" type="curve" smooth="yes"/>
			<point x="539" y="97" type="line"/>
			<point x="506" y="97" type="line"/>
			<point x="392" y="-43" type="line" smooth="yes"/>
			<point x="269" y="-193"/>
			<point x="235" y="-254"/>
			<point x="235" y="-321" type="curve" smooth="yes"/>
			<point x="235" y="-401"/>
			<point x="282" y="-465"/>
			<point x="400" y="-465" type="curve" smooth="yes"/>
			<point x="475" y="-465"/>
			<point x="535" y="-435"/>
			<point x="643" y="-307" type="curve"/>
			<point x="628" y="-282" type="line"/>
			<point x="565" y="-329"/>
			<point x="529" y="-332"/>
			<point x="500" y="-332" type="curve" smooth="yes"/>
			<point x="437" y="-332"/>
			<point x="399" y="-300"/>
			<point x="399" y="-248" type="curve" smooth="yes"/>
			<point x="399" y="-203"/>
			<point x="406" y="-155"/>
		</contour>
	</outline>
</glyph>
<glyph name="iogonek" format="2">
	<unicode hex="012F"/>
	<advance width="695"/>
	<outline>
		<contour>
			<point x="352" y="1122" type="curve" smooth="yes"/>
			<point x="474" y="1122"/>
			<point x="547" y="1209"/>
			<point x="547" y="1312" type="curve" smooth="yes"/>
			<point x="547" y="1411"/>
			<point x="474" y="1490"/>
			<point x="352" y="1490" type="curve" smooth="yes"/>
			<point x="231" y="1490"/>
			<point x="155" y="1411"/>
			<point x="155" y="1312" type="curve" smooth="yes"/>
			<point x="155" y="1209"/>
			<point x="231" y="1122"/>
		</contour>
		<contour>
			<point x="580" y="1054" type="line"/>
			<point x="553" y="1054" type="line"/>
			<point x="30" y="916" type="line"/>
			<point x="30" y="883" type="line"/>
			<point x="91" y="804.0267857143"/>
			<point x="120" y="766.4821428571"/>
			<point x="142" y="738" type="curve"/>
			<point x="142" y="68" type="line"/>
			<point x="56" y="33" type="line"/>
			<point x="56" y="0" type="line"/>
			<point x="655" y="0" type="line"/>
			<point x="655" y="33" type="line"/>
			<point x="580" y="65" type="line"/>
			<point x="580" y="836" type="line"/>
		</contour>
		<contour>
			<point x="387" y="-20" type="curve" smooth="yes"/>
			<point x="449" y="97" type="line"/>
			<point x="416" y="97" type="line"/>
			<point x="302" y="-43" type="line" smooth="yes"/>
			<point x="179" y="-193"/>
			<point x="145" y="-254"/>
			<point x="145" y="-321" type="curve" smooth="yes"/>
			<point x="145" y="-401"/>
			<point x="192" y="-465"/>
			<point x="310" y="-465" type="curve" smooth="yes"/>
			<point x="385" y="-465"/>
			<point x="445" y="-435"/>
			<point x="553" y="-307" type="curve"/>
			<point x="538" y="-282" type="line"/>
			<point x="475" y="-329"/>
			<point x="439" y="-332"/>
			<point x="410" y="-332" type="curve" smooth="yes"/>
			<point x="347" y="-332"/>
			<point x="309" y="-300"/>
			<point x="309" y="-248" type="curve" smooth="yes"/>
			<point x="309" y="-203"/>
			<point x="316" y="-155"/>
		</contour>
	</outline>
</glyph>
<glyph name="dotlessi" format="2">
	<unicode hex="0131"/>
	<advance width="695"/>
	<outline>
		<contour>
			<point x="580" y="1054" type="line"/>
			<point x="553" y="1054" type="line"/>
			<point x="30" y="916" type="line"/>
			<point x="30" y="883" type="line"/>
			<point x="91" y="804.0267857143"/>
			<point x="118" y="768"/>
			<point x="142" y="738" type="curve"/>
			<point x="142" y="68" type="line"/>
			<point x="56" y="33" type="line"/>
			<point x="56" y="0" type="line"/>
			<point x="655" y="0" type="line"/>
			<point x="655" y="33" type="line"/>
			<point x="580" y="65" type="line"/>
			<point x="580" y="836" type="line"/>
		</contour>
	</outline>
	<anchor name="top" x="351" y="1024"/>
	<anchor name="right" x="512" y="0"/>
	<anchor name="bottom" x="332" y="0"/>
</glyph>
<glyph name="kgreenlandic" format="2">
	<unicode hex="0138"/>
	<advance width="1348"/>
	<outline>
		<contour>
			<point x="601" y="455" type="line"/>
			<point x="821" y="61" type="line"/>
			<point x="756" y="33" type="line"/>
			<point x="756" y="0" type="line"/>
			<point x="1385" y="0" type="line"/>
			<point x="1385" y="33" type="line"/>
			<point x="1307" y="69" type="line"/>
			<point x="898" y="744" type="line"/>
			<point x="697" y="560" type="line"/>
			<point x="1151" y="950" type="line"/>
			<point x="1329" y="991" type="line"/>
			<point x="1329" y="1024" type="line"/>
			<point x="867" y="1024" type="line"/>
			<point x="867" y="991" type="line"/>
			<point x="1030" y="951" type="line"/>
			<point x="602" y="528" type="line"/>
			<point x="474" y="528" type="line"/>
			<point x="474" y="455" type="line"/>
		</contour>
		<contour>
			<point x="579" y="1054" type="line"/>
			<point x="552" y="1054" type="line"/>
			<point x="29" y="916" type="line"/>
			<point x="29" y="883" type="line"/>
			<point x="90" y="804.0267857143"/>
			<point x="119" y="766.4821428571"/>
			<point x="141" y="738" type="curve"/>
			<point x="141" y="68" type="line"/>
			<point x="55" y="33" type="line"/>
			<point x="55" y="0" type="line"/>
			<point x="654" y="0" type="line"/>
			<point x="654" y="33" type="line"/>
			<point x="579" y="65" type="line"/>
			<point x="579" y="836" type="line"/>
		</contour>
	</outline>
</glyph>
<glyph name="Lslash" format="2">
	<unicode hex="0141"/>
	<advance width="1454"/>
	<outline>
		<contour>
			<point x="342" y="612" type="line"/>
			<point x="571" y="668" type="line"/>
			<point x="994" y="909" type="line"/>
			<point x="994" y="1018" type="line"/>
			<point x="571" y="777" type="line"/>
			<point x="342" y="721" type="line"/>
			<point x="71" y="567" type="line"/>
			<point x="71" y="458" type="line"/>
		</contour>
		<contour>
			<point x="1319" y="-83" type="line"/>
			<point x="1449" y="492" type="line"/>
			<point x="1404" y="503" type="line"/>
			<point x="1086" y="54" type="line"/>
			<point x="1251" y="100" type="line"/>
			<point x="456" y="100" type="line"/>
			<point x="456" y="0" type="line"/>
			<point x="1130" y="0" type="line"/>
			<point x="1289" y="-83" type="line"/>
		</contour>
		<contour>
			<point x="722" y="1345" type="line"/>
			<point x="865" y="1391" type="line"/>
			<point x="865" y="1430" type="line"/>
			<point x="71" y="1430" type="line"/>
			<point x="71" y="1391" type="line"/>
			<point x="214" y="1345" type="line"/>
			<point x="214" y="86" type="line"/>
			<point x="71" y="38" type="line"/>
			<point x="71" y="0" type="line"/>
			<point x="722" y="0" type="line"/>
		</contour>
	</outline>
</glyph>
<glyph name="lslash" format="2">
  <advance width="752"/>
  <unicode hex="0142"/>
  <outline>
    <contour>
      <point x="307.0" y="671.0" type="line"/>
      <point x="397.0" y="660.0" type="line"/>
      <point x="726.0" y="930.0" type="line"/>
      <point x="726.0" y="1054.0" type="line"/>
      <point x="397.0" y="784.0" type="line"/>
      <point x="307.0" y="795.0" type="line"/>
      <point x="34.0" y="568.0" type="line"/>
      <point x="34.0" y="444.0" type="line"/>
    </contour>
    <contour>
      <point x="591.0" y="68.0" type="line"/>
      <point x="591.0" y="1276.0" type="line"/>
      <point x="591.0" y="1494.0" type="line"/>
      <point x="564.0" y="1494.0" type="line"/>
      <point x="-9.0" y="1367.0" type="line"/>
      <point x="-9.0" y="1334.0" type="line"/>
      <point x="69.0" y="1254.5555555555557"/>
      <point x="127.0" y="1195.4814814814815"/>
      <point x="153.0" y="1169.0" type="curve"/>
      <point x="153.0" y="68.0" type="line"/>
      <point x="67.0" y="33.0" type="line"/>
      <point x="67.0" y="0.0" type="line"/>
      <point x="677.0" y="0.0" type="line"/>
      <point x="677.0" y="33.0" type="line"/>
    </contour>
  </outline>
</glyph>
<glyph name="Eng" format="2">
	<unicode hex="014A"/>
	<advance width="1521"/>
	<outline>
		<contour>
			<point x="1284" y="700" type="line"/>
			<point x="724" y="1430" type="line"/>
			<point x="5" y="1430" type="line"/>
			<point x="5" y="1400" type="line"/>
			<point x="203" y="1314" type="line"/>
			<point x="203" y="84" type="line"/>
			<point x="50" y="38" type="line"/>
			<point x="50" y="0" type="line"/>
			<point x="433" y="0" type="line"/>
			<point x="433" y="38" type="line"/>
			<point x="276" y="84" type="line"/>
			<point x="276" y="1309" type="line"/>
			<point x="242" y="1321" type="line"/>
			<point x="1284" y="-46" type="line"/>
		</contour>
		<contour>
			<point x="1340" y="23" type="curve" smooth="yes"/>
			<point x="1340" y="1345" type="line"/>
			<point x="1493" y="1391" type="line"/>
			<point x="1493" y="1430" type="line"/>
			<point x="1110" y="1430" type="line"/>
			<point x="1110" y="1391" type="line"/>
			<point x="1267" y="1345" type="line"/>
			<point x="1267" y="47" type="line" smooth="yes"/>
			<point x="1267" y="-208"/>
			<point x="1183" y="-290"/>
			<point x="1087" y="-290" type="curve" smooth="yes"/>
			<point x="986" y="-290"/>
			<point x="913" y="-202"/>
			<point x="885" y="-202" type="curve" smooth="yes"/>
			<point x="820" y="-202"/>
			<point x="767" y="-255"/>
			<point x="767" y="-330" type="curve" smooth="yes"/>
			<point x="767" y="-411"/>
			<point x="833" y="-465"/>
			<point x="951" y="-465" type="curve" smooth="yes"/>
			<point x="1171" y="-465"/>
			<point x="1340" y="-319"/>
		</contour>
	</outline>
</glyph>
<glyph name="eng" format="2">
	<unicode hex="014B"/>
	<advance width="1336"/>
	<outline>
		<contour>
			<point x="579" y="787" type="line"/>
			<point x="579" y="1054" type="line"/>
			<point x="552" y="1054" type="line"/>
			<point x="29" y="916" type="line"/>
			<point x="29" y="883" type="line"/>
			<point x="71" y="830"/>
			<point x="118" y="769"/>
			<point x="141" y="738" type="curve"/>
			<point x="141" y="68" type="line"/>
			<point x="55" y="33" type="line"/>
			<point x="55" y="0" type="line"/>
			<point x="654" y="0" type="line"/>
			<point x="654" y="33" type="line"/>
			<point x="579" y="65" type="line"/>
		</contour>
		<contour>
			<point x="804" y="-105" type="line" smooth="yes"/>
			<point x="804" y="-236"/>
			<point x="792" y="-280"/>
			<point x="681" y="-430" type="curve"/>
			<point x="700" y="-455" type="line"/>
			<point x="1189" y="-143"/>
			<point x="1242" y="-76"/>
			<point x="1242" y="153" type="curve" smooth="yes"/>
			<point x="1242" y="757" type="line" smooth="yes"/>
			<point x="1242" y="937"/>
			<point x="1139" y="1044"/>
			<point x="960" y="1044" type="curve" smooth="yes"/>
			<point x="800" y="1044"/>
			<point x="739" y="1017"/>
			<point x="535" y="756" type="curve"/>
			<point x="535" y="739" type="line"/>
			<point x="603" y="771"/>
			<point x="646" y="781"/>
			<point x="690" y="781" type="curve" smooth="yes"/>
			<point x="767" y="781"/>
			<point x="804" y="753"/>
			<point x="804" y="658" type="curve" smooth="yes"/>
		</contour>
	</outline>
</glyph>
<glyph name="OE" format="2">
	<unicode hex="0152"/>
	<advance width="2452"/>
	<outline>
		<contour>
			<point x="2018" y="1079" type="line"/>
			<point x="1986" y="1079" type="line"/>
			<point x="1847" y="810" type="line"/>
			<point x="1527" y="785" type="line"/>
			<point x="1527" y="709" type="line"/>
			<point x="1847" y="686" type="line"/>
			<point x="1986" y="415" type="line"/>
			<point x="2018" y="415" type="line"/>
			<point x="1964" y="746" type="line"/>
		</contour>
		<contour>
			<point x="1111" y="1430" type="line"/>
			<point x="1111" y="0" type="line"/>
			<point x="1619" y="0" type="line"/>
			<point x="1619" y="1430" type="line"/>
		</contour>
		<contour>
			<point x="936" y="0" type="curve" smooth="yes"/>
			<point x="2137" y="0" type="line"/>
			<point x="2276" y="-83" type="line"/>
			<point x="2306" y="-83" type="line"/>
			<point x="2436" y="492" type="line"/>
			<point x="2391" y="503" type="line"/>
			<point x="2093" y="54" type="line"/>
			<point x="2238" y="100" type="line"/>
			<point x="996" y="100" type="line" smooth="yes"/>
			<point x="751" y="100"/>
			<point x="579" y="288"/>
			<point x="579" y="705" type="curve" smooth="yes"/>
			<point x="579" y="1155"/>
			<point x="752" y="1330"/>
			<point x="969" y="1330" type="curve" smooth="yes"/>
			<point x="2206" y="1330" type="line"/>
			<point x="2036" y="1387" type="line"/>
			<point x="2318" y="959" type="line"/>
			<point x="2357" y="971" type="line"/>
			<point x="2253" y="1519" type="line"/>
			<point x="2232" y="1519" type="line"/>
			<point x="2081" y="1430" type="line"/>
			<point x="922" y="1430" type="line" smooth="yes"/>
			<point x="467" y="1430"/>
			<point x="63" y="1177"/>
			<point x="63" y="682" type="curve" smooth="yes"/>
			<point x="63" y="248"/>
			<point x="418" y="0"/>
		</contour>
	</outline>
</glyph>
<glyph name="oe" format="2">
	<unicode hex="0153"/>
	<advance width="1800"/>
	<outline>
		<contour>
			<point x="610" y="49" type="curve" smooth="yes"/>
			<point x="508" y="49"/>
			<point x="496" y="217"/>
			<point x="496" y="553" type="curve" smooth="yes"/>
			<point x="496" y="861"/>
			<point x="514" y="974"/>
			<point x="604" y="974" type="curve" smooth="yes"/>
			<point x="706" y="974"/>
			<point x="718" y="807"/>
			<point x="718" y="471" type="curve" smooth="yes"/>
			<point x="718" y="162"/>
			<point x="700" y="49"/>
		</contour>
		<contour>
			<point x="1023" y="180" type="curve"/>
			<point x="873" y="180" type="line"/>
			<point x="963" y="41"/>
			<point x="1104" y="-30"/>
			<point x="1281" y="-30" type="curve" smooth="yes"/>
			<point x="1480" y="-30"/>
			<point x="1621" y="63"/>
			<point x="1771" y="343" type="curve"/>
			<point x="1742" y="369" type="line"/>
			<point x="1639" y="272"/>
			<point x="1568" y="245"/>
			<point x="1461" y="245" type="curve" smooth="yes"/>
			<point x="1262" y="245"/>
			<point x="1164" y="357"/>
			<point x="1164" y="652" type="curve" smooth="yes"/>
			<point x="1164" y="923"/>
			<point x="1202" y="974"/>
			<point x="1277" y="974" type="curve" smooth="yes"/>
			<point x="1344" y="974"/>
			<point x="1373" y="910"/>
			<point x="1381" y="649" type="curve"/>
			<point x="1583" y="704" type="line"/>
			<point x="1071" y="704" type="line"/>
			<point x="1071" y="613" type="line"/>
			<point x="1757" y="613" type="line"/>
			<point x="1736" y="887"/>
			<point x="1591" y="1054"/>
			<point x="1313" y="1054" type="curve" smooth="yes"/>
			<point x="1109" y="1054"/>
			<point x="951" y="953"/>
			<point x="860" y="799" type="curve"/>
			<point x="1060" y="799" type="line"/>
			<point x="967" y="957"/>
			<point x="822" y="1054"/>
			<point x="622" y="1054" type="curve" smooth="yes"/>
			<point x="287" y="1054"/>
			<point x="46" y="831"/>
			<point x="46" y="506" type="curve" smooth="yes"/>
			<point x="46" y="188"/>
			<point x="260" y="-30"/>
			<point x="592" y="-30" type="curve" smooth="yes"/>
			<point x="768" y="-30"/>
			<point x="920" y="43"/>
		</contour>
	</outline>
	<anchor name="top" x="908" y="1024"/>
	<anchor name="bottom" x="908" y="0"/>
</glyph>
<glyph name="Scedilla" format="2">
	<unicode hex="015E"/>
	<advance width="1296"/>
	<outline>
		<contour>
			<point x="1058" y="1373" type="line"/>
			<point x="931" y="1433"/>
			<point x="828" y="1460"/>
			<point x="687" y="1460" type="curve" smooth="yes"/>
			<point x="324" y="1460"/>
			<point x="88" y="1284"/>
			<point x="88" y="1008" type="curve" smooth="yes"/>
			<point x="88" y="743"/>
			<point x="265" y="652"/>
			<point x="460" y="585" type="curve" smooth="yes"/>
			<point x="655" y="518"/>
			<point x="864" y="480"/>
			<point x="864" y="290" type="curve" smooth="yes"/>
			<point x="864" y="162"/>
			<point x="785" y="56"/>
			<point x="538" y="56" type="curve" smooth="yes"/>
			<point x="424" y="56"/>
			<point x="325" y="90"/>
			<point x="195" y="158" type="curve"/>
			<point x="403" y="24" type="line"/>
			<point x="101" y="462" type="line"/>
			<point x="65" y="462" type="line"/>
			<point x="141" y="30" type="line"/>
			<point x="285" y="-20"/>
			<point x="408" y="-30"/>
			<point x="557" y="-30" type="curve" smooth="yes"/>
			<point x="930" y="-30"/>
			<point x="1235" y="165"/>
			<point x="1235" y="499" type="curve" smooth="yes"/>
			<point x="1235" y="800"/>
			<point x="1012" y="894"/>
			<point x="815" y="958" type="curve" smooth="yes"/>
			<point x="618" y="1022"/>
			<point x="446" y="1062"/>
			<point x="446" y="1208" type="curve" smooth="yes"/>
			<point x="446" y="1304"/>
			<point x="497" y="1377"/>
			<point x="651" y="1377" type="curve" smooth="yes"/>
			<point x="759" y="1377"/>
			<point x="862" y="1343"/>
			<point x="996" y="1200" type="curve"/>
			<point x="876" y="1340" type="line"/>
			<point x="1135" y="983" type="line"/>
			<point x="1171" y="992" type="line"/>
			<point x="1078" y="1510" type="line"/>
			<point x="1056" y="1510" type="line"/>
			<point x="906" y="1387" type="line"/>
		</contour>
		<contour>
			<point x="565" y="-465" type="curve" smooth="yes"/>
			<point x="722" y="-465"/>
			<point x="870" y="-364"/>
			<point x="870" y="-239" type="curve" smooth="yes"/>
			<point x="870" y="-165"/>
			<point x="833" y="-102"/>
			<point x="625" y="-57" type="curve"/>
			<point x="580" y="-190" type="line"/>
			<point x="777" y="49" type="line"/>
			<point x="703" y="49" type="line"/>
			<point x="486" y="-224" type="line"/>
			<point x="486" y="-229" type="line"/>
			<point x="680" y="-260"/>
			<point x="712" y="-301"/>
			<point x="712" y="-339" type="curve" smooth="yes"/>
			<point x="712" y="-383"/>
			<point x="681" y="-408"/>
			<point x="630" y="-408" type="curve" smooth="yes"/>
			<point x="570" y="-408"/>
			<point x="493" y="-312"/>
			<point x="477" y="-312" type="curve" smooth="yes"/>
			<point x="439" y="-312"/>
			<point x="421" y="-344"/>
			<point x="421" y="-376" type="curve" smooth="yes"/>
			<point x="421" y="-426"/>
			<point x="460" y="-465"/>
		</contour>
	</outline>
</glyph>
<glyph name="scedilla" format="2">
	<unicode hex="015F"/>
	<advance width="964"/>
	<outline>
		<contour>
			<point x="516" y="1054" type="curve" smooth="yes"/>
			<point x="261" y="1054"/>
			<point x="62" y="915"/>
			<point x="62" y="680" type="curve" smooth="yes"/>
			<point x="62" y="515"/>
			<point x="163" y="426"/>
			<point x="362" y="376" type="curve" smooth="yes"/>
			<point x="561" y="325"/>
			<point x="619" y="274"/>
			<point x="619" y="190" type="curve" smooth="yes"/>
			<point x="619" y="82"/>
			<point x="544" y="31"/>
			<point x="425" y="31" type="curve" smooth="yes"/>
			<point x="356" y="31"/>
			<point x="282" y="48"/>
			<point x="225" y="87" type="curve"/>
			<point x="292" y="27" type="line"/>
			<point x="89" y="347" type="line"/>
			<point x="51" y="347" type="line"/>
			<point x="104" y="23" type="line"/>
			<point x="169" y="-8"/>
			<point x="269" y="-30"/>
			<point x="420" y="-30" type="curve" smooth="yes"/>
			<point x="723" y="-30"/>
			<point x="920" y="131"/>
			<point x="920" y="360" type="curve" smooth="yes"/>
			<point x="920" y="538"/>
			<point x="841" y="660"/>
			<point x="611" y="719" type="curve" smooth="yes"/>
			<point x="381" y="778"/>
			<point x="358" y="822"/>
			<point x="358" y="881" type="curve" smooth="yes"/>
			<point x="358" y="957"/>
			<point x="415" y="992"/>
			<point x="532" y="992" type="curve" smooth="yes"/>
			<point x="601" y="992"/>
			<point x="670" y="970"/>
			<point x="745" y="911" type="curve"/>
			<point x="647" y="997" type="line"/>
			<point x="830" y="726" type="line"/>
			<point x="862" y="726" type="line"/>
			<point x="815" y="1008" type="line"/>
			<point x="722" y="1039"/>
			<point x="640" y="1054"/>
		</contour>
		<contour>
			<point x="390" y="-465" type="curve" smooth="yes"/>
			<point x="547" y="-465"/>
			<point x="695" y="-364"/>
			<point x="695" y="-239" type="curve" smooth="yes"/>
			<point x="695" y="-165"/>
			<point x="658" y="-102"/>
			<point x="450" y="-57" type="curve"/>
			<point x="405" y="-190" type="line"/>
			<point x="602" y="49" type="line"/>
			<point x="528" y="49" type="line"/>
			<point x="311" y="-224" type="line"/>
			<point x="311" y="-229" type="line"/>
			<point x="505" y="-260"/>
			<point x="537" y="-301"/>
			<point x="537" y="-339" type="curve" smooth="yes"/>
			<point x="537" y="-383"/>
			<point x="506" y="-408"/>
			<point x="455" y="-408" type="curve" smooth="yes"/>
			<point x="395" y="-408"/>
			<point x="318" y="-312"/>
			<point x="302" y="-312" type="curve" smooth="yes"/>
			<point x="264" y="-312"/>
			<point x="246" y="-344"/>
			<point x="246" y="-376" type="curve" smooth="yes"/>
			<point x="246" y="-426"/>
			<point x="285" y="-465"/>
		</contour>
	</outline>
</glyph>
<glyph name="uni0162" format="2">
	<unicode hex="0162"/>
	<advance width="1602"/>
	<outline>
		<contour>
			<point x="547" y="1390" type="line"/>
			<point x="547" y="94" type="line"/>
			<point x="394" y="38" type="line"/>
			<point x="394" y="0" type="line"/>
			<point x="1208" y="0" type="line"/>
			<point x="1208" y="38" type="line"/>
			<point x="1055" y="94" type="line"/>
			<point x="1055" y="1390" type="line"/>
		</contour>
		<contour>
			<point x="1418" y="1330" type="line"/>
			<point x="1283" y="1368" type="line"/>
			<point x="1540" y="911" type="line"/>
			<point x="1577" y="918" type="line"/>
			<point x="1509" y="1512" type="line"/>
			<point x="1489" y="1512" type="line"/>
			<point x="1246" y="1398" type="line"/>
			<point x="1394" y="1430" type="line"/>
			<point x="208" y="1430" type="line"/>
			<point x="356" y="1398" type="line"/>
			<point x="113" y="1512" type="line"/>
			<point x="93" y="1512" type="line"/>
			<point x="25" y="918" type="line"/>
			<point x="62" y="911" type="line"/>
			<point x="319" y="1368" type="line"/>
			<point x="184" y="1330" type="line"/>
		</contour>
		<contour>
			<point x="691" y="-465" type="curve" smooth="yes"/>
			<point x="848" y="-465"/>
			<point x="996" y="-364"/>
			<point x="996" y="-239" type="curve" smooth="yes"/>
			<point x="996" y="-165"/>
			<point x="959" y="-102"/>
			<point x="751" y="-57" type="curve"/>
			<point x="706" y="-190" type="line"/>
			<point x="903" y="49" type="line"/>
			<point x="829" y="49" type="line"/>
			<point x="612" y="-224" type="line"/>
			<point x="612" y="-229" type="line"/>
			<point x="806" y="-260"/>
			<point x="838" y="-301"/>
			<point x="838" y="-339" type="curve" smooth="yes"/>
			<point x="838" y="-383"/>
			<point x="807" y="-408"/>
			<point x="756" y="-408" type="curve" smooth="yes"/>
			<point x="696" y="-408"/>
			<point x="619" y="-312"/>
			<point x="603" y="-312" type="curve" smooth="yes"/>
			<point x="565" y="-312"/>
			<point x="547" y="-344"/>
			<point x="547" y="-376" type="curve" smooth="yes"/>
			<point x="547" y="-426"/>
			<point x="586" y="-465"/>
		</contour>
	</outline>
</glyph>
<glyph name="uni0163" format="2">
	<unicode hex="0163"/>
	<advance width="964"/>
	<outline>
		<contour>
			<point x="603" y="331" type="curve" smooth="yes"/>
			<point x="603" y="1001" type="line"/>
			<point x="603" y="1282" type="line"/>
			<point x="579" y="1282" type="line"/>
			<point x="395.6045016077" y="1184"/>
			<point x="38.1704180064" y="993"/>
			<point x="-3" y="971" type="curve"/>
			<point x="-3" y="941" type="line"/>
			<point x="167" y="794" type="line"/>
			<point x="167" y="303" type="line" smooth="yes"/>
			<point x="167" y="78"/>
			<point x="288" y="-30"/>
			<point x="506" y="-30" type="curve" smooth="yes"/>
			<point x="642" y="-30"/>
			<point x="763" y="14"/>
			<point x="987" y="184" type="curve"/>
			<point x="987" y="238" type="line"/>
			<point x="891" y="215"/>
			<point x="825" y="209"/>
			<point x="762" y="209" type="curve" smooth="yes"/>
			<point x="650" y="209"/>
			<point x="603" y="248"/>
		</contour>
		<contour>
			<point x="430" y="843" type="line"/>
			<point x="924" y="843" type="line"/>
			<point x="947" y="1024" type="line"/>
			<point x="430" y="1024" type="line"/>
		</contour>
		<contour>
			<point x="452" y="-465" type="curve" smooth="yes"/>
			<point x="609" y="-465"/>
			<point x="757" y="-364"/>
			<point x="757" y="-239" type="curve" smooth="yes"/>
			<point x="757" y="-165"/>
			<point x="720" y="-102"/>
			<point x="512" y="-57" type="curve"/>
			<point x="467" y="-190" type="line"/>
			<point x="664" y="49" type="line"/>
			<point x="590" y="49" type="line"/>
			<point x="373" y="-224" type="line"/>
			<point x="373" y="-229" type="line"/>
			<point x="567" y="-260"/>
			<point x="599" y="-301"/>
			<point x="599" y="-339" type="curve" smooth="yes"/>
			<point x="599" y="-383"/>
			<point x="568" y="-408"/>
			<point x="517" y="-408" type="curve" smooth="yes"/>
			<point x="457" y="-408"/>
			<point x="380" y="-312"/>
			<point x="364" y="-312" type="curve" smooth="yes"/>
			<point x="326" y="-312"/>
			<point x="308" y="-344"/>
			<point x="308" y="-376" type="curve" smooth="yes"/>
			<point x="308" y="-426"/>
			<point x="347" y="-465"/>
		</contour>
	</outline>
</glyph>
<glyph name="tbar" format="2">
	<unicode hex="0167"/>
	<advance width="968"/>
	<outline>
		<contour>
			<point x="34" y="516" type="line"/>
			<point x="868" y="516" type="line"/>
			<point x="868" y="598" type="line"/>
			<point x="34" y="598" type="line"/>
		</contour>
		<contour>
			<point x="608" y="331" type="curve" smooth="yes"/>
			<point x="608" y="1001" type="line"/>
			<point x="608" y="1282" type="line"/>
			<point x="584" y="1282" type="line"/>
			<point x="400.6045016077" y="1184"/>
			<point x="43.1704180064" y="993"/>
			<point x="2" y="971" type="curve"/>
			<point x="2" y="941" type="line"/>
			<point x="172" y="794" type="line"/>
			<point x="172" y="303" type="line" smooth="yes"/>
			<point x="172" y="78"/>
			<point x="293" y="-30"/>
			<point x="511" y="-30" type="curve" smooth="yes"/>
			<point x="647" y="-30"/>
			<point x="768" y="14"/>
			<point x="992" y="184" type="curve"/>
			<point x="992" y="238" type="line"/>
			<point x="896" y="215"/>
			<point x="830" y="209"/>
			<point x="767" y="209" type="curve" smooth="yes"/>
			<point x="655" y="209"/>
			<point x="608" y="248"/>
		</contour>
		<contour>
			<point x="435" y="843" type="line"/>
			<point x="929" y="843" type="line"/>
			<point x="952" y="1024" type="line"/>
			<point x="435" y="1024" type="line"/>
		</contour>
	</outline>
</glyph>
<glyph name="uogonek" format="2">
	<unicode hex="0173"/>
	<advance width="1318"/>
	<outline>
		<contour>
			<point x="553" y="350" type="curve" smooth="yes"/>
			<point x="553" y="924" type="line"/>
			<point x="558" y="1039" type="line"/>
			<point x="10" y="1009" type="line"/>
			<point x="10" y="976" type="line"/>
			<point x="115" y="901" type="line"/>
			<point x="115" y="252" type="line" smooth="yes"/>
			<point x="115" y="81"/>
			<point x="213" y="-20"/>
			<point x="382" y="-20" type="curve" smooth="yes"/>
			<point x="536" y="-20"/>
			<point x="594" y="7"/>
			<point x="785" y="253" type="curve"/>
			<point x="785" y="279" type="line"/>
			<point x="727" y="252"/>
			<point x="689" y="243"/>
			<point x="651" y="243" type="curve" smooth="yes"/>
			<point x="585" y="243"/>
			<point x="553" y="268"/>
		</contour>
		<contour>
			<point x="770" y="-43" type="line"/>
			<point x="799" y="-43" type="line"/>
			<point x="1318" y="59" type="line"/>
			<point x="1318" y="90" type="line"/>
			<point x="1276" y="118.4028776978"/>
			<point x="1203" y="167.7697841727"/>
			<point x="1179" y="184" type="curve"/>
			<point x="1179" y="921" type="line"/>
			<point x="1195" y="1039" type="line"/>
			<point x="646" y="1009" type="line"/>
			<point x="646" y="976" type="line"/>
			<point x="741" y="904" type="line"/>
			<point x="741" y="151" type="line"/>
		</contour>
		<contour>
			<point x="833" y="-42" type="curve" smooth="yes"/>
			<point x="904" y="82" type="line"/>
			<point x="863" y="82" type="line"/>
			<point x="745" y="-65" type="line" smooth="yes"/>
			<point x="630" y="-208"/>
			<point x="609" y="-263"/>
			<point x="609" y="-321" type="curve" smooth="yes"/>
			<point x="609" y="-401"/>
			<point x="656" y="-465"/>
			<point x="774" y="-465" type="curve" smooth="yes"/>
			<point x="849" y="-465"/>
			<point x="909" y="-435"/>
			<point x="1017" y="-307" type="curve"/>
			<point x="1002" y="-282" type="line"/>
			<point x="939" y="-329"/>
			<point x="903" y="-332"/>
			<point x="874" y="-332" type="curve" smooth="yes"/>
			<point x="806" y="-332"/>
			<point x="763" y="-294"/>
			<point x="763" y="-238" type="curve" smooth="yes"/>
			<point x="763" y="-201"/>
			<point x="769" y="-154"/>
		</contour>
	</outline>
</glyph>
<glyph name="uni018F" format="2">
  <advance width="1521"/>
  <unicode hex="018F"/>
  <outline>
    <contour>
      <point x="296.0" y="470.0" type="line"/>
      <point x="1128.0" y="470.0" type="line"/>
      <point x="1128.0" y="570.0" type="line"/>
      <point x="56.0" y="570.0" type="line"/>
      <point x="85.0" y="197.0"/>
      <point x="285.0" y="-28.0"/>
      <point x="710.0" y="-29.0" type="curve" smooth="yes"/>
      <point x="1171.0" y="-31.0"/>
      <point x="1456.0" y="333.0"/>
      <point x="1456.0" y="744.0" type="curve" smooth="yes"/>
      <point x="1456.0" y="1190.0"/>
      <point x="1198.0" y="1460.0"/>
      <point x="762.0" y="1460.0" type="curve" smooth="yes"/>
      <point x="486.0" y="1460.0"/>
      <point x="244.0" y="1345.0"/>
      <point x="37.0" y="999.0" type="curve"/>
      <point x="77.0" y="965.0" type="line"/>
      <point x="245.0" y="1108.0"/>
      <point x="400.0" y="1144.0"/>
      <point x="561.0" y="1144.0" type="curve" smooth="yes"/>
      <point x="888.0" y="1144.0"/>
      <point x="1055.0" y="977.0"/>
      <point x="1055.0" y="540.0" type="curve" smooth="yes"/>
      <point x="1055.0" y="186.0"/>
      <point x="935.0" y="58.0"/>
      <point x="755.0" y="58.0" type="curve" smooth="yes"/>
      <point x="590.0" y="58.0"/>
      <point x="512.0" y="204.0"/>
      <point x="494.0" y="544.0" type="curve"/>
    </contour>
  </outline>
</glyph>
<glyph name="Ohorn" format="2">
	<unicode hex="01A0"/>
	<advance width="1669"/>
	<outline>
		<contour>
			<point x="860" y="57" type="curve" smooth="yes"/>
			<point x="670" y="57"/>
			<point x="575" y="317"/>
			<point x="575" y="804" type="curve" smooth="yes"/>
			<point x="575" y="1247"/>
			<point x="686" y="1373"/>
			<point x="823" y="1373" type="curve" smooth="yes"/>
			<point x="1013" y="1373"/>
			<point x="1108" y="1113"/>
			<point x="1108" y="626" type="curve" smooth="yes"/>
			<point x="1108" y="183"/>
			<point x="997" y="57"/>
		</contour>
		<contour>
			<point x="872" y="1460" type="curve" smooth="yes"/>
			<point x="404" y="1460"/>
			<point x="62" y="1139"/>
			<point x="62" y="688" type="curve" smooth="yes"/>
			<point x="62" y="259"/>
			<point x="379" y="-30"/>
			<point x="811" y="-30" type="curve" smooth="yes"/>
			<point x="1279" y="-30"/>
			<point x="1621" y="291"/>
			<point x="1621" y="742" type="curve" smooth="yes"/>
			<point x="1621" y="1009"/>
			<point x="1500" y="1242"/>
			<point x="1253" y="1371" type="curve"/>
			<point x="1253" y="1358" type="line"/>
			<point x="1484" y="1358"/>
			<point x="1583" y="1465"/>
			<point x="1583" y="1612" type="curve" smooth="yes"/>
			<point x="1583" y="1718"/>
			<point x="1532" y="1774"/>
			<point x="1445" y="1774" type="curve" smooth="yes"/>
			<point x="1374" y="1774"/>
			<point x="1315" y="1728"/>
			<point x="1315" y="1673" type="curve" smooth="yes"/>
			<point x="1315" y="1654"/>
			<point x="1373" y="1614"/>
			<point x="1373" y="1544" type="curve" smooth="yes"/>
			<point x="1373" y="1475"/>
			<point x="1318" y="1430"/>
			<point x="1202" y="1430" type="curve" smooth="yes"/>
			<point x="1083" y="1430"/>
			<point x="1019" y="1460"/>
		</contour>
	</outline>
	<anchor name="UCtop" x="842" y="1430"/>
	<anchor name="bottom" x="842" y="0"/>
</glyph>
<glyph name="ohorn" format="2">
	<unicode hex="01A1"/>
	<advance width="1214"/>
	<outline>
		<contour>
			<point x="610" y="49" type="curve" smooth="yes"/>
			<point x="508" y="49"/>
			<point x="496" y="217"/>
			<point x="496" y="553" type="curve" smooth="yes"/>
			<point x="496" y="861"/>
			<point x="514" y="974"/>
			<point x="604" y="974" type="curve" smooth="yes"/>
			<point x="706" y="974"/>
			<point x="718" y="807"/>
			<point x="718" y="471" type="curve" smooth="yes"/>
			<point x="718" y="162"/>
			<point x="700" y="49"/>
		</contour>
		<contour>
			<point x="1211" y="1206" type="curve" smooth="yes"/>
			<point x="1211" y="1312"/>
			<point x="1160" y="1368"/>
			<point x="1073" y="1368" type="curve" smooth="yes"/>
			<point x="1002" y="1368"/>
			<point x="943" y="1322"/>
			<point x="943" y="1267" type="curve" smooth="yes"/>
			<point x="943" y="1248"/>
			<point x="1001" y="1208"/>
			<point x="1001" y="1138" type="curve" smooth="yes"/>
			<point x="1001" y="1073"/>
			<point x="951" y="1029"/>
			<point x="852" y="1029" type="curve" smooth="yes"/>
			<point x="787" y="1029"/>
			<point x="718" y="1054"/>
			<point x="622" y="1054" type="curve" smooth="yes"/>
			<point x="287" y="1054"/>
			<point x="46" y="831"/>
			<point x="46" y="506" type="curve" smooth="yes"/>
			<point x="46" y="188"/>
			<point x="260" y="-30"/>
			<point x="592" y="-30" type="curve" smooth="yes"/>
			<point x="923" y="-30"/>
			<point x="1169" y="192"/>
			<point x="1169" y="518" type="curve" smooth="yes"/>
			<point x="1169" y="718"/>
			<point x="1082" y="897"/>
			<point x="917" y="983" type="curve"/>
			<point x="917" y="970" type="line"/>
			<point x="1120" y="971"/>
			<point x="1211" y="1080"/>
		</contour>
	</outline>
	<anchor name="top" x="608" y="1024"/>
	<anchor name="bottom" x="608" y="0"/>
</glyph>
<glyph name="uhorn" format="2">
	<unicode hex="01B0"/>
	<advance width="1343"/>
	<outline>
		<contour>
			<point x="553" y="350" type="curve" smooth="yes"/>
			<point x="553" y="924" type="line"/>
			<point x="558" y="1039" type="line"/>
			<point x="10" y="1009" type="line"/>
			<point x="10" y="976" type="line"/>
			<point x="115" y="901" type="line"/>
			<point x="115" y="252" type="line" smooth="yes"/>
			<point x="115" y="81"/>
			<point x="213" y="-20"/>
			<point x="382" y="-20" type="curve" smooth="yes"/>
			<point x="536" y="-20"/>
			<point x="594" y="7"/>
			<point x="785" y="253" type="curve"/>
			<point x="785" y="279" type="line"/>
			<point x="727" y="252"/>
			<point x="689" y="243"/>
			<point x="651" y="243" type="curve" smooth="yes"/>
			<point x="585" y="243"/>
			<point x="553" y="268"/>
		</contour>
		<contour>
			<point x="1265" y="1138" type="curve" smooth="yes"/>
			<point x="1265" y="1070"/>
			<point x="1233" y="1041"/>
			<point x="1142" y="1036" type="curve" smooth="yes"/>
			<point x="646" y="1009" type="line"/>
			<point x="646" y="976" type="line"/>
			<point x="741" y="904" type="line"/>
			<point x="741" y="151" type="line"/>
			<point x="770" y="-43" type="line"/>
			<point x="799" y="-43" type="line"/>
			<point x="1318" y="59" type="line"/>
			<point x="1318" y="90" type="line"/>
			<point x="1276" y="118.4028776978"/>
			<point x="1203" y="167.7697841727"/>
			<point x="1179" y="184" type="curve"/>
			<point x="1179" y="921" type="line"/>
			<point x="1185" y="973" type="line"/>
			<point x="1387" y="973"/>
			<point x="1475" y="1078"/>
			<point x="1475" y="1206" type="curve" smooth="yes"/>
			<point x="1475" y="1312"/>
			<point x="1424" y="1368"/>
			<point x="1337" y="1368" type="curve" smooth="yes"/>
			<point x="1266" y="1368"/>
			<point x="1207" y="1322"/>
			<point x="1207" y="1267" type="curve" smooth="yes"/>
			<point x="1207" y="1248"/>
			<point x="1265" y="1208"/>
		</contour>
	</outline>
	<anchor name="top" x="638" y="1024"/>
	<anchor name="bottom" x="638" y="0"/>
</glyph>
<glyph name="uni01EA" format="2">
  <advance width="1683"/>
  <unicode hex="01EA"/>
  <outline>
    <contour>
      <point x="872.0" y="1460.0" type="curve" smooth="yes"/>
      <point x="404.0" y="1460.0"/>
      <point x="62.0" y="1139.0"/>
      <point x="62.0" y="688.0" type="curve" smooth="yes"/>
      <point x="62.0" y="259.0"/>
      <point x="379.0" y="-30.0"/>
      <point x="811.0" y="-30.0" type="curve" smooth="yes"/>
      <point x="1279.0" y="-30.0"/>
      <point x="1621.0" y="291.0"/>
      <point x="1621.0" y="742.0" type="curve" smooth="yes"/>
      <point x="1621.0" y="1171.0"/>
      <point x="1304.0" y="1460.0"/>
    </contour>
    <contour>
      <point x="860.0" y="57.0" type="curve" smooth="yes"/>
      <point x="670.0" y="57.0"/>
      <point x="575.0" y="317.0"/>
      <point x="575.0" y="804.0" type="curve" smooth="yes"/>
      <point x="575.0" y="1247.0"/>
      <point x="686.0" y="1373.0"/>
      <point x="823.0" y="1373.0" type="curve" smooth="yes"/>
      <point x="1013.0" y="1373.0"/>
      <point x="1108.0" y="1113.0"/>
      <point x="1108.0" y="626.0" type="curve" smooth="yes"/>
      <point x="1108.0" y="183.0"/>
      <point x="997.0" y="57.0"/>
    </contour>
    <contour>
      <point x="897.0" y="-20.0" type="curve" smooth="yes"/>
      <point x="918.0" y="20.0" type="line"/>
      <point x="863.0" y="20.0" type="line"/>
      <point x="812.0" y="-43.0" type="line" smooth="yes"/>
      <point x="689.0" y="-193.0"/>
      <point x="655.0" y="-254.0"/>
      <point x="655.0" y="-321.0" type="curve" smooth="yes"/>
      <point x="655.0" y="-401.0"/>
      <point x="702.0" y="-465.0"/>
      <point x="820.0" y="-465.0" type="curve" smooth="yes"/>
      <point x="895.0" y="-465.0"/>
      <point x="955.0" y="-435.0"/>
      <point x="1063.0" y="-307.0" type="curve"/>
      <point x="1048.0" y="-282.0" type="line"/>
      <point x="985.0" y="-329.0"/>
      <point x="949.0" y="-332.0"/>
      <point x="920.0" y="-332.0" type="curve" smooth="yes"/>
      <point x="857.0" y="-332.0"/>
      <point x="819.0" y="-300.0"/>
      <point x="819.0" y="-248.0" type="curve" smooth="yes"/>
      <point x="819.0" y="-203.0"/>
      <point x="826.0" y="-155.0"/>
    </contour>
  </outline>
</glyph>
<glyph name="uni01EB" format="2">
	<unicode hex="01EB"/>
	<advance width="1215"/>
	<outline>
		<contour>
			<point x="610" y="49" type="curve" smooth="yes"/>
			<point x="508" y="49"/>
			<point x="496" y="217"/>
			<point x="496" y="553" type="curve" smooth="yes"/>
			<point x="496" y="861"/>
			<point x="514" y="974"/>
			<point x="604" y="974" type="curve" smooth="yes"/>
			<point x="706" y="974"/>
			<point x="718" y="807"/>
			<point x="718" y="471" type="curve" smooth="yes"/>
			<point x="718" y="162"/>
			<point x="700" y="49"/>
		</contour>
		<contour>
			<point x="592" y="-30" type="curve" smooth="yes"/>
			<point x="923" y="-30"/>
			<point x="1169" y="192"/>
			<point x="1169" y="518" type="curve" smooth="yes"/>
			<point x="1169" y="836"/>
			<point x="960" y="1054"/>
			<point x="622" y="1054" type="curve" smooth="yes"/>
			<point x="287" y="1054"/>
			<point x="46" y="831"/>
			<point x="46" y="506" type="curve" smooth="yes"/>
			<point x="46" y="188"/>
			<point x="260" y="-30"/>
		</contour>
		<contour>
			<point x="705" y="-21" type="curve" smooth="yes"/>
			<point x="799" y="97" type="line"/>
			<point x="766" y="97" type="line"/>
			<point x="612" y="-43" type="line" smooth="yes"/>
			<point x="452" y="-188"/>
			<point x="420" y="-254"/>
			<point x="420" y="-321" type="curve" smooth="yes"/>
			<point x="420" y="-401"/>
			<point x="467" y="-465"/>
			<point x="585" y="-465" type="curve" smooth="yes"/>
			<point x="660" y="-465"/>
			<point x="720" y="-435"/>
			<point x="828" y="-307" type="curve"/>
			<point x="813" y="-282" type="line"/>
			<point x="750" y="-329"/>
			<point x="714" y="-332"/>
			<point x="685" y="-332" type="curve" smooth="yes"/>
			<point x="622" y="-332"/>
			<point x="584" y="-300"/>
			<point x="584" y="-248" type="curve" smooth="yes"/>
			<point x="584" y="-203"/>
			<point x="600" y="-152"/>
		</contour>
	</outline>
</glyph>
<glyph name="uni0237" format="2">
	<unicode hex="0237"/>
	<advance width="678"/>
	<outline>
		<contour>
			<point x="135" y="738" type="curve"/>
			<point x="135" y="-105" type="line" smooth="yes"/>
			<point x="135" y="-236"/>
			<point x="123" y="-280"/>
			<point x="12" y="-430" type="curve"/>
			<point x="31" y="-455" type="line"/>
			<point x="520" y="-143"/>
			<point x="573" y="-76"/>
			<point x="573" y="153" type="curve" smooth="yes"/>
			<point x="573" y="836" type="line"/>
			<point x="573" y="1054" type="line"/>
			<point x="546" y="1054" type="line"/>
			<point x="23" y="916" type="line"/>
			<point x="23" y="883" type="line"/>
			<point x="84" y="804.0267857143"/>
			<point x="113" y="766.4821428571"/>
		</contour>
	</outline>
	<anchor name="top" x="344" y="1024"/>
	<anchor name="bottom" x="354" y="-435"/>
</glyph>
<glyph name="uni0259" format="2">
  <advance width="1086"/>
  <unicode hex="0259"/>
  <outline>
    <contour>
      <point x="486.0" y="-30.0" type="curve" smooth="yes"/>
      <point x="853.0" y="-30.0"/>
      <point x="1039.0" y="234.0"/>
      <point x="1039.0" y="534.0" type="curve" smooth="yes"/>
      <point x="1039.0" y="857.0"/>
      <point x="836.0" y="1054.0"/>
      <point x="518.0" y="1054.0" type="curve" smooth="yes"/>
      <point x="319.0" y="1054.0"/>
      <point x="178.0" y="961.0"/>
      <point x="28.0" y="681.0" type="curve"/>
      <point x="57.0" y="655.0" type="line"/>
      <point x="160.0" y="752.0"/>
      <point x="231.0" y="779.0"/>
      <point x="338.0" y="779.0" type="curve" smooth="yes"/>
      <point x="537.0" y="779.0"/>
      <point x="635.0" y="667.0"/>
      <point x="635.0" y="372.0" type="curve" smooth="yes"/>
      <point x="635.0" y="101.0"/>
      <point x="597.0" y="50.0"/>
      <point x="522.0" y="50.0" type="curve" smooth="yes"/>
      <point x="455.0" y="50.0"/>
      <point x="426.0" y="114.0"/>
      <point x="418.0" y="375.0" type="curve"/>
      <point x="216.0" y="320.0" type="line"/>
      <point x="728.0" y="320.0" type="line"/>
      <point x="728.0" y="411.0" type="line"/>
      <point x="42.0" y="411.0" type="line"/>
      <point x="63.0" y="137.0"/>
      <point x="208.0" y="-30.0"/>
    </contour>
  </outline>
</glyph>
<glyph name="gravecomb" format="2">
	<unicode hex="0300"/>
	<outline>
		<contour>
			<point x="40" y="1138" type="line"/>
			<point x="-57" y="1464" type="line"/>
			<point x="-344" y="1464" type="line"/>
			<point x="-344" y="1454" type="line"/>
			<point x="-3" y="1138" type="line"/>
		</contour>
	</outline>
	<anchor name="_top" x="0" y="1024"/>
	<anchor name="top" x="0" y="1535"/>
</glyph>
<glyph name="tildecomb" format="2">
	<unicode hex="0303"/>
	<outline>
		<contour>
			<point x="324" y="1450" type="curve"/>
			<point x="265" y="1450" type="line"/>
			<point x="235" y="1351"/>
			<point x="210" y="1327"/>
			<point x="151" y="1327" type="curve" smooth="yes"/>
			<point x="61" y="1327"/>
			<point x="-15" y="1460"/>
			<point x="-120" y="1460" type="curve" smooth="yes"/>
			<point x="-217" y="1460"/>
			<point x="-276" y="1406"/>
			<point x="-324" y="1152" type="curve"/>
			<point x="-265" y="1152" type="line"/>
			<point x="-235" y="1251"/>
			<point x="-210" y="1275"/>
			<point x="-151" y="1275" type="curve" smooth="yes"/>
			<point x="-61" y="1275"/>
			<point x="15" y="1142"/>
			<point x="120" y="1142" type="curve" smooth="yes"/>
			<point x="217" y="1142"/>
			<point x="276" y="1196"/>
		</contour>
	</outline>
	<anchor name="_top" x="0" y="1024"/>
	<anchor name="top" x="0" y="1376"/>
</glyph>
<glyph name="uni0306" format="2">
	<unicode hex="0306"/>
	<outline>
		<contour>
			<point x="0" y="1303" type="curve" smooth="yes"/>
			<point x="-132" y="1303"/>
			<point x="-229" y="1353"/>
			<point x="-263" y="1464" type="curve"/>
			<point x="-329" y="1464" type="line"/>
			<point x="-267" y="1209"/>
			<point x="-188" y="1128"/>
			<point x="0" y="1128" type="curve" smooth="yes"/>
			<point x="188" y="1128"/>
			<point x="267" y="1209"/>
			<point x="329" y="1464" type="curve"/>
			<point x="263" y="1464" type="line"/>
			<point x="229" y="1353"/>
			<point x="132" y="1303"/>
		</contour>
	</outline>
	<anchor name="_top" x="0" y="1024"/>
	<anchor name="top" x="0" y="1464"/>
</glyph>
<glyph name="uni0307" format="2">
	<unicode hex="0307"/>
	<outline>
		<contour>
			<point x="0" y="1152" type="curve" smooth="yes"/>
			<point x="91" y="1152"/>
			<point x="154" y="1216"/>
			<point x="154" y="1301" type="curve" smooth="yes"/>
			<point x="154" y="1385"/>
			<point x="91" y="1451"/>
			<point x="0" y="1451" type="curve" smooth="yes"/>
			<point x="-91" y="1451"/>
			<point x="-154" y="1385"/>
			<point x="-154" y="1301" type="curve" smooth="yes"/>
			<point x="-154" y="1216"/>
			<point x="-91" y="1152"/>
		</contour>
	</outline>
	<anchor name="_top" x="0" y="1024"/>
	<anchor name="top" x="0" y="1376"/>
	<anchor name="_mid" x="0" y="1301"/>
</glyph>
